<?xml version="1.0" encoding="utf-8"?>
<!-- Generator: Adobe Illustrator 19.0.0, SVG Export Plug-In . SVG Version: 6.00 Build 0)  -->
<svg version="1.1" id="Layer_1" xmlns="http://www.w3.org/2000/svg" xmlns:xlink="http://www.w3.org/1999/xlink" x="0px" y="0px"
	 viewBox="0 0 612 792" style="enable-background:new 0 0 612 792;" xml:space="preserve">
<style type="text/css">
	.st0{fill:#FEE0C2;}
	.st1{clip-path:url(#XMLID_146_);fill:#F7CDA4;}
	.st2{clip-path:url(#XMLID_146_);fill:#FEDABB;}
	.st3{clip-path:url(#XMLID_147_);fill:#CEC35C;}
	.st4{clip-path:url(#XMLID_148_);fill:#304D48;}
	.st5{clip-path:url(#XMLID_148_);fill:#1F3834;}
	.st6{clip-path:url(#XMLID_150_);fill:#42574E;}
	.st7{clip-path:url(#XMLID_151_);fill:#D3C96B;}
	.st8{fill:#FFFFFF;}
	.st9{fill:#F7CDA4;}
	.st10{fill:#F58967;}
	.st11{clip-path:url(#XMLID_153_);fill:#CE4827;}
	.st12{clip-path:url(#XMLID_154_);fill:#10323D;}
	.st13{clip-path:url(#XMLID_154_);fill:none;stroke:#10323D;stroke-width:2;stroke-linecap:round;stroke-miterlimit:10;}
	.st14{clip-path:url(#XMLID_156_);fill:#EB9F44;}
	.st15{clip-path:url(#XMLID_157_);fill:#10323D;}
	.st16{clip-path:url(#XMLID_158_);fill:#10323D;}
	.st17{clip-path:url(#XMLID_160_);fill:#CE4827;}
	.st18{clip-path:url(#XMLID_161_);fill:#54191E;}
	.st19{clip-path:url(#XMLID_162_);fill:#E6A666;}
	.st20{fill:#FFF3E3;}
	.st21{fill:#F9B656;}
	.st22{fill:#5B756B;}
	.st23{fill:#E5DE88;}
	.st24{fill:#3F5D58;}
	.st25{fill:#CEC84C;}
	.st26{fill:none;stroke:#FFFFFF;stroke-width:2;stroke-linecap:round;stroke-miterlimit:10;}
	.st27{fill:#224C5E;}
	.st28{fill:#762429;}
	.st29{fill:#CE4827;}
	.st30{fill:#5FAA5F;}
	.st31{fill:#8BCB8E;}
	.st32{fill:#FECE96;}
	.st33{fill:#D3B69C;}
	.st34{fill:#10323D;}
	.st35{fill:#2FB44A;}
</style>
<g id="XMLID_144_">
	<g id="XMLID_179_">
		<path id="XMLID_142_" class="st0" d="M362.4,265.7c10.7,4.8,22,8.4,33.5,10.7c35.9,7.2,104.9,28.5,135.7,89.2
			c42.7,83.9-27,225.6-147,234c-120,8.4-282-60.4-255-216.9C154.1,241,315.1,244.3,362.4,265.7"/>
		<g id="XMLID_307_">
			<defs>
				<path id="XMLID_139_" d="M129.7,382.6c-27,156.6,135,225.4,255,216.9c120-8.4,189.7-150.2,147-234
					c-30.8-60.7-99.9-82-135.7-89.2c-11.5-2.3-22.8-5.8-33.5-10.7c-13.8-6.2-37.3-10.9-64.3-10.9C232.7,254.7,147,282.4,129.7,382.6
					"/>
			</defs>
			<clipPath id="XMLID_146_">
				<use xlink:href="#XMLID_139_"  style="overflow:visible;"/>
			</clipPath>
			<polygon id="XMLID_141_" class="st1" points="405.1,220.8 242.2,617.6 501.6,628.3 593,343 			"/>
			<polygon id="XMLID_140_" class="st2" points="242.2,234.4 308.4,595 159.9,595 76.3,316.3 			"/>
		</g>
		<g id="XMLID_304_">
			<defs>
				<path id="XMLID_137_" d="M505.3,517.4c0.6-3.1,2.9-17.4-2.3-25.3c-9.4-14.3-20.8,56.3-20.8,56.3s91.5-30.3,83.8-55.6
					c-5.4-17.8-26.2,1.8-38,15.1c8.2-10.6,17.5-25.8,4.2-26.1c-0.1,0-0.2,0-0.4,0C513.2,481.8,506.2,512.7,505.3,517.4"/>
			</defs>
			<clipPath id="XMLID_147_">
				<use xlink:href="#XMLID_137_"  style="overflow:visible;"/>
			</clipPath>
			<path id="XMLID_138_" class="st3" d="M481.7,551.1c0,0,9.2-57.5,16.9-45.8c4.7,7.2,1.8,21.1,1.8,21.1s5.4-29.8,22-29.4
				c16.6,0.4-10.3,29.4-10.3,29.4s31.5-41.1,37.8-20.5C556.1,526.4,481.7,551.1,481.7,551.1"/>
		</g>
		<g id="XMLID_300_">
			<defs>
				<path id="XMLID_134_" d="M458.6,527.7c0,0,0-18.6-4.3-33.4c-0.5-1.8-2.1-3.2-4-3.2c-8.2-0.2-6.1,24.2-4.4,37.4
					c-1.4-4.5-4.3-8.7-10.6-6c-19.7,18.3,15.1,57.8,15.1,57.8s57.4-24.6,50.7-38c-3.2-6.5-9.5-5.4-15.2-2.5
					c9.4-7.4,20.1-17.9,12.7-22.3c-9.5-5.7-19,7.1-22.5,12.7c5.5-9.6,24.3-44.6,9.8-55.4c-1.5-1.1-2.9-1.6-4.3-1.6
					C467.3,473.2,458.6,527.7,458.6,527.7"/>
			</defs>
			<clipPath id="XMLID_148_">
				<use xlink:href="#XMLID_134_"  style="overflow:visible;"/>
			</clipPath>
			<path id="XMLID_136_" class="st4" d="M451,579.6c0,0-26.2-29.7-11.4-43.5c8.9-3.8,8.9,10.8,8.9,10.8s-6.1-34.6,2.4-34.4
				c1.4,0,2.6,1.1,3,2.4c3.3,11.1,3.3,25.1,3.3,25.1s7.9-49.3,20.6-39.8c12.7,9.5-8.5,43.5-8.5,43.5s9-16.8,18-11.4
				c9,5.4-18,22.9-18,22.9s14.8-14.3,19.9-4.2C494.2,561.1,451,579.6,451,579.6"/>
			<path id="XMLID_135_" class="st5" d="M450.9,580.2c0,0-16.7-19-7.3-27.7c5.7-2.4,5.7,6.9,5.7,6.9s-3.9-22.1,1.5-22
				c0.9,0,1.7,0.7,1.9,1.5c2.1,7.1,2.1,16,2.1,16s5-31.5,13.1-25.4c8.1,6.1-5.4,27.8-5.4,27.8s5.7-10.7,11.5-7.3
				c5.7,3.5-11.5,14.6-11.5,14.6s9.4-9.1,12.7-2.7S450.9,580.2,450.9,580.2"/>
		</g>
		<g id="XMLID_297_">
			<defs>
				<path id="XMLID_132_" d="M172.2,472l7.9,12.1l-10.7-3.3c0,0-3.4,23,10.7,28.8c-10.7,3.5-6.5,7.1-6.5,7.1s9.4,30.7,35.7,28.1
					c0,0,57-20.1-29.2-108.1L172.2,472z"/>
			</defs>
			<clipPath id="XMLID_150_">
				<use xlink:href="#XMLID_132_"  style="overflow:visible;"/>
			</clipPath>
			<polygon id="XMLID_133_" class="st6" points="174.5,418 211.6,554.6 239.9,516.2 			"/>
		</g>
		<g id="XMLID_294_">
			<defs>
				<path id="XMLID_130_" d="M210.7,558.9c26.3,2.6,35.7-28.1,35.7-28.1s4.3-3.5-6.5-7.1c14.2-5.9,10.7-28.8,10.7-28.8l-10.7,3.3
					l7.9-12.1l-7.9-35.3C153.7,538.8,210.7,558.9,210.7,558.9"/>
			</defs>
			<clipPath id="XMLID_151_">
				<use xlink:href="#XMLID_130_"  style="overflow:visible;"/>
			</clipPath>
			<path id="XMLID_131_" class="st7" d="M242.2,442.3c0,0-6.2,17.2-13.1,35.2c-9.9,26.2-16,53.7-17.8,81.6
				c-0.8,12.1-1.3,21.2-1.3,21.2l55.4-21.4l7.3-92.8L242.2,442.3z"/>
		</g>
		<path id="XMLID_129_" class="st8" d="M210,442.3c0,0,8.9,7,10.6,16"/>
		<path id="XMLID_128_" class="st8" d="M218.1,442.3c0,0,5.9,4.6,6.9,10.5"/>
		<path id="XMLID_127_" class="st0" d="M126.1,504.9c0,0-1.1,17.1,7.3,28"/>
		<path id="XMLID_126_" class="st0" d="M117.8,514.1c0,0-0.7,11.3,4.8,18.4"/>
		<path id="XMLID_125_" class="st8" d="M509.2,464.3c0,0,11.1-2.2,19,2.3"/>
		<path id="XMLID_124_" class="st8" d="M514.4,458c0,0,7.3-1.5,12.5,1.5"/>
		<path id="XMLID_123_" class="st0" d="M464.9,254.1c-4.6,15.9-28.5,23-53.2,15.8c-24.8-7.2-41.1-26-36.5-41.9s28.5-23,53.2-15.8
			C453.2,219.4,469.6,238.1,464.9,254.1"/>
		<path id="XMLID_122_" class="st9" d="M535.5,306.4c-1.6-1.6-5.1,0.8-3.4,2.2c17.4,14.6,28.6,78.2,34.3,91.5
			C573.1,415.8,581,351.7,535.5,306.4"/>
		<path id="XMLID_121_" class="st0" d="M108,364.4c0.9-2,5-1.1,3.9,0.8c-11.2,19.8,0.7,83.3,0.1,97.7
			C111.3,480.1,81.4,422.9,108,364.4"/>
		<polygon id="XMLID_120_" class="st10" points="354.9,374.3 357.2,406.1 333.2,407.8 333.1,384 		"/>
		<g id="XMLID_280_">
			<defs>
				<polygon id="XMLID_117_" points="333.1,384 333.2,407.8 357.2,406.1 354.9,374.3 				"/>
			</defs>
			<clipPath id="XMLID_153_">
				<use xlink:href="#XMLID_117_"  style="overflow:visible;"/>
			</clipPath>
			<path id="XMLID_119_" class="st11" d="M358.6,371.1c0.6-0.1,2,3.9,1.7,4.5c-2.6,5.6-12.3,23.3-28.4,22.8c-18.8-0.6,6.7-23,6.7-23
				L358.6,371.1z"/>
			<path id="XMLID_118_" class="st11" d="M329.5,401.9c0,0,5.8,3.6,12.3,2.9s18.8-8.3,18.8-8.3l3.1,8.4c0,0-14.4,10.1-17.1,10.8
				c-2.7,0.7-20.7-5.5-20.7-5.5L329.5,401.9z"/>
		</g>
		<g id="XMLID_275_">
			<defs>
				<path id="XMLID_113_" d="M301.5,544.9l-5.8,47.5c42.4,11.2,98.1,6.2,98.1,6.2l-9.1-61.3L301.5,544.9z"/>
			</defs>
			<clipPath id="XMLID_154_">
				<use xlink:href="#XMLID_113_"  style="overflow:visible;"/>
			</clipPath>
			<polygon id="XMLID_116_" class="st12" points="339.3,602.5 343.9,580.3 349.3,602.5 			"/>
			<line id="XMLID_115_" class="st13" x1="364.6" y1="530.8" x2="372.5" y2="614.7"/>
			<line id="XMLID_114_" class="st13" x1="321.6" y1="530.8" x2="313.7" y2="614.7"/>
		</g>
		<g id="XMLID_272_">
			<defs>
				<path id="XMLID_111_" d="M339.7,414.9l-2.1,0.2c-1,0.1-1.7,1.1-1.5,2.1l0.4,1.8c0,0-17,117.1,0.4,120.3
					c17.4,3.2,4.2-120.2,4.2-120.2l0.3-2.6c0.1-0.9-0.6-1.6-1.5-1.6C339.8,414.9,339.8,414.9,339.7,414.9"/>
			</defs>
			<clipPath id="XMLID_156_">
				<use xlink:href="#XMLID_111_"  style="overflow:visible;"/>
			</clipPath>
			<path id="XMLID_112_" class="st14" d="M336,411.4c0,0,7.4,5.5,3.3,6.5c-4.1,1-9.8,0.1-7.5,1.5c2.4,1.4,6.7-3.3,7.5,1.2
				c0.7,4.5,5.3,95.5-8.9,106.8c-14.2,11.3,6.8,23.2,6.8,23.2l36.2-59.8l-28.7-79.5H336z"/>
		</g>
		<g id="XMLID_266_">
			<defs>
				<path id="XMLID_106_" d="M367.4,404.9c0,0-25.7,87.4-10.2,158c30.9,14.5,46.9-4,46.9-4l-2.4-19.6c0,0,24,1.5,24.5-38.3
					c0.5-38.7-5.3-96.3-54.1-96.3C370.5,404.7,369,404.8,367.4,404.9"/>
			</defs>
			<clipPath id="XMLID_157_">
				<use xlink:href="#XMLID_106_"  style="overflow:visible;"/>
			</clipPath>
			<polygon id="XMLID_110_" class="st15" points="391.7,400.1 378,439.2 367.1,439.2 375.6,447.6 357.2,503.3 380.2,447.6 
				374.4,442.3 381.3,442.3 			"/>
			<path id="XMLID_109_" class="st15" d="M386.3,459.5c0,0,16.4,38.5,2.8,45.4c-13.6,6.9-15.8,2.5-15.8,2.5S399,512.1,386.3,459.5"
				/>
			<path id="XMLID_108_" class="st15" d="M388.1,451.7c0,0,0.5-26.4,16-31.4C402.4,424.7,396.2,418.5,388.1,451.7"/>
			<path id="XMLID_107_" class="st15" d="M369.3,530.8c0,0,12,14.6,32.3,8.6l20.3-6.1l-11.2,34.2c0,0-8.4,13.3-26,6.2
				c-17.6-7-0.7-9.2-3.4-20.4C378.5,542,369.3,530.8,369.3,530.8"/>
		</g>
		<g id="XMLID_261_">
			<defs>
				<path id="XMLID_102_" d="M261.2,501c-9.4,38.8,24.5,38.3,24.5,38.3l-2.4,19.6c0,0,5.9,14.3,33.3,5.9
					c15.4-70.6,3.3-159.9,3.3-159.9c-1.4-0.2-2.8-0.3-4.1-0.3C281.5,404.6,270.7,461.7,261.2,501"/>
			</defs>
			<clipPath id="XMLID_158_">
				<use xlink:href="#XMLID_102_"  style="overflow:visible;"/>
			</clipPath>
			<polygon id="XMLID_105_" class="st16" points="288.4,398.2 302.1,437.3 313,437.3 304.5,445.7 322.9,501.4 299.9,445.7 
				305.7,440.4 298.8,440.4 			"/>
			<path id="XMLID_104_" class="st16" d="M292,449.8c0,0-0.5-26.4-16-31.4C277.7,422.8,283.9,416.6,292,449.8"/>
			<path id="XMLID_103_" class="st16" d="M299.3,532.4c0,0-0.5,11.1-20.8,5l-20.3-6.1l11.2,34.2c0,0,30.6,8.9,48.2,1.9
				c17.6-7-21.5-4.8-18.7-16.1C301.6,540.1,299.3,532.4,299.3,532.4"/>
		</g>
		<g id="XMLID_249_">
			<defs>
				<path id="XMLID_91_" d="M301.5,339.6c0,0-7.6,64,32.7,54.5c17.9-4.2,30.9-19.5,32.9-37.8c0.6-5.1,0.7-8.8,0.7-8.8
					s-27.6-31.2-47.5-31.2C311.6,316.3,304.3,322.3,301.5,339.6"/>
			</defs>
			<clipPath id="XMLID_160_">
				<use xlink:href="#XMLID_91_"  style="overflow:visible;"/>
			</clipPath>
			<path id="XMLID_101_" class="st17" d="M305.3,357.7l-10.1,14.2l11.8,2.4c0,0,10.4-17.2,8.2-24.9c-2.2-7.7-10.8-21.7-10.8-21.7
				l-13.7,7.1c0,0,8.8,7.9,12.4,15.2C306.7,357.2,305.3,357.7,305.3,357.7"/>
			<path id="XMLID_100_" class="st17" d="M303.7,348.6l-8.3-12.4l6.5-3.4c0,0,4.9,12,7,16.6c2,4.5-4.5,20-4.5,20l-5-0.6l6.7-12.2
				L303.7,348.6z"/>
			<path id="XMLID_99_" class="st17" d="M308.4,326.3c0,0,2.5,33.7,10.3,40.4c13.8-2.6,21.4-1,21.4-1s-13.5-32.5-9.1-39.4
				C320.8,321.2,308.4,326.3,308.4,326.3"/>
			<path id="XMLID_98_" class="st17" d="M314.3,329.3c0,0,1.6,25.7,6.5,30.8c8.7-2,13.6-0.7,13.6-0.7s-8.5-24.8-5.8-30.1
				C322.2,325.4,314.3,329.3,314.3,329.3"/>
			<path id="XMLID_97_" class="st17" d="M336.3,327.9c0,0,2.3,32.1,9.7,38.5c13-2.5,20.2-0.9,20.2-0.9s-12.7-31-8.6-37.6
				C347.9,323,336.3,327.9,336.3,327.9"/>
			<path id="XMLID_96_" class="st17" d="M340.3,331c0,0,1.6,25.7,6.5,30.8c8.7-2,13.6-0.7,13.6-0.7s-8.5-24.8-5.8-30.1
				C348.2,327.1,340.3,331,340.3,331"/>
			<polygon id="XMLID_95_" class="st17" points="348.6,334 343.4,367.9 359,372.5 366.1,339 			"/>
			<polygon id="XMLID_94_" class="st17" points="350.7,338.1 347.5,364.1 357.1,367.6 361.5,341.9 			"/>
			<path id="XMLID_93_" class="st17" d="M365.3,338l-4.6,17.6c0,0-9.8,11.1-1.1,15.9c-1.3,7-2.5,12.1-7.4,14.5
				c-4.9,2.5,17.1,0,17.1,0l7.9-35.8L365.3,338z"/>
			<path id="XMLID_92_" class="st17" d="M368.5,366.7c0,0-33.3-1.9-34.8-20.8c-13.4,2-17.4-11-17.4-11s-3,7.6-12.4,11.2
				c-1.6,14.1-1.4,25-1.4,25s-14.6-2.7-11-18.6c-8.6-12.8-7.1-49.1,33.7-37.5c14-6.9,29.9,0.2,32.3,14.7c24.3,5,26.7,21.1,22.1,27.9
				C382.4,369.9,368.5,366.7,368.5,366.7"/>
		</g>
		<g id="XMLID_244_">
			<defs>
				<path id="XMLID_87_" d="M323.9,303.2c-40.8-11.6-42.3,24.7-33.7,37.5c-3.6,15.9,11,18.6,11,18.6s-0.3-10.9,1.4-25
					c9.4-3.5,12.4-11.2,12.4-11.2s4,13.1,17.4,11C334,353,367.3,355,367.3,355s14,3.2,11-9.3c4.6-6.8,2.2-22.9-22.1-27.9
					c-1.7-10.6-10.8-17.3-21.1-17.3C331.4,300.5,327.6,301.4,323.9,303.2"/>
			</defs>
			<clipPath id="XMLID_161_">
				<use xlink:href="#XMLID_87_"  style="overflow:visible;"/>
			</clipPath>
			<path id="XMLID_90_" class="st18" d="M381.7,352.4c0,0-36.8-5.6-40.7-19.2c-3.9-13.7-10.8-1.2-18.4-8.3c-7.6-7.1-11.7-5.8-14.2,0
				c-2.5,5.8-7.8,3.4-5.9,10.6c1.9,7.2,32.1,14.7,32.1,14.7l49,12.7L381.7,352.4z"/>
			<path id="XMLID_89_" class="st18" d="M345.8,301.9c0,0,10,13.3,10.5,22.7c0.5,9.4,14.1-11.9,28.8,5.2
				C399.7,347,365.8,293.9,345.8,301.9"/>
			<path id="XMLID_88_" class="st18" d="M303.4,299.2c0,0-17,17.4-10.2,39.7c6.7,22.4-31.4-17.5-31.4-17.5L303.4,299.2z"/>
		</g>
		<g id="XMLID_236_">
			<defs>
				<path id="XMLID_237_" d="M367.2,362.9C367.2,362.9,367.2,362.9,367.2,362.9C367.2,362.9,367.2,362.9,367.2,362.9 M319.4,338.1
					c-27.9,6.3-18.9,10.7-18.1,15c-2.3,4,0,6.1,0,6.1s25.6-10.5,55.2,0c9.6,3,10.7,3.5,10.7,3.6c0.3-0.3,4.1-4.4,0.6-9.1
					c2.1-4.4-14-17-35.8-17C328,336.7,323.8,337.2,319.4,338.1"/>
			</defs>
			<clipPath id="XMLID_162_">
				<use xlink:href="#XMLID_237_"  style="overflow:visible;"/>
			</clipPath>
			<path id="XMLID_86_" class="st19" d="M296.6,360.1c0,0,3-9.9,26.6-11.8C336.5,347.1,293,344.6,296.6,360.1"/>
			<path id="XMLID_85_" class="st19" d="M299.3,359.9c0,0,26.5-15.8,61.1,0.5C395,376.8,299.3,359.9,299.3,359.9"/>
			<path id="XMLID_84_" class="st19" d="M333.6,347c0,0,23-1.2,37,8.7C384.6,365.5,353.7,338.7,333.6,347"/>
			<path id="XMLID_83_" class="st19" d="M313.9,343.5c0,0,20.4-3.3,32.2,0C357.9,346.8,319.2,337,313.9,343.5"/>
		</g>
		<path id="XMLID_80_" class="st20" d="M250.6,367.4c0,8.6-6.9,15.5-15.5,15.5c-8.6,0-15.5-6.9-15.5-15.5c0-8.6,6.9-15.5,15.5-15.5
			C243.7,351.9,250.6,358.9,250.6,367.4"/>
		<path id="XMLID_79_" class="st20" d="M473.7,341.6c0,14-11.3,25.3-25.3,25.3c-14,0-25.3-11.3-25.3-25.3s11.3-25.3,25.3-25.3
			C462.4,316.3,473.7,327.6,473.7,341.6"/>
		<path id="XMLID_78_" class="st20" d="M177.7,366.8c0,4.1-3.4,7.5-7.5,7.5c-4.1,0-7.5-3.4-7.5-7.5s3.4-7.5,7.5-7.5
			C174.3,359.3,177.7,362.6,177.7,366.8"/>
		<path id="XMLID_77_" class="st20" d="M252,424.7c0,5.4-4.4,9.9-9.9,9.9c-5.4,0-9.9-4.4-9.9-9.9s4.4-9.9,9.9-9.9
			C247.6,414.9,252,419.3,252,424.7"/>
		<path id="XMLID_76_" class="st20" d="M513.9,305.4c0,6-4.9,10.9-10.9,10.9c-6,0-10.9-4.9-10.9-10.9c0-6,4.9-10.9,10.9-10.9
			C509,294.4,513.9,299.3,513.9,305.4"/>
		<path id="XMLID_227_" class="st21" d="M449.9,338.4l-1.5-8.8l-0.3-1.7l-0.4-2.6l-0.1-0.7l-1.4,0.2l0.5,3.3l0.1,0.5l0.2,1.3
			l1.4,8.2l0.3,2.1l1.4-0.2l0,0L449.9,338.4z M452.1,352l-0.3-1.7l-0.4-2.4l-1-5.9l-0.3-1.9l-1.4,0.2l0,0l0.2,1.4l0.5,2.9l1,5.9
			l0.3,1.7l0.6,3.7l1.4-0.2L452.1,352z M457.6,344.4c-0.5-2.9-2.3-5-7.5-5.9l-0.2,0l-1.2-0.2c-0.1,0-0.2,0-0.3-0.1
			c-0.6-0.1-1.1-0.2-1.6-0.4c-1.6-0.6-2.6-1.6-2.9-3.3c-0.4-2.2,0.8-3.7,2.6-4.4c0.1-0.1,0.3-0.1,0.5-0.2c0.3-0.1,0.6-0.2,1-0.2
			c0.1,0,0.3,0,0.4-0.1c0.5-0.1,1.1-0.1,1.8-0.1l0.8,1.9c0.7,1.8,1.7,2.1,2.5,2c0.7-0.1,1.2-0.6,1.4-1.4c-0.7-2.8-3.5-4.5-6.7-4.2
			c-0.3,0-0.6,0.1-0.8,0.1c-0.1,0-0.3,0-0.4,0.1c-0.1,0-0.1,0-0.2,0c-3.8,0.9-6,4.1-5.4,7.6c0.6,3.4,2.9,5,6.7,5.8
			c0.1,0,0.3,0.1,0.5,0.1l0.5,0.1l0.9,0.2c0.2,0,0.4,0.1,0.6,0.1c2.8,0.6,4.1,1.5,4.5,3.6c0.3,1.9-0.4,3.4-2,4.2
			c-0.3,0.2-0.7,0.4-1.1,0.5c-0.3,0.1-0.7,0.2-1.1,0.3c-0.1,0-0.2,0-0.4,0.1c-0.8,0.1-1.7,0.2-2.6,0.1l-0.8-1.9
			c-0.7-1.8-1.6-2.2-2.5-2c-0.8,0.1-1.2,0.6-1.4,1.4c0.7,3,3.8,4.7,7.6,4.1c0.1,0,0.1,0,0.2,0c0.4-0.1,0.9-0.2,1.2-0.3
			c0.8-0.2,1.5-0.5,2.1-0.8C456.8,349.7,458,347.2,457.6,344.4"/>
		<path id="XMLID_223_" class="st21" d="M233.6,366.4L233.6,366.4l1,0.2l0.2-1.5l1-5.8l0.1-0.9l0.1-0.4l0.4-2.3l-1-0.2l-0.1,0.5
			l-0.3,1.8l-0.2,1.2l-1,6.2L233.6,366.4z M231.8,377.4l1,0.2l0.4-2.6l0.2-1.2l0.7-4.2l0.3-2.1l0.2-1l0,0l-1-0.2l-0.2,1.4l-0.7,4.1
			l-0.3,1.7l-0.2,1.2L231.8,377.4z M230.8,374.2c0.4,0.2,0.9,0.4,1.5,0.6c0.3,0.1,0.6,0.1,0.9,0.2c0,0,0.1,0,0.1,0
			c2.6,0.4,4.9-0.7,5.3-2.9c-0.1-0.5-0.4-0.9-1-1c-0.6-0.1-1.2,0.1-1.7,1.4l-0.5,1.3c-0.7,0-1.3,0-1.8-0.1c-0.1,0-0.2,0-0.3,0
			c-0.3,0-0.5-0.1-0.7-0.2c-0.3-0.1-0.5-0.2-0.8-0.3c-1.1-0.6-1.6-1.6-1.4-3c0.2-1.5,1.2-2.1,3.1-2.5c0.1,0,0.3-0.1,0.4-0.1l0.6-0.1
			l0.3-0.1c0.1,0,0.2,0,0.3-0.1c2.6-0.5,4.3-1.6,4.7-4.1c0.4-2.4-1.2-4.7-3.8-5.3c0,0-0.1,0-0.1,0c-0.1,0-0.2,0-0.3-0.1
			c-0.2,0-0.4-0.1-0.6-0.1c-2.3-0.2-4.3,1-4.7,3c0.1,0.6,0.5,0.9,1,1c0.6,0.1,1.2-0.2,1.8-1.4l0.5-1.3c0.5,0,0.9,0,1.3,0
			c0.1,0,0.2,0,0.3,0c0.2,0,0.5,0.1,0.7,0.2c0.1,0,0.2,0.1,0.3,0.1c1.3,0.5,2.1,1.6,1.8,3.1c-0.2,1.2-0.9,1.9-2,2.3
			c-0.3,0.1-0.7,0.2-1.1,0.3c-0.1,0-0.1,0-0.2,0l-0.9,0.1l-0.2,0c-3.6,0.6-4.9,2.1-5.2,4.1C228.1,371.4,228.9,373.2,230.8,374.2"/>
		<path id="XMLID_69_" class="st22" d="M466.8,537.7c0,0,46.3-25.1,34.1-49c-9.4-8.8-16,9.4-16,9.4s23.4-40.4,12.8-44
			c-1.8-0.6-3.8,0.1-4.9,1.6c-9.1,12.3-15.6,29.8-15.6,29.8s12.7-65.1-7.5-59.1c-20.2,6-9.3,58.2-9.3,58.2s-3.6-25.1-17.3-22.4
			c-13.7,2.6,12,36.8,12,36.8s-11.9-24.6-22.8-14.4C421.4,494.8,466.8,537.7,466.8,537.7"/>
		<path id="XMLID_68_" class="st23" d="M482.2,548.4c0,0,11.3-70.6,20.8-56.3c5.8,8.8,2.2,25.9,2.2,25.9s6.6-36.6,27-36.2
			c20.4,0.4-12.7,36.2-12.7,36.2s38.7-50.5,46.5-25.2C573.7,518.1,482.2,548.4,482.2,548.4"/>
		<path id="XMLID_67_" class="st24" d="M450.4,580.3c0,0-34.8-39.5-15.1-57.8c11.8-5,11.8,14.3,11.8,14.3s-8.1-46,3.2-45.7
			c1.9,0,3.5,1.4,4,3.2c4.3,14.7,4.3,33.4,4.3,33.4s10.4-65.5,27.3-52.9c16.9,12.6-11.3,57.8-11.3,57.8s12-22.3,23.9-15.1
			c12,7.2-23.9,30.4-23.9,30.4s19.7-19,26.4-5.6C507.8,555.7,450.4,580.3,450.4,580.3"/>
		<path id="XMLID_66_" class="st22" d="M209.3,544.9c0,0,57-20.1-29.2-108.1l-7.9,35.3l7.9,12.1l-10.7-3.3c0,0-3.4,23,10.7,28.8
			c-10.7,3.5-6.5,7.1-6.5,7.1S183,547.4,209.3,544.9"/>
		<path id="XMLID_65_" class="st25" d="M200.8,547.9c0,0-40.8,21.1-61.9-31.7c12.7-4.2,9.4-4.2,9.4-4.2l-16.4-7.1
			c0,0-0.9-12.3,3.8-27.8c21.6,0.3,24.9,8.9,24.9,8.9l-2.3,13.1l8.2-10.3l15.3,9.9l-3.9,17.6l11.4-11.3
			C189.1,504.9,214,521.2,200.8,547.9"/>
		<path id="XMLID_64_" class="st26" d="M148.1,496.9c0,0,3.6,9.3,14,21.3c8.8,10.1,22.3,22.2,42.6,32.4"/>
		<polyline id="XMLID_63_" class="st26" points="146.8,520.4 162.1,518.3 166.5,503.3 		"/>
		<polyline id="XMLID_62_" class="st26" points="153.3,527.4 168.6,525.3 173,510.4 		"/>
		<polyline id="XMLID_61_" class="st26" points="159.9,533.3 175.2,531.1 179.6,516.2 		"/>
		<polyline id="XMLID_60_" class="st26" points="166.5,538.9 181.8,536.7 186.1,521.8 		"/>
		<polyline id="XMLID_59_" class="st26" points="173.3,543.7 188.6,541.6 193,526.7 		"/>
		<path id="XMLID_58_" class="st23" d="M210.7,558.9c0,0-57-20.1,29.2-108.1l7.9,35.3l-7.9,12.1l10.7-3.3c0,0,3.4,23-10.7,28.8
			c10.7,3.5,6.5,7.1,6.5,7.1S237,561.5,210.7,558.9"/>
		<polyline id="XMLID_57_" class="st27" points="393.8,598.6 384.7,537.3 301.5,544.9 295.6,592.4 		"/>
		<path id="XMLID_56_" class="st27" d="M295.6,592.4l5.8-47.5l83.2-7.5l9.1,61.3C393.8,598.6,338,603.6,295.6,592.4"/>
		<path id="XMLID_55_" class="st8" d="M360.8,400.1l-23,7.4l-12.4-5.8c-2.1-1-4.5,0.1-5.3,2.2c0,0-18.1,3-24.4,10.9
			c-6.3,7.8-35.5,78.3-33.9,87c1.5,8.7,8.4,35.1,34.2,39.1c-3.3,10.5,12.5,15.1,12.5,15.1s56.3,11.8,82.9-11.1
			c22.2-7.8,39-21.9,33.5-47.2c-5.5-25.3,2.3-89.4-57.6-92.7C365.7,400.5,360.8,400.1,360.8,400.1"/>
		<path id="XMLID_54_" class="st27" d="M367.4,404.9c0,0-25.7,87.4-10.2,158c30.9,14.5,46.9-4,46.9-4l-2.4-19.6
			c0,0,24,1.5,24.5-38.3S420.4,401.2,367.4,404.9"/>
		<path id="XMLID_53_" class="st27" d="M319.9,404.9c0,0,12.1,89.3-3.3,159.9c-27.4,8.4-33.3-5.9-33.3-5.9l2.4-19.6
			c0,0-33.9,0.4-24.5-38.3C271.1,460.2,282.3,400.1,319.9,404.9"/>
		<path id="XMLID_52_" class="st10" d="M301.5,339.6c0,0-7.6,64,32.7,54.5c17.9-4.2,30.9-19.5,32.9-37.8c0.6-5.1,0.7-8.8,0.7-8.8
			S310.7,282.9,301.5,339.6"/>
		<path id="XMLID_51_" class="st28" d="M367.3,355c0,0-33.3-1.9-34.8-20.8c-13.4,2-17.4-11-17.4-11s-3,7.6-12.4,11.2
			c-1.6,14.1-1.4,25-1.4,25s-14.6-2.7-11-18.6c-8.6-12.8-7.1-49.1,33.7-37.5c14-6.9,29.9,0.2,32.3,14.7c24.3,5,26.7,21.1,22.1,27.9
			C381.2,358.2,367.3,355,367.3,355"/>
		<path id="XMLID_50_" class="st29" d="M316.6,369.9c0,0,0.6,5.3,11.9,2.2"/>
		<path id="XMLID_49_" class="st29" d="M321.8,382.8c0,0,4-0.7,5.7,0.6c2.9,2.2-2.1,6.1-5,3.2C319.7,383.8,321.8,382.8,321.8,382.8"
			/>
		<path id="XMLID_48_" class="st30" d="M303,356.6l-9.1,14.1l10.6,2.4c0,0,9.3-17.1,7.4-24.8s-9.7-21.6-9.7-21.6l-12.4,7
			c0,0,7.9,7.8,11.2,15.1C304.2,356.1,303,356.6,303,356.6"/>
		<path id="XMLID_47_" class="st31" d="M302.8,347.7l-8.3-12.4l6.5-3.4c0,0,4.9,12,7,16.6c2,4.5-4.5,20-4.5,20l-5-0.6l6.7-12.2
			L302.8,347.7z"/>
		<path id="XMLID_46_" class="st30" d="M309.4,325.3c0,0,2.3,32.1,9.7,38.5c13-2.5,20.2-0.9,20.2-0.9s-12.7-31-8.6-37.6
			C321.1,320.5,309.4,325.3,309.4,325.3"/>
		<path id="XMLID_45_" class="st31" d="M313.5,328.5c0,0,1.6,25.7,6.5,30.8c8.7-2,13.6-0.7,13.6-0.7s-8.5-24.8-5.8-30.1
			C321.3,324.6,313.5,328.5,313.5,328.5"/>
		<path id="XMLID_44_" class="st30" d="M335.4,327c0,0,2.3,32.1,9.7,38.5c13-2.5,20.2-0.9,20.2-0.9s-12.7-31-8.6-37.6
			C347.1,322.2,335.4,327,335.4,327"/>
		<path id="XMLID_43_" class="st31" d="M339.5,330.1c0,0,1.6,25.7,6.5,30.8c8.7-2,13.6-0.7,13.6-0.7s-8.5-24.8-5.8-30.1
			C347.3,326.3,339.5,330.1,339.5,330.1"/>
		<polygon id="XMLID_42_" class="st30" points="347.7,333.1 342.5,366.3 358.1,370.7 365.3,338 		"/>
		<polygon id="XMLID_41_" class="st31" points="349.9,337.2 346.7,363.2 356.3,366.7 360.6,341 		"/>
		<path id="XMLID_40_" class="st32" d="M301.3,359.3c0,0,25.6-10.5,55.2,0c11.8,3.6,10.7,3.6,10.7,3.6s4.3-4.2,0.6-9.1
			c2.5-5.2-20.5-21.9-48.4-15.6c-27.9,6.3-18.9,10.7-18.1,15C299,357.2,301.3,359.3,301.3,359.3"/>
		<path id="XMLID_39_" class="st10" d="M362.7,357.9c-4,2.8-5.3,7.9-2.9,11.4c2.4,3.4,7.7,3.9,11.7,1.1c4-2.8,5.3-7.9,2.9-11.4
			S366.7,355,362.7,357.9"/>
		<path id="XMLID_38_" class="st29" d="M362.9,362.1c-2.2,1.5-2.8,4.3-1.5,6.1c1.3,1.8,4.1,2.1,6.3,0.6c2.2-1.5,2.8-4.3,1.5-6.1
			C367.9,360.8,365.1,360.5,362.9,362.1"/>
		<polygon id="XMLID_37_" class="st33" points="339.3,412.3 350.6,423.2 365.4,409.3 350.7,421.4 		"/>
		<polygon id="XMLID_36_" class="st33" points="336,412.9 330.4,421.5 321.5,408.5 330.3,419.6 		"/>
		<polyline id="XMLID_35_" class="st34" points="294.7,466.8 289.8,530.3 284.7,530.3 294.2,461.6 		"/>
		<path id="XMLID_34_" class="st10" d="M276.2,539.3c0,0-10.6,7-18.5-14.6c-7.8-21.6,7.8-40,7.2-31.9c-0.5,6.4-5.7,10.6-0.9,13.8
			c9.2-22.8,12.4-15.5,10.3-10.8c-2.1,4.7-4.5,10-1.5,11.6s1.3-13.1,6-13.8c4.7-0.7,1.2,14.5,2,17.1c0.8,2.6,1.1-13.4,5-14.5
			c4-1.2,1.4,8.2,1.8,12.4c0.4,4.2-1.9,12,1.5,12c3.4,0-1.8-9.5,2.3-9.9C295.5,510.4,304.3,551.4,276.2,539.3"/>
		<path id="XMLID_33_" class="st29" d="M265.4,512c0,0,11,16,9.2,20.4"/>
		<path id="XMLID_32_" class="st29" d="M288.1,523.7c0,0-5.9-0.7-6.8,7"/>
		<path id="XMLID_31_" class="st29" d="M263.1,507.2c0,0,13.8,1.3,20.3,4.8C289.9,515.5,263.1,507.2,263.1,507.2"/>
		<path id="XMLID_30_" class="st10" d="M384.5,539.3c0,0,10.6,7,18.5-14.6c7.8-21.6-7.8-40-7.2-31.9c0.5,6.4,5.7,10.6,0.9,13.8
			c-9.2-22.8-12.4-15.5-10.3-10.8c2.1,4.7,4.5,10,1.5,11.6c-2.9,1.6-1.3-13.1-6-13.8c-4.7-0.7-1.2,14.5-2,17.1
			c-0.8,2.6-1.1-13.4-5-14.5c-4-1.2-1.4,8.2-1.8,12.4c-0.4,4.2,1.9,12-1.5,12c-3.4,0,1.8-9.5-2.3-9.9
			C365.1,510.4,356.3,551.4,384.5,539.3"/>
		<path id="XMLID_29_" class="st29" d="M395.2,512c0,0-11,16-9.2,20.4"/>
		<path id="XMLID_28_" class="st29" d="M372.5,523.7c0,0,5.9-0.7,6.8,7"/>
		<path id="XMLID_27_" class="st29" d="M377.5,512.9c0,0,7.8-5.9,20.6-5.6C397.2,509.2,377.5,512.9,377.5,512.9"/>
	</g>
	<g id="XMLID_145_">
		<path id="XMLID_172_" class="st35" d="M295,588.7c0-0.2,0-0.4-0.1-0.6c-0.2-0.3-0.2-0.6-0.2-0.9c0-0.2-0.1-0.5-0.1-0.7
			c0-0.3-0.1-0.5-0.1-0.8c0,0,0,0,0,0c-0.1-0.8-0.2-1.6-0.4-2.4c0,0,0,0,0,0c-0.1-0.7-0.2-1.4-0.3-2.1c0-0.3-0.1-0.5-0.1-0.8
			c0-0.1-0.1-0.2-0.1-0.3c0-0.6,0-1.2-0.2-1.7c-0.1-0.4-0.2-0.8-0.2-1.3c0-0.7-0.1-1.3-0.2-2c-0.1-0.4,0-0.7-0.2-1.1
			c-0.1-0.1,0-0.3,0-0.4c0-0.3-0.1-0.6-0.1-1c0-0.2,0-0.5-0.1-0.7c0-0.2,0-0.5-0.1-0.7c0-0.3-0.1-0.6-0.2-0.9c0-0.2-0.1-0.5-0.1-0.8
			c0-0.2-0.1-0.4-0.1-0.6c0-0.2-0.1-0.4-0.1-0.6c0-0.1,0-0.3,0-0.4c0-0.1,0.2,0,0.4,0c0.8,0.1,1.5,0.6,2.3,1c0.3,0.2,0.7,0.2,1,0.4
			c0.4,0.2,0.8,0.4,1.3,0.5c0.5,0.2,0.9,0.5,1.4,0.6c0.9,0.2,1.8,0.5,2.6,0.9c0.6,0.3,1.3,0.5,1.9,0.7c2.9,0.7,5.8,1.3,8.6,2
			c0.7,0.2,1.4,0.2,2.1,0.1c0.4,0,0.8,0,1.2,0.1c0.1,0,0.2,0.1,0.3,0c0.7-0.1,1.3-0.2,1.9-0.4c0.5-0.1,1.1-0.3,1.6-0.4
			c0.3-0.1,0.6-0.3,0.9-0.4c1-0.6,1.9-1.2,2.8-1.9c0.9-0.6,1.7-1.4,2.6-2.1c0.5-0.4,0.9-0.8,1.3-1.2c0.4-0.3,0.8-0.6,1.1-0.9
			c0.6-0.5,1.2-1,1.8-1.5c1-0.6,1.9-1.2,3-1.7c0.5-0.2,1-0.5,1.6-0.6c0.6,0,1.1-0.3,1.7-0.5c0.2,0,0.3,0,0.5,0c0.4,0,0.9,0,1.3,0
			c0.3,0,0.6-0.1,0.9,0c1,0.2,2.1,0.3,3.1,0.6c0.8,0.2,1.6,0.4,2.4,0.6c0.7,0.2,1.5,0.4,2.2,0.6c0.5,0.1,0.9,0.4,1.3,0.6
			c0.4,0.2,0.9,0.4,1.3,0.6c0.4,0.2,0.7,0.4,1.1,0.6c0.1,0,0.1,0.1,0.1,0.1c0.9,0.3,1.6,0.9,2.5,1.3c0.1,0,0.2,0,0.2,0.1
			c0.3,0.5,0.8,0.6,1.3,0.9c0.3,0.2,0.5,0.6,0.6,0.9c0.7,1.3,1.3,2.6,2,3.9c0.5,1,1.1,2,1.6,3c0.3,0.6,0.5,1.2,0.8,1.8
			c0.3,0.6,0.7,1.2,1,1.9c0.3,0.6,0.6,1.3,0.9,2c0.3,0.5,0.6,1.1,0.9,1.6c0.4,0.7,0.7,1.5,1.1,2.2c0.5,0.9,1,1.7,1.4,2.6
			c0.3,0.6,0.6,1.3,0.9,2c0.2,0.4,0.4,0.7,0.6,1.1c0.2,0.3,0.2,0.8-0.1,1c-0.2,0.1-0.4,0.3-0.6,0.4c-0.2,0.2-0.7,0.1-1-0.2
			c-0.5-0.5-1.1-1-1.7-1.5c-0.5-0.4-1-0.8-1.5-1.3c-0.1-0.1-0.3-0.2-0.4-0.2c-0.2-0.2-0.4-0.4-0.7-0.5c-0.2-0.1-0.4-0.2-0.6-0.3
			c-0.3-0.2-0.5-0.3-0.8-0.5c-0.2-0.1-0.4-0.3-0.7-0.4c-0.4-0.1-0.7-0.2-0.9-0.5c-0.1-0.1-0.3-0.3-0.5-0.3c-0.9-0.3-1.9-0.7-2.8-1
			c-0.9-0.3-1.7-0.5-2.7-0.5c-0.6,0-1.3-0.2-1.9-0.1c-0.6,0-1.2,0.1-1.8,0.2c-0.8,0.1-1.5,0.3-2.2,0.5c-0.7,0.2-1.3,0.5-2,0.9
			c-0.9,0.4-1.6,1.1-2.2,1.8c-0.1,0.1-0.2,0.1-0.3,0.2c-0.1,0.1-0.2,0.2-0.3,0.3c-0.2,0.2-0.4,0.4-0.5,0.6c-0.4,0.5-0.7,0.9-1.1,1.4
			c-0.1,0.1-0.2,0.2-0.2,0.3c-0.1,0.2-0.3,0.3-0.4,0.6c-0.1,0.3-0.3,0.5-0.5,0.7c-0.1,0.1-0.2,0.2-0.2,0.2c-0.1,0.4-0.4,0.7-0.7,1
			c-0.4,0.5-0.8,1.2-1.1,1.7c-0.1,0.1-0.1,0.2-0.2,0.3c-0.5,0.6-0.9,1.2-1.5,1.8c-0.4,0.4-0.8,0.8-1.2,1.2c-0.2,0.2-0.3,0.4-0.5,0.6
			c-0.7,0.6-1.3,1.1-2,1.6c-0.6,0.4-1.2,0.7-1.8,1c-0.3,0.2-0.6,0.3-0.9,0.4c-0.5,0.2-1.1,0.5-1.6,0.6c-0.5,0.2-1,0.2-1.6,0.3
			c-0.6,0.1-1.3,0.3-1.9,0.4c-0.2,0-0.4,0.1-0.6,0.1c-0.3,0-0.6,0.1-1,0.1c-0.1,0-0.1,0-0.2,0c-1-0.1-2,0.2-3,0.1c-0.3,0-0.7,0-1,0
			c-0.4,0-0.8,0.1-1.2,0c-0.8-0.2-1.5-0.1-2.2-0.1c-0.3,0-0.6,0-1-0.1c-1.3-0.3-2.5-0.4-3.8-0.5c-0.8,0-1.7-0.2-2.5-0.4
			c-2.8-0.6-5.7-1.3-8.5-1.9c-0.5-0.1-0.5-0.2-0.6-0.7c-0.1-0.6-0.1-1.2-0.2-1.8c-0.1-0.5-0.3-0.9-0.1-1.4c0,0,0,0,0,0
			c-0.4-0.7-0.1-1.5-0.4-2.1c-0.1-0.1,0-0.3-0.1-0.5c0-0.3-0.1-0.6-0.2-0.9c0-0.1-0.1-0.1-0.1-0.2c-0.1-0.7-0.1-1.4-0.2-2.1
			c0,0,0-0.1,0-0.1c-0.1-0.8-0.3-1.5-0.4-2.3c0-0.2-0.1-0.5-0.1-0.7C294.9,588.8,294.9,588.7,295,588.7z M305,598.7
			C305,598.7,305,598.7,305,598.7c-0.6-0.2-1.2-0.4-1.7-0.6c-0.7-0.2-1.4-0.4-2-0.8c-0.5-0.3-0.8-1.1-0.7-1.6c0-0.3,0.1-0.6,0-0.8
			c-0.2-0.3-0.2-0.6-0.2-0.9c0-0.2,0-0.5-0.1-0.7c0-0.1-0.1-0.3-0.1-0.4c-0.1-0.8-0.1-1.6-0.2-2.4c0-0.4-0.2-0.7-0.2-1.1
			c-0.1-0.8-0.1-1.6-0.2-2.4c0,0,0-0.1,0-0.1c-0.1-0.9-0.2-1.7-0.3-2.6c-0.1-0.7-0.1-1.3-0.2-2c0-0.1-0.1-0.1-0.1-0.2
			c0-0.2-0.1-0.5-0.1-0.7c-0.1-0.8-0.1-1.6-0.2-2.5c0,0,0-0.1,0-0.1c-0.1-0.8-0.2-1.6-0.3-2.4c0-0.3,0-0.6-0.2-0.9
			c-0.2-0.3-0.1-0.6,0.2-0.8c0.3-0.2,0.5-0.1,0.8,0.1c0.3,0.3,0.6,0.5,0.9,0.5c0.3,0.1,0.6,0.2,0.8,0.3c0.4,0.2,0.7,0.4,1.1,0.5
			c0.7,0.2,1.4,0.5,2.1,0.7c1.5,0.4,2.9,1.1,4.5,1.2c0.1,0,0.3,0.1,0.4,0.1c0.2,0,0.4,0.1,0.5,0.1c0.7,0.1,1.5,0.2,2.2,0.3
			c0.4,0,0.9,0.1,1.3,0.1c0.4,0,0.7-0.1,1.1-0.1c0.5,0,1,0.2,1.4-0.1c0.1,0,0.2,0,0.3,0c0.7-0.1,1.4-0.2,2-0.4
			c0.2,0,0.4-0.1,0.6-0.2c0.1,0,0.2-0.1,0.4-0.2c0.6-0.3,1.2-0.7,1.8-1c0.4-0.2,0.9-0.4,1.2-0.6c0.6-0.4,1.3-0.9,1.9-1.3
			c0.5-0.4,1.1-0.7,1.6-1.1c0.5-0.4,1-0.8,1.4-1.2c0.1-0.1,0.3-0.2,0.4-0.3c0.4-0.3,0.8-0.7,1.2-1c0.4-0.3,0.7-0.6,1.1-0.9
			c0,0,0.1-0.1,0.1-0.1c0.3-0.2,0.7-0.5,1-0.7c0.7-0.4,1.4-0.8,2-1.3c0.9-0.6,1.9-1.1,2.9-1.4c0.6-0.2,1.3-0.2,1.9-0.3
			c0.3-0.1,0.7-0.1,1-0.1c0.6,0.1,1.1,0.1,1.7,0.3c1.1,0.3,2.2,0.5,3.3,0.8c1,0.3,2.1,0.4,3,1.1c0.1,0.1,0.3,0.2,0.5,0.2
			c1,0.5,2,0.9,2.9,1.4c0.1,0,0.1,0.1,0.2,0.1c0.3,0.2,0.7,0.4,1,0.6c0.4,0.3,0.9,0.6,1.3,0.9c0,0,0,0.1,0.1,0.1
			c0.4,0.7,0.8,1.3,1.1,2c0.4,0.7,0.8,1.3,1.2,2c0.5,0.9,1,1.9,1.6,2.8c0.1,0.2,0.2,0.3,0.3,0.5c0.5,0.9,1,1.9,1.5,2.8
			c0.5,0.8,0.9,1.7,1.4,2.5c0.1,0.1,0.2,0.1,0.4,0.2c0-0.1,0.1-0.3,0-0.4c-0.3-0.5-0.6-1-0.9-1.6c-0.3-0.6-0.6-1.2-0.9-1.9
			c-0.1-0.3-0.3-0.5-0.5-0.8c-0.4-0.9-0.9-1.7-1.3-2.6c-0.5-0.9-1-1.9-1.5-2.8c-0.4-0.7-0.7-1.4-1-2c-0.3-0.5-0.6-1-0.8-1.5
			c-0.2-0.5-0.5-0.9-1.1-1c-0.2,0-0.4-0.1-0.5-0.3c-0.2-0.4-0.6-0.5-1-0.6c-0.2-0.1-0.4-0.1-0.6-0.3c-0.3-0.3-0.6-0.5-1-0.5
			c-0.4-0.1-0.9-0.2-1.1-0.6c0,0-0.1-0.1-0.2-0.1c-0.5-0.2-0.9-0.3-1.4-0.5c-0.5-0.2-1-0.4-1.5-0.7c-0.2-0.1-0.4-0.2-0.6-0.3
			c-1.3-0.3-2.5-0.7-3.8-0.9c-0.6-0.1-1.2-0.1-1.8-0.1c-0.4,0-0.8,0-1.2,0c-0.2,0-0.4-0.1-0.5-0.1c-0.6,0.1-1.2,0.2-1.7,0.3
			c-0.7,0.1-1.3,0.4-1.9,0.7c-0.6,0.3-1.2,0.6-1.8,1c-1.1,0.7-2.1,1.5-3.1,2.2c-0.1,0-0.1,0.1-0.2,0.2c-0.4,0.3-0.7,0.7-1.1,1
			c-0.5,0.4-1,0.8-1.5,1.2c-0.4,0.4-0.9,0.7-1.3,1.1c-0.2,0.2-0.5,0.3-0.8,0.5c-0.6,0.4-1.2,0.8-1.7,1.2c-0.3,0.2-0.6,0.3-0.9,0.4
			c-0.8,0.5-1.6,0.7-2.4,1c-0.5,0.2-0.9,0.3-1.5,0.3c-0.1,0-0.1,0.1-0.2,0.1c-0.3,0-0.6,0.1-0.8,0.1c-0.3,0-0.6-0.1-0.8,0.1
			c-0.3,0.2-0.6,0.2-0.9,0.1c-0.9-0.2-1.8-0.5-2.8-0.3c-0.1,0-0.3,0-0.5,0c-2.1-0.4-4.2-0.9-6.2-1.4c-0.5-0.1-1-0.3-1.5-0.5
			c-1.1-0.4-2.1-0.7-3.2-1.1c-0.9-0.3-1.9-0.5-2.7-1.1c-0.2-0.1-0.5-0.2-0.7-0.2c-0.4-0.1-0.9-0.2-1.3-0.4c-0.1,0-0.1-0.1-0.2-0.2
			c-0.1-0.1-0.2-0.1-0.3-0.2c-0.1,0.1-0.2,0.3-0.2,0.4c0,0.1,0.1,0.3,0.1,0.4c0.1,0.2,0.1,0.4,0.2,0.7c0.1,0.7,0.1,1.4,0.2,2.1
			c0,0.1,0,0.2,0.1,0.2c0.2,0.3,0.2,0.6,0.1,0.9c0,0.3,0.1,0.6,0.1,0.9c0,0.2,0.1,0.4,0.1,0.6c0.1,0.3,0.1,0.6,0.2,0.9
			c0,0.2,0.1,0.4,0.1,0.6c0,0.2-0.1,0.5,0,0.7c0.2,0.3,0.2,0.7,0.2,1c0,0.1,0,0.3,0,0.4c0.1,0.4,0.1,0.7,0.2,1.1
			c0,0.2,0.1,0.3,0.1,0.5c0,0.3,0.1,0.6,0.1,0.9c0,0.3,0.1,0.5,0.1,0.7c0,0.2,0.1,0.4,0.1,0.5c-0.1,0.4-0.1,0.8,0.1,1.1
			c0.1,0.1,0.1,0.3,0.1,0.5c0,0.4,0,0.7,0.2,1c0.1,0.1,0.1,0.3,0.1,0.5c0,0.7,0.1,1.4,0.1,2.2c0,0.1,0.1,0.2,0.1,0.3
			c0,0.2,0.1,0.4,0.1,0.7c0,0.3,0,0.6,0.1,0.8c0.1,0.3,0.2,0.5,0.1,0.8c0,0.2,0,0.5,0.1,0.7c0.1,0.3,0.1,0.5,0.1,0.8
			c0,0.7,0.1,1.4,0.2,2.1c0,0,0,0.1,0.1,0.1c0.2,0.3,0.2,0.5,0.1,0.8c0,0.2-0.1,0.4,0,0.5c0.2,0.3,0.2,0.6,0.1,1
			c-0.1,0.6,0.1,0.7,0.6,0.9c0.7,0.2,1.4,0.4,2.1,0.5c0.8,0.2,1.6,0.4,2.4,0.5c2.1,0.4,4.2,0.9,6.4,1.3c0.5,0.1,0.9,0.2,1.4,0.1
			c0.8-0.1,1.5,0,2.3,0.2c0.4,0.1,0.9,0,1.3,0.1c0.3,0,0.7,0,1,0c0.6,0,1.2,0.1,1.8,0.1c0.8-0.1,1.7,0.2,2.5-0.1c0.1,0,0.1,0,0.2,0
			c0.8,0.3,1.5-0.5,2.3-0.2c0,0,0,0,0,0c0.3-0.2,0.7-0.2,1.1-0.2c0.1,0,0.3-0.1,0.4-0.1c0.4-0.1,0.9-0.4,1.3-0.4
			c0.6-0.1,1.2-0.4,1.8-0.7c0.7-0.4,1.4-0.8,2.1-1.3c0.6-0.4,1.1-1,1.6-1.5c0.3-0.3,0.7-0.7,1-1c0.4-0.4,0.8-0.8,1.1-1.2
			c0.3-0.4,0.5-0.7,0.8-1.1c0.3-0.5,0.6-0.9,1-1.4c0.2-0.3,0.3-0.7,0.7-1c0.1-0.1,0.1-0.3,0.2-0.4c0.3-0.5,0.5-1.1,1-1.5
			c0.5-0.4,0.6-1,1.1-1.4c0.5-0.4,0.9-1,1.4-1.5c0.5-0.5,1-0.9,1.6-1.3c0.4-0.3,0.9-0.7,1.3-0.9c0.6-0.3,1.2-0.5,1.7-0.8
			c0.6-0.3,1.3-0.5,2-0.6c0.1,0,0.2-0.1,0.3-0.1c0.3-0.1,0.6-0.1,0.9-0.2c0.2,0,0.5-0.1,0.7-0.2c0.2,0,0.3-0.1,0.5-0.1
			c0.5,0.2,1.1,0.2,1.6,0c0.3-0.1,0.6-0.1,0.9,0c1.5,0.3,2.9,0.6,4.4,1c0.5,0.1,1,0.4,1.5,0.6c0.4,0.2,0.7,0.4,1.1,0.6
			c0.3,0.1,0.6,0.3,0.9,0.4c0.2,0.1,0.5,0.4,0.7,0.5c0.4,0.1,0.8,0.2,1.1,0.7c0,0.1,0.2,0.1,0.3,0.2c0.2,0.2,0.4,0.4,0.7,0.5
			c0.1,0,0.1,0.1,0.2,0.1c0-0.1,0-0.2,0-0.3c-0.3-0.7-0.7-1.4-1-2c-0.1-0.3-0.3-0.4-0.6-0.1c-0.3,0.2-0.6,0.1-0.8-0.1
			c-0.3-0.2-0.5-0.4-0.8-0.6c-0.5-0.2-1-0.4-1.5-0.6c-0.7-0.3-1.4-0.6-2.2-0.8c-1.1-0.3-2.2-0.5-3.2-0.7c-1-0.2-2.1-0.4-3.1-0.6
			c-0.4-0.1-0.7-0.1-1.1,0.2c-0.1,0.1-0.3,0-0.4,0c-0.4-0.1-0.7-0.2-1.1-0.1c-0.7,0.1-1.4,0.3-2.1,0.4c-0.5,0.1-1.1,0.2-1.6,0.4
			c-0.8,0.4-1.5,0.8-2.1,1.4c-0.9,0.8-1.8,1.7-2.6,2.6c-0.7,0.8-1.3,1.6-2,2.4c-0.1,0.1-0.1,0.2-0.1,0.2c-0.4,0.5-0.8,1-1.2,1.5
			c-0.2,0.2-0.3,0.4-0.5,0.7c-0.1,0.1-0.2,0.2-0.3,0.3c-0.4,0.3-0.6,0.9-1.1,1.1c0,0,0,0.1-0.1,0.1c-0.2,0.2-0.4,0.5-0.6,0.7
			c-0.1,0.1-0.1,0.2-0.2,0.2c-0.1,0.2-0.2,0.4-0.4,0.5c-0.3,0.3-0.7,0.6-1,1c-0.7,0.7-1.5,1.4-2.2,2.1c0,0-0.1,0-0.1,0.1
			c-0.6,0.3-1.2,0.7-1.8,1c-1,0.5-2,1-3,1.5c-0.1,0-0.1,0-0.2,0c-0.3,0-0.5,0.1-0.8,0.1c-0.9,0.2-1.8,0.4-2.7,0.6c0,0-0.1,0-0.1,0
			c-0.5-0.1-1,0-1.6,0c-1.1,0.1-2.3,0-3.4-0.1c-0.1,0-0.1,0-0.2,0c-1.2-0.2-2.4-0.5-3.6-0.7c-0.8-0.2-1.6-0.3-2.5-0.5
			c-0.7-0.2-1.3-0.4-1.9-0.6C305.5,598.9,305.3,598.8,305,598.7z M331.9,590.7C331.8,590.7,331.8,590.7,331.9,590.7
			c-0.6,0.2-1.1,0.6-1.7,0.9c-0.4,0.2-0.8,0.4-1.2,0.5c-0.7,0.2-1.3,0.4-2,0.4c0,0,0,0-0.1,0c-0.3,0-0.6,0.1-0.9,0.1
			c-0.4,0-0.8,0-1.3,0c-0.3,0-0.7,0-1-0.1c-0.5-0.2-0.9-0.5-1.3-0.6c-1.1-0.3-1.9-1.1-2.5-2.1c-0.4-0.7-0.8-1.4-1-2.1
			c-0.2-0.6-0.4-1.2-0.3-1.8c0.1-0.3,0.1-0.7,0-0.9c-0.2-0.4-0.1-0.8,0-1.2c0.2-0.8,0.4-1.6,0.6-2.4c0.1-0.4,0.2-0.7,0.5-1
			c0.1-0.1,0.2-0.3,0.3-0.5c0.1-0.2,0.2-0.4,0.3-0.6c0-0.1,0-0.2,0-0.4c-0.1,0-0.3,0-0.4,0c-0.6,0.6-1.5,0.8-2.3,1
			c-0.9,0.3-1.9,0.3-2.8,0.4c-0.4,0.1-0.8,0.1-1.3,0.1c-0.1,0-0.1,0-0.2,0c-1.5-0.1-3.1-0.3-4.6-0.4c-0.6-0.1-0.7,0-0.8,0.6
			c-0.2,0.8-0.6,1.5-1.3,1.9c-0.6,0.4-1.3,0.9-2.1,0.5c-0.1,0-0.2,0-0.4,0c-0.2,0-0.3,0-0.5,0c-0.7-0.2-1.3-0.5-2-0.7
			c-0.2-0.1-0.4,0-0.6,0c0,0.2-0.1,0.5,0,0.6c0.3,0.3,0.2,0.7,0.2,1c0,0.2,0,0.4,0,0.7c0,0.3,0.1,0.6,0.1,0.9
			c0.1,0.7,0.1,1.4,0.2,2.1c0.1,0.5,0.3,1.1,0.2,1.6c0,0.1,0,0.1,0,0.2c0.3,0.3,0.2,0.7,0.2,1.1c-0.1,0.8,0.4,1.1,1.1,0.8
			c0.3-0.1,0.6-0.1,0.9-0.1c0.5,0,1,0.1,1.5,0.1c0.3,0,0.5,0,0.8,0.1c1,0.3,1.9,0.9,2.5,1.8c0.5,0.9,1.1,1.8,1,2.9c0,0,0,0.1,0,0.1
			c0,0.4,0,0.8,0,1.3c0,0.4,0,0.6,0.4,0.6c0.5,0.1,1,0.2,1.5,0.2c1.3,0.2,2.6,0.4,3.9,0.5c0.4,0.1,0.8,0.1,1.2,0.1
			c0.5-0.1,1,0,1.5,0c0.7,0,1.4-0.1,2.1-0.2c0.6-0.1,1.2-0.5,1.9-0.5c0.7-0.1,1.3-0.5,1.9-0.7c0.6-0.2,1.1-0.7,1.7-1.1
			c0.4-0.3,0.8-0.5,1.1-0.8c0.4-0.3,0.8-0.5,1.1-0.8c0.6-0.6,1.2-1.2,1.7-1.8c0.3-0.3,0.5-0.6,0.8-0.9c0.4-0.4,0.7-0.7,1.1-1
			C331.8,591,331.8,590.8,331.9,590.7z M328.4,573.4c0,0.1,0.1,0.1,0.1,0.2c0.4-0.1,0.7-0.1,1.1-0.2c0.4-0.1,0.7-0.4,1.2-0.1
			c0.1,0.1,0.2,0,0.4,0c0.6,0,1.1,0.1,1.7,0.1c0.1,0,0.2,0.1,0.3,0.1c0.3,0.1,0.6,0.3,0.9,0.4c0.5,0.2,1.1,0.3,1.4,0.8
			c0,0.1,0.1,0.1,0.2,0.1c0.4,0.2,0.8,0.5,1.1,0.9c0.6,0.7,1,1.5,1.3,2.4c0.1,0.4,0.1,0.9,0.2,1.3c0.2,0.7,0.1,1.4-0.1,2.1
			c-0.2,0.6-0.3,1.1-0.5,1.7c0,0.1,0,0.2,0,0.3c0.1,0,0.3,0,0.4-0.1c0.1,0,0.1-0.1,0.2-0.2c0.5-0.7,1.3-1,1.9-1.5
			c0.2-0.2,0.4-0.2,0.7-0.3c0.4-0.2,0.9-0.5,1.3-0.7c0.9-0.2,1.8-0.4,2.7-0.6c0.1,0,0.2-0.1,0.3-0.1c0.3,0,0.5-0.1,0.8-0.1
			c0.4,0,0.8,0,1.1,0c0.2,0,0.4-0.1,0.6-0.1c0.7,0.1,1.3,0.2,2,0.4c0.3,0.1,0.5,0,0.5-0.4c0-0.1,0-0.3,0-0.4c0-0.5,0.3-0.9,0.7-1.1
			c0.8-0.5,1.6-0.3,2.4-0.4c0.1,0,0.3,0,0.4,0c0-0.1,0-0.3-0.1-0.4c-0.4-0.4-0.6-0.8-0.8-1.2c-0.4-0.5-0.6-1.1-0.8-1.7
			c-0.1-0.2-0.2-0.3-0.4-0.2c-0.2,0.1-0.4,0.1-0.7,0.2c-0.2,0-0.3,0-0.5,0.1c-0.4,0.3-0.7,0.2-1.1,0c-0.3-0.2-0.7-0.5-1-0.7
			c-0.2-0.1-0.4,0-0.6-0.1c0.1,0.2,0.1,0.3,0.2,0.5c0.1,0.1,0.2,0.2,0.3,0.4c0.2,0.7,0.3,1.3-0.4,1.8c0,0,0,0,0,0
			c-0.2,0.2-0.3,0.4-0.5,0.5c-0.5,0.4-1.1,0.7-1.7,0.9c-0.9,0.3-1.8,0.5-2.8,0.3c-0.4-0.1-0.8,0-1.1-0.1c-0.2,0-0.4-0.1-0.6-0.1
			c-0.5-0.2-1-0.4-1.5-0.6c-0.2-0.1-0.4-0.1-0.4-0.2c-0.3-0.4-0.7-0.8-0.9-1.3c-0.1-0.3-0.1-0.8,0-1.2c0-0.2,0.2-0.4,0.2-0.7
			c0.1-0.4,0.2-0.9,0.7-1.1c0.1,0,0.1-0.1,0.2-0.2c0.4-0.6,1-0.8,1.6-1.1c0.4-0.2,0.8-0.4,1.3-0.3c0.1,0,0.1-0.1,0.2-0.1
			c0.2,0,0.3-0.1,0.5-0.1c0.7,0.1,1.4,0.3,2.1,0.4c0.3,0.1,0.6,0.3,0.8,0.6c0.1,0.1,0.2,0.2,0.4,0.3c0.1,0,0.2,0,0.3-0.1
			c0,0,0-0.2-0.1-0.3c-0.5-0.5-0.5-1.1-0.3-1.8c0.1-0.3,0-0.5-0.3-0.7c-0.2-0.1-0.3-0.1-0.5-0.2c-0.4-0.1-0.8-0.1-1-0.5
			c-0.1-0.1-0.2-0.1-0.3-0.2c-0.5-0.1-1-0.3-1.5-0.4c-1-0.2-2.1-0.5-3.1-0.7c-0.9-0.2-1.9,0.1-2.8,0.1c0,0-0.1,0-0.1,0
			c-0.5,0.2-1,0.4-1.5,0.6c-0.9,0.5-1.8,1-2.6,1.5c-0.3,0.2-0.5,0.4-0.8,0.6c-0.3,0.2-0.7,0.4-1,0.6c-0.6,0.5-1.2,0.9-1.9,1.4
			C328.6,573.2,328.5,573.3,328.4,573.4z M325.9,580.9c-0.3-0.1-0.9-0.8-0.9-1.1c0-0.1,0-0.1,0-0.2c0.2-0.6,1.1-1,1.7-0.7
			c0.1,0.1,0.2,0.2,0.2,0.3c0.2,0.5,0.4,0.6,0.8,0.3c0.5-0.3,1-0.6,1.5-0.9c0.6-0.3,1.2-0.6,1.7-1c0.3-0.2,0.3-0.5,0-0.7
			c-0.1-0.1-0.3-0.1-0.4-0.3c-0.4-0.6-1.1-0.5-1.6-0.4c-0.6,0.1-1.3,0.3-1.9,0.5c-0.3,0.1-0.6,0.2-0.8,0.3c-0.4,0.3-0.6,0.2-0.9-0.2
			c-0.1-0.1-0.1-0.2-0.2-0.4c-0.1-0.4-0.3-0.4-0.6-0.1c-0.2,0.2-0.5,0.4-0.7,0.5c-0.6,0.2-0.6,0.3-0.2,0.7c0.3,0.3,0.3,0.8,0,1
			c-0.3,0.2-0.6,0.5-0.9,0.7c-0.6,0.5-1.2,0.9-1.4,1.7c0,0.1-0.1,0.2-0.2,0.2c-0.1,0.3-0.2,0.5-0.3,0.8c0,0.3,0.1,0.6,0.2,0.8
			c0,0.4,0.2,0.6,0.5,0.8c0.3,0.2,0.6,0.4,0.9,0.5c0.1,0,0.2,0,0.3,0c0.2,0,0.4,0,0.7,0c0.4,0,0.7,0.1,1-0.1c0.1-0.1,0.3,0,0.4-0.1
			c0.7-0.1,1.3-0.3,2-0.4c0.3-0.1,0.7-0.1,1-0.2c0.2,0,0.5,0,0.7-0.1c0.4-0.1,0.6,0,0.8,0.3c0.1,0.1,0.2,0.3,0.3,0.4
			c0.2,0.3,0.4,0.6,0.5,1c0,0.1-0.2,0.3-0.4,0.5c0,0,0,0.1-0.1,0.1c-0.3,0.2-0.6,0.5-0.9,0.7c-0.1,0-0.3,0-0.3-0.1
			c-0.3-0.4-0.7-0.8-0.9-1.2c-0.2-0.4-0.5-0.5-1-0.3c-0.6,0.4-1.3,0.8-1.9,1.2c-0.5,0.3-1.1,0.6-1.6,1c-0.1,0.1-0.2,0.3-0.2,0.5
			c0.1,0.6,1.2,1.4,1.7,1.4c1.3,0,2.5-0.4,3.7-0.9c0.3-0.2,0.7-0.2,1.1-0.2c0.1,0,0.3,0.2,0.3,0.3c0.1,0.3,0.2,0.6,0.3,0.9
			c0.1,0.3,0.3,0.3,0.5,0.1c0.2-0.2,0.4-0.3,0.6-0.4c0.3-0.2,0.7-0.3,1-0.5c0.3-0.1,0.3-0.3,0.1-0.6c-0.2-0.2-0.4-0.5-0.6-0.7
			c-0.3-0.3-0.1-0.9,0.3-1.1c0.1,0,0.3-0.1,0.4-0.2c0.5-0.5,1-1,1.6-1.4c0.5-0.4,0.7-0.9,0.9-1.4c0.3-0.7,0.1-1.4-0.5-1.9
			c-0.1-0.1-0.2-0.2-0.3-0.3c-0.3-0.5-0.7-0.6-1.2-0.6c-0.6,0-1.2-0.3-1.7,0.1c0,0,0,0,0,0c-0.6,0.1-1.3,0.1-1.9,0.3
			c-0.4,0.1-0.8,0.3-1.3,0.3c0,0-0.1,0-0.1,0.1c-0.3,0.1-0.6,0.1-0.9,0.2c-0.1,0-0.2,0-0.3,0.1C326.5,580.7,326.2,580.8,325.9,580.9
			z M343.3,574.8c-0.4-0.2-0.7-0.3-1-0.5c-0.4-0.2-0.4-0.4-0.2-0.8c0.2-0.3,0.4-0.3,0.8-0.1c0.2,0.1,0.3,0.3,0.5,0.4
			c0.1,0.1,0.3,0.2,0.4,0.1c0.4-0.2,0.8-0.2,1.3-0.2c0.1,0,0.3-0.1,0.3-0.1c0-0.1,0-0.3-0.1-0.3c-0.4-0.2-0.9-0.5-1.4-0.4
			c-0.3,0-0.6-0.1-0.8-0.3c-0.4-0.4-0.5-0.4-0.9,0c-0.1,0.1-0.2,0.3-0.4,0.4c-0.1,0.1-0.2,0.2-0.3,0.2c-0.4-0.1-0.7,0.2-1.1,0.3
			c-0.3,0.1-0.4,0.4-0.4,0.7c0,0.3,0.2,0.4,0.4,0.5c0.9,0.4,1.8,0.4,2.7,0.6c0.3,0.1,0.6,0.2,0.8,0.4c0.2,0.2,0.2,0.6-0.1,0.8
			c-0.3,0.2-0.9,0.1-1.1-0.2c-0.2-0.3-0.4-0.4-0.7-0.3c-0.1,0-0.2,0-0.3,0c-0.3,0-0.6-0.1-1,0c-0.2,0-0.3,0.2-0.5,0.3
			c0.1,0.2,0.2,0.4,0.3,0.5c0.4,0.1,0.8,0.3,1.2,0.3c0.6,0,1.2,0.1,1.6,0.7c0.1,0.1,0.3,0.2,0.5,0.2c0.1,0,0.2-0.2,0.3-0.4
			c0.1-0.3,0.9-0.9,1.2-0.8c0.6,0.1,0.9-0.3,1.2-0.6c0.2-0.3,0.1-0.6-0.3-0.8c-0.2-0.1-0.3-0.2-0.4-0.3c-0.2-0.2-1-0.4-1.4-0.4
			C344,574.7,343.6,574.7,343.3,574.8z"/>
		<path id="XMLID_169_" class="st35" d="M268.5,620.2c-0.4-0.1-0.9-0.1-1.2-0.4c-0.7-0.5-1.5-0.8-2.2-1.2c-0.5-0.3-1-0.7-1.4-1.1
			c-0.1,0-0.1-0.1-0.2-0.1c-0.6-0.3-1-0.9-1.5-1.3c-0.6-0.6-1.2-1.1-1.7-1.7c-0.2-0.2-0.4-0.5-0.6-0.8c-0.6-0.9-1.2-1.8-1.8-2.7
			c-0.6-0.9-1.1-1.8-1.6-2.7c-0.3-0.6-0.7-1.1-1-1.7c-0.2-0.4-0.3-0.8-0.5-1.2c-0.3-0.7-0.6-1.4-0.9-2.2c-0.2-0.6-0.4-1.3-0.6-1.9
			c-0.2-0.6-0.3-1.2-0.5-1.7c-0.1-0.7-0.2-1.4-0.3-2.1c0-0.4,0-0.8-0.1-1.2c-0.1-0.2,0-0.5,0-0.8c0-0.4,0-0.7,0-1.1
			c0-0.3-0.1-0.7,0-1c0.1-0.6,0.2-1.1,0-1.7c-0.1-0.4,0-0.8,0-1.2c0-0.4,0-0.8,0-1.2c0-0.3,0-0.7,0-1c0-0.4,0-0.7,0-1.1
			c0-0.3-0.1-0.6-0.1-0.9c0-0.1,0-0.2,0-0.3c-0.1-0.8-0.2-1.5-0.4-2.3c0,0,0,0,0-0.1c0-0.6-0.2-1.2-0.3-1.8c0-0.1,0-0.2,0-0.3
			c-0.2-0.5-0.3-1-0.5-1.6c-0.1-0.4-0.3-0.8-0.4-1.3c-0.1-0.5-0.4-0.8-0.4-1.4c0-0.3-0.2-0.5-0.4-0.8c-0.3-0.7-0.5-1.5-0.9-2.1
			c-0.4-0.5-0.5-1.2-0.8-1.8c-0.2-0.4-0.4-0.8-0.6-1.1c-0.4-0.6-0.7-1.2-1.1-1.8c-0.4-0.6-0.8-1.1-1.2-1.7c-0.5-0.6-0.9-1.2-1.4-1.8
			c-0.3-0.3-0.6-0.5-0.8-0.8c-0.1-0.1-0.2-0.1-0.2-0.1c-0.1-0.5-0.6-0.8-1-1.1c-0.7-0.6-1.2-1.4-2-1.9c-0.1-0.1-0.2-0.1-0.2-0.2
			c0-0.1-0.1-0.1-0.1-0.2c-0.5-0.4-1-0.7-1.5-1.1c-0.1-0.1-0.2-0.1-0.3-0.2c-0.2-0.4-0.5-0.6-0.9-0.6c-0.1,0-0.2-0.1-0.3-0.2
			c-0.3-0.4-0.7-0.5-1.1-0.8c-0.5-0.4-1-0.6-1.5-1c-0.4-0.3-0.8-0.6-1.3-0.7c-0.2-0.1-0.5-0.3-0.7-0.4c-0.3-0.2-0.6-0.3-0.9-0.5
			c-0.4-0.2-0.8-0.4-1.2-0.6c-0.2-0.1-0.3-0.2-0.5-0.3c-1-0.4-2.1-0.8-3.1-1.1c-0.7-0.2-1.5-0.4-2.2-0.7c-0.3-0.1-0.6-0.1-0.6-0.4
			c0-0.3,0.4-0.2,0.7-0.2c0.2,0,0.3-0.1,0.5-0.1c0.2,0,0.4-0.1,0.6-0.2c0.2-0.1,0.4-0.1,0.6-0.2c0.1,0,0.1-0.1,0.2-0.1
			c0.5-0.1,1.1-0.2,1.6-0.3c0.6-0.1,1.2-0.3,1.8-0.5c0.5-0.1,1.1-0.3,1.6-0.4c0,0,0.1,0,0.1,0c0.5-0.2,1-0.3,1.6-0.5
			c0.2-0.1,0.4-0.1,0.6-0.1c0,0,0.1,0,0.1,0c0.5-0.2,1.1-0.3,1.6-0.5c0.2-0.1,0.4-0.1,0.6-0.1c0.1,0,0.2,0,0.2,0
			c0.5-0.2,1-0.3,1.5-0.5c0.1,0,0.1,0,0.2-0.1c0.7-0.2,1.5-0.4,2.2-0.6c0.6-0.1,1.2-0.2,1.8-0.3c0.5-0.1,1-0.3,1.5-0.5
			c0.1,0,0.3-0.1,0.4-0.1c0.2-0.1,0.4-0.2,0.7-0.2c0.6,0,1.1-0.4,1.8-0.4c0.6,0,1.1-0.3,1.7-0.4c0.2-0.1,0.4-0.1,0.6-0.2
			c0,0,0.1,0,0.1,0c0.5-0.2,1.1-0.3,1.6-0.4c0.6-0.1,1.2-0.3,1.8-0.5c0.2,0,0.3-0.1,0.5-0.1c0.1,0,0.2-0.1,0.3-0.1
			c0.9-0.2,1.9-0.4,2.8-0.7c0.1,0,0.2,0,0.3-0.1c0.4-0.2,0.7-0.1,1,0.2c0.2,0.2,0.6,0.3,0.8,0.4c0.3,0.2,0.5,0.3,0.8,0.5
			c0.2,0.1,0.4,0.3,0.7,0.4c0.3,0.1,0.6,0.2,0.8,0.5c0,0,0.1,0.1,0.1,0.1c0.6,0.4,1.2,0.7,1.8,1.1c0.2,0.1,0.4,0.3,0.7,0.5
			c0.5,0.4,1.1,0.8,1.6,1.2c0,0,0.1,0,0.1,0c0.4,0.4,0.8,0.7,1.2,1.1c0.2,0.1,0.3,0.3,0.5,0.4c0.1,0.1,0.2,0.1,0.2,0.1
			c0.3,0.3,0.6,0.7,1,1c0.5,0.3,0.7,0.9,1.3,1.2c0.4,0.2,0.6,0.6,0.8,1c0.1,0.1,0.3,0.2,0.4,0.4c0.3,0.3,0.6,0.6,0.9,0.9
			c0.4,0.4,0.7,0.8,1,1.2c0.2,0.3,0.4,0.5,0.6,0.8c0.8,1.1,1.7,2.1,2.4,3.2c0.5,0.7,1,1.5,1.4,2.3c0.4,0.6,0.7,1.3,1,2
			c0.4,0.8,0.8,1.6,1.2,2.4c0.2,0.4,0.2,0.8,0.4,1.2c0.1,0.2,0.2,0.4,0.3,0.6c0,0.6,0.3,1,0.5,1.5c0.1,0.6,0.3,1.1,0.4,1.7
			c0,0,0,0,0,0.1c0,0.8,0.4,1.6,0.3,2.4c0,0.2-0.1,0.4,0,0.5c0.2,0.4,0.1,0.8,0.1,1.2c-0.1,0.8-0.1,1.7-0.2,2.5
			c-0.1,1-0.3,2.1-0.5,3.1c-0.1,0.6-0.2,1.2,0,1.8c0,0.1,0.1,0.2,0,0.3c-0.1,0.8,0.4,1.5,0.5,2.2c0.1,0.9,0.7,1.5,0.9,2.3
			c0.2,0.6,0.6,1.1,1,1.6c0.4,0.6,0.9,1.1,1.4,1.6c0.3,0.4,0.7,0.8,1.1,1.1c0.5,0.4,1,0.7,1.5,1c0.2,0.1,0.4,0.1,0.5,0.3
			c0.3,0.4,0.8,0.5,1.2,0.7c0.7,0.2,1.3,0.6,2,0.9c0.2,0.1,0.3,0.3,0.2,0.6c-0.1,0.2-0.2,0.3-0.3,0.5c-0.2,0.3-0.4,0.5-0.6,0.8
			c-0.4,0.5-0.9,1-1.3,1.5c-0.4,0.4-0.7,0.9-1,1.4c-0.4,0.5-0.8,1-1.2,1.4c0,0.1-0.1,0.1-0.2,0.1c-0.4,0.5-0.7,1-1.1,1.5
			c-0.4,0.5-0.8,0.9-1.2,1.4c-0.1,0.1-0.2,0.3-0.3,0.4c-0.1,0.2-0.3,0.3-0.4,0.5c-0.3,0.6-0.9,1-1.2,1.6c-0.3,0.5-0.7,0.9-1.1,1.3
			c-0.1,0.2-0.3,0.3-0.4,0.5c0,0,0,0,0,0c-0.4,0.5-0.8,1-1.2,1.5c0,0.1-0.1,0.1-0.2,0.1c-0.3,0.5-0.7,0.9-1,1.4
			c-0.4,0.5-0.8,1-1.2,1.5c-0.4,0.5-0.7,0.9-1.1,1.4c-0.1,0.2-0.3,0.4-0.4,0.5c-0.4,0.5-0.8,1-1.2,1.5c-0.1,0.2-0.3,0.3-0.4,0.4
			c-0.1,0.2-0.3,0.4-0.4,0.5c0,0,0,0.1,0,0.1c-0.6,0.5-0.8,1.4-1.7,1.6c-0.2,0.1-0.4,0.1-0.7,0C269.1,620.4,268.8,620.3,268.5,620.2
			C268.5,620.2,268.5,620.2,268.5,620.2z M268.6,618C268.6,618,268.6,617.9,268.6,618c0.2,0,0.3,0,0.4,0c0.3,0.1,0.5,0.1,0.7-0.2
			c0.4-0.6,0.9-1.2,1.4-1.8c0.3-0.4,0.6-0.8,1-1.2c0.4-0.5,0.7-1,1.1-1.4c0,0,0,0,0.1-0.1c0.4-0.5,0.9-1,1.3-1.5
			c0.1-0.2,0.2-0.4,0.4-0.5c0.4-0.4,0.8-0.9,1.1-1.3c0,0,0,0,0-0.1c0.1-0.3,0.3-0.6,0.6-0.7c0.1-0.1,0.2-0.3,0.3-0.4
			c0-0.2,0.1-0.4,0.4-0.5c0.3-0.1,0.4-0.3,0.4-0.6c0-0.1,0.2-0.3,0.3-0.4c0.1-0.1,0.4-0.2,0.4-0.4c0.1-0.3,0.3-0.6,0.5-0.8
			c0.1-0.1,0.2-0.2,0.3-0.4c0.4-0.5,0.7-1,1.1-1.5c0,0,0.1,0,0.1-0.1c0.4-0.5,0.8-1,1.2-1.5c0.4-0.4,0.8-0.8,1-1.3
			c0,0,0.1,0,0.1-0.1c0.2-0.2,0.4-0.4,0.6-0.7c0.1-0.1,0.2-0.2,0.3-0.3c0.1-0.2,0.3-0.4,0.4-0.5c0.3-0.4,0.6-0.9,0.9-1.3
			c0,0,0.1-0.1,0.1-0.1c0.2-0.3,0.5-0.6,0.7-0.9c0-0.1,0-0.3-0.1-0.3c-0.2-0.2-0.4-0.4-0.7-0.5c-0.5-0.3-1-0.6-1.5-1
			c-0.3-0.2-0.6-0.4-0.9-0.7c-1.2-1-2.1-2.2-3-3.4c-0.6-0.8-1-1.7-1.5-2.6c-0.1-0.3-0.2-0.5-0.3-0.8c-0.2-0.5-0.3-1-0.5-1.5
			c-0.2-0.6-0.4-1.1-0.5-1.7c-0.1-0.6-0.1-1.1-0.1-1.7c0-0.5,0.1-1.1,0.2-1.6c0.1-0.9,0.3-1.7,0.4-2.6c0.1-0.9,0.1-1.8,0.2-2.7
			c0-0.1,0.1-0.3,0-0.4c-0.1-0.6-0.3-1.1,0-1.7c0,0,0-0.1,0-0.1c-0.1-0.5-0.2-0.9-0.3-1.3c-0.2-0.6-0.3-1.2-0.5-1.8
			c-0.2-0.6-0.4-1.1-0.6-1.7c-0.2-0.5-0.4-1-0.6-1.5c-0.4-0.8-0.7-1.5-1.1-2.3c-0.3-0.6-0.8-1.2-1.1-1.9c-0.8-1.5-1.8-2.9-2.9-4.2
			c-0.3-0.3-0.5-0.6-0.8-0.9c-0.3-0.4-0.6-0.8-1-1.2c-0.3-0.3-0.6-0.6-0.9-0.9c-0.2-0.2-0.4-0.4-0.6-0.6c-0.1-0.1-0.2-0.2-0.3-0.3
			c-0.4-0.4-0.7-0.8-1.1-1.1c-0.3-0.3-0.6-0.6-0.9-0.9c-0.4-0.4-1-0.6-1.2-1.1c0,0-0.1,0-0.1-0.1c-0.5-0.3-0.9-0.8-1.5-1.1
			c0,0-0.1-0.1-0.1-0.1c-0.1-0.1-0.1-0.2-0.2-0.2c-0.5-0.3-1-0.7-1.6-1c-0.1-0.1-0.1-0.1-0.2-0.2c-0.2-0.2-0.4-0.4-0.7-0.5
			c-0.6-0.4-1.2-0.7-1.9-1.1c0,0-0.1-0.1-0.1-0.1c-0.3-0.4-0.7-0.6-1.2-0.7c-0.3-0.1-0.5-0.3-0.8-0.2c-0.5,0-1-0.1-1.4,0.3
			c0,0-0.1,0-0.2,0c-0.5,0.1-1,0.2-1.5,0.3c-0.4,0.1-0.8,0.2-1.2,0.3c-0.6,0.2-1.2,0.3-1.8,0.5c-0.6,0.2-1.1,0.4-1.7,0.5
			c-0.6,0.1-1.1,0.3-1.7,0.4c0,0-0.1,0-0.1,0c-0.2,0.1-0.5,0.1-0.7,0.2c-0.1,0-0.2,0.1-0.3,0.2c-0.4,0.1-0.8,0.1-1.2,0.2
			c-0.6,0.1-1.1,0.3-1.7,0.5c-0.3,0.1-0.7,0.1-1,0.2c-0.4,0.2-0.8,0.3-1.2,0.3c0,0-0.1,0-0.1,0c-0.3,0.1-0.6,0.1-0.9,0.3
			c-0.4,0.2-0.9,0.3-1.4,0.3c-0.1,0-0.1,0.1-0.2,0.1c-0.2,0.1-0.3,0.1-0.5,0.1c-0.2,0-0.3,0-0.5,0.1c-0.5,0.2-1.1,0.4-1.6,0.5
			c-0.9,0.2-1.9,0.4-2.8,0.7c-0.3,0.1-0.5,0.2-0.7,0.3c-0.1,0-0.2,0.1-0.2,0.2c0,0.1,0.1,0.2,0.2,0.2c0.3,0.1,0.5,0.1,0.8,0.1
			c0.4,0,0.7,0.1,0.9,0.4c0.3,0.4,0.6,0.5,1.1,0.6c0.2,0,0.5,0.2,0.7,0.3c0.3,0.2,0.5,0.4,0.8,0.6c0.6,0.4,1.3,0.7,2,1.1
			c0.1,0,0.1,0.1,0.2,0.2c0.2,0.3,0.5,0.5,0.8,0.6c0.1,0,0.2,0.1,0.2,0.1c0.3,0.6,1.2,0.6,1.4,1.3c0,0,0.1,0,0.1,0.1
			c0.4,0.1,0.6,0.4,0.8,0.6c0.3,0.3,0.8,0.6,1.1,1c0.3,0.4,0.9,0.6,1.2,1c0.6,0.6,1.2,1.3,1.8,2c0.2,0.2,0.4,0.4,0.5,0.7
			c0.4,0.4,0.8,0.8,1.1,1.3c0.4,0.5,0.8,1.1,1.2,1.6c0.5,0.8,1,1.5,1.5,2.3c0.5,0.9,1,1.8,1.5,2.7c0.1,0.2,0.2,0.4,0.3,0.6
			c0.2,0.5,0.4,1,0.6,1.4c0.1,0.3,0.3,0.7,0.5,1c0.2,0.5,0.4,1.1,0.5,1.6c0.1,0.2,0.2,0.5,0.2,0.7c0.3,0.8,0.6,1.6,0.8,2.4
			c0,0.1,0,0.2,0,0.3c0.1,0.2,0.1,0.5,0.2,0.7c0,0.2,0.1,0.3,0.1,0.5c0,0.3,0,0.6,0.2,0.8c0.1,0.1,0.1,0.2,0.1,0.3
			c-0.2,0.5,0,0.9,0.1,1.3c0.1,0.6,0.2,1.2,0.2,1.8c0.1,0.6,0,1.2,0.1,1.8c0,0.1,0,0.3,0,0.5c0,0.4,0,0.8,0,1.1c0,0.3,0,0.7,0,1
			c0,0.5,0,1-0.1,1.4c0,0.6,0,1.2,0,1.7c0,0.4-0.1,0.9,0.1,1.3c0,0.1,0.1,0.2,0,0.3c-0.1,0.6-0.1,1.2,0,1.8c0.1,0.6,0,1.3,0.2,1.9
			c0.1,0.3,0.2,0.6,0.2,0.9c0,0.1,0,0.2,0.1,0.3c0.1,0.6,0.2,1.2,0.3,1.9c0,0,0.1,0.1,0.1,0.1c0.2,0.5,0.4,0.9,0.6,1.4
			c0.3,0.7,0.6,1.5,0.9,2.2c0.2,0.4,0.4,0.7,0.6,1c0.2,0.4,0.3,0.8,0.5,1.1c0.3,0.6,0.6,1.1,1,1.7c0.6,0.9,1.2,1.7,1.8,2.5
			c0.2,0.3,0.4,0.5,0.6,0.8c0.3,0.4,0.6,0.8,0.9,1.2c0.5,0.5,1,1.2,1.7,1.5c0.1,0,0.1,0.1,0.1,0.1c0.2,0.4,0.5,0.6,0.9,0.8
			c0.1,0,0.2,0.1,0.3,0.2c0.3,0.2,0.7,0.5,1,0.7c0.2,0.1,0.4,0.2,0.6,0.3C267.8,617.6,268.2,617.8,268.6,618z"/>
		<path id="XMLID_18_" class="st35" d="M325.7,600.4c-0.1-0.2-0.1-0.3-0.1-0.4c0-0.1,0.1-0.1,0.2-0.2c0,0.1,0.1,0.2,0.1,0.3
			C325.8,600.2,325.8,600.2,325.7,600.4z"/>
		<path id="XMLID_17_" class="st35" d="M324.7,600.8c-0.1,0-0.2,0.1-0.2,0.1c-0.1-0.1-0.1-0.2-0.1-0.3c0-0.1,0.1-0.2,0.2-0.2
			c0.1,0,0.2,0.1,0.3,0.2C324.8,600.7,324.7,600.7,324.7,600.8z"/>
		<path id="XMLID_164_" class="st35" d="M306,587.2c0-0.4,0.2-0.8,0.5-1.1c0.1-0.1,0.1-0.2,0.2-0.3c0.3-0.6,0.7-1.1,1.3-1.5
			c0.3-0.1,0.5-0.4,0.8-0.6c0.2-0.2,0.5-0.3,0.8-0.4c0.4-0.2,0.8-0.3,1.3-0.4c0.2,0,0.3-0.1,0.5,0c1,0.2,2,0.5,3,0.7
			c0.1,0,0.1,0.1,0.2,0.1c0.5,0.4,1.1,0.8,1.5,1.3c0.6,0.7,1,1.5,1.3,2.3c0.3,0.8,0.1,1.4,0,2.1c-0.1,0.2-0.2,0.4-0.4,0.6
			c0,0.1-0.1,0.1-0.2,0.2c-0.3,0.8-1,1.1-1.7,1.4c-0.6,0.3-1.1,0.5-1.7,0.7c-0.2,0.1-0.3,0-0.5,0.1c-0.4,0-0.7,0.1-1.1,0.1
			c-0.1,0-0.3,0.1-0.4,0c-0.9-0.2-1.8-0.4-2.7-0.6c0,0,0,0,0,0c-0.8-0.6-1.8-1.1-2.4-2C306,589.5,305.8,588,306,587.2z M312.1,591.5
			c0.1,0,0.1,0.1,0.2,0.1c0.1,0,0.3,0,0.4-0.1c0-0.1-0.1-0.3-0.1-0.4c-0.2-0.2-0.3-0.4,0-0.5c0.3-0.1,0.7-0.3,1-0.3
			c0.6,0.1,1.1-0.3,1.5-0.6c0.5-0.3,0.7-0.9,0.3-1.4c-0.3-0.4-0.7-0.7-1.1-0.9c-0.7-0.3-1.5-0.5-2.2-0.7c-0.1,0-0.2-0.1-0.3,0
			c-0.4,0-0.7-0.2-0.9-0.6c-0.2-0.4-0.2-0.7,0.1-0.9c0.4-0.2,0.9,0,1,0.4c0.1,0.4,0.3,0.5,0.6,0.5c0.5,0,1.1,0,1.6,0
			c0.3,0,0.5-0.3,0.3-0.5c-0.2-0.3-0.5-0.6-0.8-0.7c-0.3-0.2-0.8-0.2-1.2-0.2c-0.3,0-0.6-0.1-0.6-0.5c-0.1-0.3-0.4-0.3-0.6-0.4
			c-0.2,0-0.4,0.1-0.4,0.3c-0.1,0.3-0.3,0.4-0.5,0.5c-0.6,0.2-1.2,0.4-1.7,0.7c-0.7,0.4-0.7,1.1-0.2,1.7c0.2,0.3,0.5,0.5,0.9,0.5
			c0.7,0.1,1.5,0.3,2.1,0.5c0.3,0.1,0.5,0.7,0.7,1c0,0.1-0.1,0.2-0.1,0.3c-0.1,0.1-0.1,0.2-0.2,0.3c-0.2,0.3-0.5,0.2-0.8,0.1
			c-0.3-0.1-0.3-0.3-0.2-0.6c0.1-0.4,0-0.5-0.4-0.6c-0.7,0-1.4,0-2.1,0c-0.3,0-0.4,0.2-0.3,0.5c0.1,0.2,0.2,0.5,0.3,0.7
			c0.1,0.1,0.2,0.2,0.4,0.3c0.6,0.2,1.1,0.3,1.7,0.4c0.6,0.1,0.8,0.2,0.8,0.8c0,0.3,0.2,0.4,0.5,0.3
			C311.9,591.4,312,591.5,312.1,591.5z"/>
		<path id="XMLID_14_" class="st35" d="M317,591.8c0,0.2,0.1,0.3,0,0.4c0,0.1-0.1,0.1-0.2,0.2c0-0.1-0.1-0.2-0.1-0.2
			C316.7,592,316.8,592,317,591.8z"/>
		<path id="XMLID_13_" class="st35" d="M333.9,581.2c-0.2,0-0.3,0.1-0.4,0.1c-0.1-0.1-0.2-0.2-0.2-0.3c0.1,0,0.2-0.1,0.3-0.1
			C333.6,580.9,333.7,581,333.9,581.2z"/>
		<path id="XMLID_159_" class="st35" d="M268.5,613.6c-0.2-0.2-0.5-0.3-0.7-0.5c-0.3-0.2-0.5-0.3-0.8-0.4c-0.2-0.2-0.4-0.3-0.7-0.5
			c-0.1-0.1-0.2-0.1-0.3-0.2c-0.2-0.2-0.4-0.3-0.6-0.5c-0.3-0.3-0.6-0.6-0.8-0.8c-1.1-1.1-1.9-2.3-2.8-3.5c-0.8-1.1-1.3-2.4-1.9-3.6
			c-0.3-0.6-0.6-1.2-0.9-1.9c-0.2-0.5-0.3-1.1-0.4-1.7c0-0.1,0-0.3-0.1-0.4c-0.2-0.4-0.3-0.8-0.2-1.3c0-0.1,0-0.2-0.1-0.4
			c0-0.1-0.1-0.1-0.1-0.2c-0.1-0.8-0.1-1.6-0.2-2.3c0-0.4,0-0.8-0.1-1.2c0-0.2-0.1-0.4-0.1-0.6c0-1,0-2,0-3c0-0.2-0.1-0.4-0.1-0.6
			c0-0.4,0-0.8,0-1.1c0-0.3,0-0.7-0.1-1c0,0,0-0.1,0-0.1c0-1,0-2.1-0.1-3.1c-0.1-0.8,0-1.6-0.3-2.4c-0.2-0.6-0.2-1.3-0.4-1.9
			c-0.1-0.6-0.3-1.1-0.4-1.7c-0.1-0.2,0-0.5-0.1-0.7c-0.2-0.7-0.4-1.5-0.6-2.2c-0.2-0.7-0.6-1.3-0.9-1.9c-0.3-0.8-0.7-1.5-1-2.3
			c-0.1-0.1-0.1-0.3-0.2-0.4c-0.5-0.8-0.9-1.5-1.4-2.2c-0.3-0.4-0.5-0.8-0.7-1.1c-0.5-0.8-1.1-1.4-1.7-2.2c-0.2-0.3-0.5-0.6-0.7-0.9
			c0,0,0-0.1-0.1-0.1c-0.6-0.3-0.8-1-1.3-1.4c-0.5-0.4-0.9-1-1.4-1.5c-0.4-0.4-0.9-0.6-1.2-1.1c-0.3-0.5-0.9-0.7-1.2-1.2
			c-0.2-0.4-0.7-0.6-1.1-1c-0.5-0.4-1-0.9-1.5-1.3c-0.1-0.1-0.3-0.2-0.4-0.3c-0.2-0.2-0.4-0.4-0.6-0.5c-0.2-0.1-0.4-0.2-0.6-0.4
			c-0.1-0.1-0.3-0.1-0.4-0.2c-0.2-0.4-0.6-0.5-1-0.6c-0.5-0.1-0.6-0.4-0.4-0.9c0.1-0.1,0.3-0.2,0.4-0.2c0.4,0,0.9,0.1,1.3-0.2
			c0.2-0.2,0.6-0.2,0.9-0.3c0.5-0.1,1-0.3,1.5-0.5c0.6-0.2,1.2-0.4,1.8-0.6c0.1,0,0.1-0.1,0.2-0.1c0.3-0.1,0.7-0.2,1-0.2
			c1-0.1,1.9-0.6,2.9-0.9c0,0,0,0,0,0c0.6-0.1,1.2-0.3,1.8-0.4c0.4-0.1,0.7-0.2,1.1-0.3c0.5-0.2,1.1-0.4,1.6-0.6
			c0.5-0.1,1-0.2,1.6-0.4c0.1,0,0.1,0,0.2,0c0.5-0.2,1-0.3,1.4-0.5c0.4-0.2,1.1,0.1,1.3,0.5c0.1,0.1,0.1,0.2,0.2,0.3
			c0.9,0.4,1.7,1.2,2.5,1.8c0.5,0.4,1,0.8,1.5,1.2c0.5,0.4,1,0.8,1.5,1.2c0.2,0.2,0.5,0.4,0.7,0.6c0.6,0.6,1.2,1.2,1.9,1.8
			c0.4,0.4,0.7,0.9,1.2,1.1c0.3,0.2,0.6,0.6,0.9,0.9c0.3,0.4,0.7,0.8,1,1.2c0.3,0.4,0.7,0.8,1,1.2c0.2,0.3,0.4,0.6,0.7,0.9
			c0.9,1.2,1.7,2.4,2.4,3.7c0.3,0.6,0.7,1.2,1,1.8c0.2,0.3,0.2,0.7,0.4,1c0.1,0.3,0.2,0.6,0.3,0.9c0,0.1,0,0.2,0.1,0.3
			c0,0.2,0.1,0.4,0.2,0.6c0,0.1,0.1,0.1,0.1,0.2c0.1,0.5,0.2,0.9,0.3,1.4c0.1,0.3,0.2,0.6,0.2,1c0,0.1,0,0.3,0.1,0.4
			c0.1,0.3,0.1,0.6,0.2,0.9c0,0,0,0.1,0,0.1c0.1,0.6,0.2,1.3,0.3,1.9c0,0.2,0,0.4,0.1,0.5c0.2,0.4,0.2,0.8,0.1,1.2
			c0,0.3-0.1,0.6,0,1c0.1,0.6,0,1.2,0,1.9c-0.1,0.7-0.1,1.4-0.1,2.2c0,0.4-0.1,0.9-0.2,1.3c-0.1,0.5-0.1,0.9,0.1,1.3
			c0.1,0.2,0,0.5,0,0.8c0,0.4,0,0.8,0.1,1.3c0.1,0.4,0.2,0.8,0.3,1.2c0.1,0.5,0.3,1,0.5,1.4c0.5,1,0.9,1.9,1.5,2.8
			c0.5,0.8,1.1,1.5,1.7,2.1c0.5,0.6,1.1,1.1,1.7,1.7c0.1,0.1,0.2,0.2,0.3,0.3c0.5,0.3,1.1,0.6,1.6,0.9c0.4,0.2,0.5,0.4,0.2,0.8
			c0,0.1-0.1,0.1-0.2,0.2c-0.4,0.4-0.8,0.7-1.2,1.1c-0.3,0.3-0.5,0.6-0.8,0.8c-0.4,0.4-0.7,0.8-1.1,1.2c-0.1,0.1-0.2,0.2-0.2,0.2
			c-0.1,0.1-0.2,0.1-0.3,0.2c-0.3,0.4-0.6,0.8-1,1.2c-0.2,0.3-0.5,0.5-0.8,0.8c-0.4,0.4-0.8,0.8-1.2,1.2c0,0,0,0-0.1,0
			c-0.2,0.4-0.5,0.7-0.8,1c-0.4,0.3-0.8,0.8-1.1,1.3c-0.4,0.5-0.8,1-1.3,1.5c-0.2,0.3-0.5,0.4-0.8,0.7c-0.9,0.9-1.7,1.8-2.6,2.7
			c-0.2,0.2-0.4,0.5-0.5,0.7C269.3,613.5,269,613.8,268.5,613.6z M274,577.1C274,577.1,274,577.1,274,577.1c0.1-0.1,0.1-0.2,0.1-0.3
			c-0.1-0.8-0.1-1.6-0.2-2.3c-0.1-0.6-0.3-1.2-0.4-1.8c-0.1-0.6-0.2-1.2-0.3-1.7c0-0.1-0.1-0.2-0.1-0.2c-0.1-0.3-0.2-0.6-0.3-0.9
			c0-0.1,0-0.2-0.1-0.3c-0.3-0.6-0.6-1.3-0.9-1.9c-0.3-0.7-0.7-1.3-1.1-2c-0.1-0.1-0.1-0.2-0.1-0.3c-0.2-0.4-0.3-0.8-0.6-1.1
			c-0.3-0.4-0.6-0.7-0.9-1c-0.7-1-1.4-1.9-2.2-2.7c-0.8-0.8-1.5-1.7-2.3-2.5c-0.9-0.9-1.9-1.7-2.8-2.5c-0.4-0.4-0.8-0.7-1.2-1.1
			c-0.4-0.4-0.7-0.5-1.2-0.3c-0.2,0.1-0.5,0.1-0.8,0.2c-0.3,0.1-0.7,0.1-1,0.1c-0.2,0-0.4,0.1-0.5,0c-0.7-0.1-1.3-0.3-2-0.4
			c-0.2,0-0.4-0.1-0.5-0.2c-0.4-0.4-1.1-0.7-1.4-1.3c-0.2-0.3-0.5-0.5-0.9-0.3c-0.5,0.2-1,0.3-1.5,0.4c-0.4,0.1-0.9,0.2-1.2,0.3
			c-0.9,0.4-1.8,0.6-2.8,0.8c-0.2,0-0.4,0.2-0.6,0.3c0.1,0.2,0.3,0.3,0.4,0.5c0.1,0.1,0.3,0.1,0.5,0.2c0.1,0,0.3,0.1,0.4,0.2
			c0.5,0.3,0.9,0.6,1.4,1c0.5,0.4,0.5,0.6,0,1c-0.7,0.6-1.5,1.2-2.5,1.4c-0.3,0.1-0.4,0.3-0.2,0.6c0.1,0.1,0.2,0.3,0.4,0.4
			c0.3,0.3,0.7,0.6,1,1c0.6,0.6,1.1,1.3,1.7,1.9c0.6,0.6,1.3,1.1,1.6,2c0,0.1,0.1,0.1,0.2,0.2c0.1,0.1,0.3,0.3,0.4,0.4
			c0.2,0.3,0.4,0.5,0.6,0.8c0.4,0.6,0.9,1.1,1.3,1.7c0.6,0.9,1.2,1.9,1.7,2.8c0.3,0.4,0.5,0.9,0.8,1.3c0.2,0.4,0.5,0.9,0.7,1.3
			c0.3,0.8,0.7,1.6,1,2.4c0.3,0.8,0.6,1.6,0.8,2.4c0.2,0.7,0.3,1.4,0.5,2.2c0.2,0.9,0.1,1.9,0.6,2.7c0.1,0.1,0,0.3,0,0.4
			c-0.1,0.3-0.1,0.7,0.1,1c0.1,0.1,0.1,0.3,0.1,0.4c0,0.4,0,0.8,0,1.1c0.1,0.9,0.2,1.9,0.2,2.8c0,1.2,0,2.4,0,3.7c0,0.1,0,0.3,0,0.4
			c0,0.3,0,0.7,0,1c0,0.3,0,0.6,0,0.9c0,0.3,0.1,0.6,0.1,0.8c0,0.3,0,0.7,0,1c0,0.3,0.1,0.6,0.1,1c0,0.2,0,0.3,0,0.5
			c0.1,0.7,0.3,1.5,0.5,2.2c0.1,0.5,0.2,1.1,0.5,1.6c0.3,0.8,0.7,1.7,1.1,2.5c0.3,0.7,0.7,1.3,1.1,2c0.3,0.6,0.7,1.1,1.1,1.7
			c0.1,0.1,0.2,0.2,0.3,0.3c0.1-0.1,0.2-0.2,0.3-0.4c0.1-0.1,0.1-0.3,0.1-0.3c0.3-0.3,0.7-0.6,1-0.9c0.2-0.2,0.5-0.3,0.8-0.5
			c0.4-0.3,0.9-0.4,1.3-0.2c0.8,0.3,1.6,0.5,2,1.3c0,0.1,0.1,0.1,0.1,0.1c0.3,0.2,0.5,0.5,0.6,0.9c0.1,0.2,0.3,0.4,0.5,0.4
			c0.2,0,0.4-0.2,0.6-0.3c0.6-0.6,1.1-1.2,1.6-1.8c0.6-0.7,1.3-1.3,2-2c0.7-0.7,1.5-1.5,2.2-2.2c0.3-0.3,0.3-0.6,0-0.9
			c-0.2-0.2-0.5-0.3-0.7-0.4c-0.5-0.3-1-0.7-1.4-1.1c-0.4-0.4-0.6-0.9-0.7-1.5c-0.2-0.7,0-1.3,0.3-1.8c0.3-0.4,0.9-0.6,1.4-0.9
			c0.5-0.2,0.5-0.4,0.2-0.8c-0.2-0.2-0.4-0.4-0.5-0.6c-0.3-0.5-0.7-1.1-1-1.7c-0.4-0.7-0.7-1.5-1.1-2.2c-0.2-0.4-0.3-0.9-0.5-1.4
			c-0.3-0.8-0.5-1.6-0.4-2.4c0-0.3,0-0.6,0-0.9c0-0.4-0.1-0.8,0-1.2c0-0.3,0.1-0.5,0.1-0.8c0.1-1.4,0.3-2.9,0.4-4.3
			c0-0.4,0-0.7,0-1.1C274,577.6,274,577.3,274,577.1z"/>
		<path id="XMLID_10_" class="st35" d="M257.9,602.9c-0.1,0.1-0.2,0.1-0.3,0.1c-0.1,0-0.1-0.1-0.2-0.2c0.1,0,0.1-0.1,0.2-0.1
			C257.8,602.7,257.8,602.8,257.9,602.9z"/>
		<path id="XMLID_155_" class="st35" d="M267.6,568.9c0.4,0.1,0.9,0.2,1.3,0.3c0.1,0,0.3,0.1,0.3,0.2c0.2,0.3,0.5,0.4,0.8,0.5
			c0.2,0.1,0.3,0.2,0.4,0.4c0.1,0.1,0.2,0.3,0.3,0.4c0.6,0.5,1.1,1.1,1.4,1.8c0.3,0.6,0.5,1.3,0.8,2c0,0.1,0,0.2,0,0.3
			c0,0.4-0.1,0.8,0.2,1.2c0.1,0.1,0,0.3,0,0.5c-0.1,0.3-0.2,0.7,0,1c0,0.1,0,0.1,0,0.2c-0.1,0.6-0.3,1.2-0.4,1.9
			c-0.2,0.9-0.4,1.7-0.9,2.4c-0.2,0.4-0.3,0.8-0.7,1.1c0,0-0.1,0.1-0.1,0.1c-0.4,1-1.2,1.7-2,2.4c-0.4,0.4-0.9,0.6-1.4,0.8
			c-0.4,0.2-0.8,0.4-1.3,0.5c-0.3,0.1-0.6,0.1-0.8,0.1c-0.7-0.1-1.4-0.3-2-0.5c-0.2-0.1-0.4-0.3-0.6-0.4c-0.1-0.1-0.2-0.2-0.3-0.3
			c-0.4-0.2-0.6-0.4-0.8-0.7c-0.5-0.8-1-1.6-1.5-2.4c-0.2-0.4-0.3-0.8-0.4-1.2c-0.1-0.6-0.3-1.2-0.4-1.8c-0.1-0.7-0.2-1.3-0.3-2
			c0-1.2,0.2-2.5,0.5-3.7c0.1-0.3,0.1-0.7,0.2-1c0.1-0.3,0.3-0.7,0.5-1c0.1-0.2,0.2-0.3,0.3-0.5c0.3-0.5,0.6-1,1-1.4
			c0.6-0.4,1.1-1,1.9-1.1c0.5-0.1,1.1-0.3,1.6-0.5c0.3-0.1,0.6,0,0.9,0C266.8,568.7,267.2,568.8,267.6,568.9
			C267.6,568.9,267.6,568.9,267.6,568.9z M265.8,578.2c-0.1,0.5-0.3,0.9-0.8,1.1c-0.1,0-0.2,0.1-0.3,0.2c-0.3,0.2-0.5,0.1-0.7-0.1
			c-0.4-0.4-0.5-0.9-0.3-1.4c0.1-0.5,0.5-0.7,0.9-0.8c0.4-0.1,0.6-0.3,0.5-0.6c0-0.3-0.1-0.5-0.1-0.8c0-0.2,0-0.4-0.1-0.6
			c0-0.2,0-0.3,0-0.5c-0.1-0.6-0.3-1.3-0.5-1.9c0-0.1-0.2-0.2-0.3-0.2c-0.7,0.2-1.3,0.6-1.5,1.3c-0.2,0.6-0.3,1.2-0.4,1.9
			c0,0.2,0,0.5,0,0.7c0,0.5,0.1,1.1,0.1,1.6c0,0.1-0.1,0.3-0.2,0.3c-0.2,0.1-0.5,0.2-0.8,0.3c-0.5,0.2-0.6,0.3-0.5,0.9
			c0.1,0.2,0.2,0.4,0.2,0.6c0,0.3-0.1,0.6,0.2,0.8c0.3,0.1,0.5-0.2,0.7-0.3c0.2-0.1,0.5-0.1,0.7-0.1c0.1,0,0.2,0.1,0.2,0.2
			c0.1,0.4,0.2,0.9,0.4,1.3c0.2,0.5,0.3,0.9,0.6,1.3c0.3,0.4,0.6,0.9,1.1,1c0.5,0.1,1,0.1,1.4-0.3c0.6-0.5,1-1.2,1.3-1.9
			c0-0.1,0-0.2,0-0.3c0.1-1.1,0.2-2.2,0.3-3.3c0.1-0.8,0.3-1.6,0.5-2.4c0.1-0.4,0.7-0.7,1-0.6c0.5,0.1,0.3,0.5,0.4,0.8
			c0,0.1,0,0.1,0,0.2c0,0.4-0.2,0.6-0.5,0.8c-0.5,0.3-0.7,0.8-0.5,1.3c0.1,0.2,0.1,0.5,0.1,0.8c0,0.1,0,0.3,0,0.4
			c0.1,0.4,0.1,0.8,0.2,1.2c0,0.1,0,0.3,0.1,0.4c0.2,0.4,0.5,0.4,0.8,0.1c0.1-0.1,0.2-0.3,0.3-0.4c0.2-0.3,0.4-0.6,0.5-0.9
			c0.2-0.6,0.3-1.2,0.3-1.7c0-0.2,0-0.5-0.1-0.7c-0.3-0.5,0-1,0.5-1.2c0.5-0.1,0.5-0.2,0.4-0.7c0-0.1-0.1-0.3-0.1-0.4
			c-0.1-0.6-0.2-0.6-0.7-0.5c-0.1,0-0.2,0.1-0.3,0c-0.1-0.1-0.3-0.2-0.4-0.3c-0.1-0.3-0.1-0.7-0.3-1c-0.3-0.9-0.6-1.8-1.8-2.1
			c-0.6-0.2-1.5,0.1-1.7,0.7c-0.3,0.8-0.5,1.6-0.6,2.4C266.1,575.8,265.9,577,265.8,578.2z"/>
		<path id="XMLID_152_" class="st35" d="M264.5,593.5c0.2-0.7,0.3-1.4,0.8-2c0.5-0.7,1.3-1,2-1.4c0.1,0,0.2,0,0.3,0
			c0.4,0,0.7-0.1,1.1-0.1c0.6,0,1.1,0,1.5,0.5c0,0.1,0.1,0.1,0.2,0.1c0.9,0.3,1.2,1.1,1.7,1.7c0.1,0.1,0.1,0.2,0.1,0.3
			c0.1,0.2,0.2,0.4,0.2,0.6c0.1,0.2,0.1,0.5,0.1,0.7c0,0.4,0.1,0.7,0.1,1.1c0,0.4,0,0.8-0.1,1.2c-0.3,0.8-0.7,1.6-1.1,2.4
			c-0.2,0.4-0.7,0.8-1.1,1.1c-0.1,0.1-0.3,0.3-0.5,0.4c-0.2,0.2-1.2,0.5-1.5,0.4c-1.1-0.1-1.8-0.6-2.5-1.4c-0.7-0.7-0.9-1.6-1.3-2.4
			c-0.1-0.1,0-0.3,0-0.5c0-0.3-0.1-0.6-0.1-0.9c0-0.4,0-0.8,0-1.1C264.4,594,264.5,593.8,264.5,593.5z M268.4,595.6
			C268.4,595.6,268.4,595.6,268.4,595.6c-0.2,0.4-0.6,0.9-1,0.9c-0.1,0-0.4,0-0.5-0.1c-0.3-0.3-0.1-1.1,0.3-1.3
			c0.3-0.1,0.4-0.3,0.3-0.6c-0.2-0.5-0.3-1.1-0.5-1.6c-0.1-0.2-0.1-0.4-0.3-0.2c-0.3,0.2-0.6,0.5-0.7,0.8c-0.3,0.7-0.1,1.4,0.1,2.1
			c0.1,0.5,0.2,0.5-0.3,0.7c-0.1,0.1-0.3,0.2-0.3,0.4c0,0.2,0,0.5,0,0.8c0,0.2,0.2,0.2,0.3,0.1c0.1-0.1,0.2-0.2,0.2-0.2
			c0.2-0.2,0.5-0.1,0.6,0.2c0.2,0.5,0.5,1,1,1.3c0.4,0.2,1,0.2,1.2-0.2c0.6-0.8,0.5-1.7,0.5-2.6c0,0,0-0.1-0.1-0.1
			c-0.2-0.2-0.2-0.5-0.1-0.8c0-0.1,0-0.2,0-0.4c0-0.2,0.3-1,0.5-1.1c0,0,0.1,0,0.1,0c0.2,0.1,0.5,0.2,0.6,0.3
			c0.1,0.1-0.1,0.4-0.1,0.6c0,0.1-0.1,0.2-0.2,0.3c-0.2,0.2-0.2,0.5,0,0.7c0.1,0.2,0.1,0.4,0.2,0.6c0.1,0.2,0.1,0.5,0.3,0.7
			c0,0.1,0.4,0.1,0.4,0c0.3-0.6,0.5-1.2,0.3-1.8c-0.2-0.4-0.2-0.7,0.2-1c0.2-0.1,0.3-0.4,0-0.5c-0.7-0.4-1.1-1-1.6-1.6
			c-0.2-0.2-0.4-0.3-0.6-0.2c-0.3,0.1-0.8,0.1-1,0.6c0,0,0,0,0,0c-0.1,0.4-0.1,0.8-0.2,1.2c0,0.3,0,0.5,0,0.8
			C268.3,594.6,268.4,595.1,268.4,595.6z"/>
		<path id="XMLID_149_" class="st35" d="M259,557.4c0.5,0.1,1,0.2,1.4,0.7c0,0.1,0.2,0.1,0.2,0.2c0.9,0.2,1.3,1,1.8,1.7
			c0.2,0.2,0.3,0.6,0.4,0.9c0.1,0.3,0.2,0.7,0.3,1c0,0.1,0,0.1,0,0.2c-0.1,0.5-0.3,1.1-0.4,1.6c-0.1,0.2-0.2,0.4-0.4,0.5
			c-0.1,0.1-0.2,0.1-0.2,0.2c-0.2,0.5-0.6,0.8-1,1.1c-0.6,0.5-1.2,0.6-1.9,0.5c-0.2,0-0.4-0.1-0.6-0.1c-0.7-0.2-1.4-0.3-2.1-0.6
			c-0.5-0.3-0.9-0.8-1.4-1.2c0,0-0.1-0.1-0.1-0.1c-0.8-0.5-1-1.4-1.5-2.1c-0.2-0.3-0.2-0.8-0.3-1.2c0-0.3-0.1-0.5,0-0.8
			c0.1-0.6,0.2-1.2,0.6-1.6c0.3-0.4,0.7-0.7,1.3-0.8c0.4-0.1,0.9-0.3,1.4-0.3c0.3,0,0.6-0.2,0.9-0.1
			C257.8,557.1,258.4,557.3,259,557.4z M258.4,564.6c0.1,0,0.3,0,0.5,0c0.5,0,1-0.7,0.9-1.1c-0.2-0.7-0.4-1.4-0.7-2.1
			c-0.2-0.5-0.2-1,0.3-1.2c0.3-0.2,0.5,0,0.7,0.3c0.2,0.2,0.3,0.4,0,0.6c-0.2,0.1-0.2,0.3,0,0.5c0.3,0.3,0.5,0.7,0.8,1
			c0.1,0.1,0.3,0.3,0.4,0.3c0.1,0,0.3-0.2,0.3-0.4c0.3-0.7-0.1-1.2-0.4-1.7c-0.1-0.2-0.2-0.4,0.1-0.5c0.1,0,0.2-0.2,0.2-0.3
			c0-0.1-0.2-0.2-0.3-0.2c0,0-0.1,0-0.2,0c-0.5,0-1-0.1-1.2-0.6c0-0.1-0.1-0.1-0.2-0.2c-0.3-0.2-0.7-0.4-1-0.5
			c-0.6-0.3-1.3,0.1-1.3,0.8c-0.1,0.8,0.3,1.4,0.5,2.1c0.2,0.6,0.2,0.8-0.3,1.1c-0.2,0.1-0.5,0.3-0.7,0.3c-0.2-0.1-0.3-0.4-0.4-0.6
			c-0.2-0.3-0.1-0.4,0.2-0.5c0.4-0.1,0.4-0.3,0.2-0.6c-0.2-0.4-0.5-0.7-0.8-1c-0.1-0.1-0.2-0.3-0.4-0.3c-0.1,0-0.4,0-0.5,0.1
			c-0.3,0.2-0.4,0.5-0.3,0.9c0.1,0.4,0.3,0.8,0.5,1.2c0.2,0.3,0.2,0.5-0.1,0.7c-0.3,0.2-0.4,0.5-0.2,0.8c0.2,0.3,0.6,0.3,0.9,0.1
			c0.2-0.2,0.4-0.2,0.6,0.1c0.1,0.2,0.4,0.3,0.5,0.4c0.1,0.1,0.2,0.1,0.3,0.2C257.6,564.3,257.9,564.5,258.4,564.6z"/>
		<path id="XMLID_3_" class="st35" d="M261.5,586.9c-0.1-0.2-0.1-0.3-0.1-0.4c0-0.1,0.1-0.1,0.2-0.2c0.1,0.1,0.1,0.2,0.2,0.3
			C261.7,586.7,261.6,586.8,261.5,586.9z"/>
		<path id="XMLID_2_" class="st35" d="M264.7,605.1c0.2-0.1,0.3-0.1,0.3-0.1c0.1,0,0.1,0.2,0.1,0.2c-0.1,0.1-0.2,0.1-0.2,0.1
			C264.9,605.3,264.8,605.2,264.7,605.1z"/>
		<path id="XMLID_1_" class="st35" d="M261.6,579.7c-0.1,0-0.2,0.1-0.3,0.1c0,0-0.1-0.1-0.1-0.2c0.1-0.1,0.1-0.1,0.2-0.1
			c0.1,0,0.1,0.1,0.2,0.1C261.7,579.6,261.7,579.7,261.6,579.7z"/>
	</g>
</g>
</svg>
