<?xml version="1.0" encoding="utf-8"?>
<!-- Generator: Adobe Illustrator 19.0.0, SVG Export Plug-In . SVG Version: 6.00 Build 0)  -->
<svg version="1.1" id="Layer_1" xmlns="http://www.w3.org/2000/svg" xmlns:xlink="http://www.w3.org/1999/xlink" x="0px" y="0px"
	 viewBox="0 0 612 792" style="enable-background:new 0 0 612 792;" xml:space="preserve">
<style type="text/css">
	.st0{opacity:0.58;}
	.st1{clip-path:url(#SVGID_2_);fill:#B6CDD3;}
	.st2{fill:#FAAA43;}
	.st3{fill:#F8FCFF;}
	.st4{fill:#F7AD96;}
	.st5{fill:#ED6849;}
	.st6{clip-path:url(#SVGID_4_);fill:#E1573F;}
	.st7{fill:#E53F34;}
	.st8{fill:#B4BD74;}
	.st9{clip-path:url(#SVGID_6_);fill:#7C7730;}
	.st10{fill:#7C7730;}
	.st11{fill:#4B1E12;}
	.st12{fill:#93425D;}
	.st13{clip-path:url(#SVGID_8_);fill:#762B48;}
	.st14{fill:#F58A68;}
	.st15{fill:#1D5478;}
	.st16{clip-path:url(#SVGID_10_);fill:#123F57;}
	.st17{clip-path:url(#SVGID_10_);fill:#FFFFFF;}
	.st18{fill:#0D1D3B;}
	.st19{clip-path:url(#SVGID_12_);fill:#0D1420;}
	.st20{clip-path:url(#SVGID_14_);fill:#E4512C;}
	.st21{fill:#E4512C;}
	.st22{fill:#010101;}
	.st23{fill:#F2CEC7;}
	.st24{clip-path:url(#SVGID_16_);fill:#E4512C;}
	.st25{fill:#FBC2B1;}
	.st26{clip-path:url(#SVGID_18_);fill:#F7B0A0;}
	.st27{opacity:0.68;clip-path:url(#SVGID_20_);}
	.st28{clip-path:url(#SVGID_22_);fill:#EA927E;}
	.st29{fill:#DECDC6;}
	.st30{fill:#F3E7E2;}
	.st31{clip-path:url(#SVGID_24_);fill:#FFFFFF;}
	.st32{clip-path:url(#SVGID_26_);fill:#0D1420;}
	.st33{clip-path:url(#SVGID_28_);fill:#E4512C;}
	.st34{fill:#C92041;}
	.st35{clip-path:url(#SVGID_30_);fill:#AE1E39;}
	.st36{clip-path:url(#SVGID_32_);fill:#AE1E39;}
	.st37{fill:#E2E2E2;}
	.st38{clip-path:url(#SVGID_34_);fill:#BCBCBC;}
	.st39{clip-path:url(#SVGID_36_);fill:#E4512C;}
	.st40{fill:#83C1BB;}
	.st41{clip-path:url(#SVGID_38_);fill:#164661;}
	.st42{fill:#F16C4D;}
	.st43{clip-path:url(#SVGID_40_);fill:#6BABA2;}
	.st44{clip-path:url(#SVGID_42_);fill:#0D1420;}
	.st45{clip-path:url(#SVGID_44_);fill:#E4512C;}
	.st46{fill:#113F54;}
	.st47{fill:#154A67;}
</style>
<g>
	<g class="st0">
		<g>
			<defs>
				<rect id="SVGID_1_" x="-77.6" y="880.1" width="963.9" height="138.1"/>
			</defs>
			<clipPath id="SVGID_2_">
				<use xlink:href="#SVGID_1_"  style="overflow:visible;"/>
			</clipPath>
			<path class="st1" d="M404.4,880.1c-266.2,0-482,30.9-482,69.1c0,38.1,215.8,69.1,482,69.1c266.2,0,482-30.9,482-69.1
				C886.4,911,670.6,880.1,404.4,880.1"/>
		</g>
	</g>
	<rect x="353.9" y="-224.3" class="st2" width="167.6" height="214.9"/>
	<rect x="365.8" y="-209.1" class="st3" width="144" height="184.6"/>
	<rect x="581" y="-100.4" class="st4" width="97.2" height="124.6"/>
	<rect x="587.9" y="-91.7" class="st3" width="83.5" height="107.1"/>
	<polygon class="st5" points="44.2,877.1 71,770.4 -61.2,774.1 -32,877.1 	"/>
	<g>
		<defs>
			<polygon id="SVGID_3_" points="-61.2,774.1 -32,877.1 44.2,877.1 71,770.4 			"/>
		</defs>
		<clipPath id="SVGID_4_">
			<use xlink:href="#SVGID_3_"  style="overflow:visible;"/>
		</clipPath>
		<path class="st6" d="M17.9,829.6c-44.1,14-68.4,52.5-68.4,52.5l69.1,5.6l62.3-10.7l18.9-112.2L59,761C59,761,62,815.6,17.9,829.6"
			/>
	</g>
	<path class="st7" d="M-64.1,764.9c0,17.7,30.6,32.1,68.4,32.1c37.8,0,68.4-14.4,68.4-32.1c0-17.7-30.6-32.1-68.4-32.1
		C-33.5,732.8-64.1,747.1-64.1,764.9L-64.1,764.9z"/>
	<path class="st8" d="M30.9,786.5l20.8-45.2C40.2,753.6,32.9,769.7,30.9,786.5L30.9,786.5z"/>
	<path class="st8" d="M60.6,733.1c1.6-1.3,3.3-2.4,5-3.6c-4.1,1.2-7.9,3.1-11.3,6l-2.7,5.8C54.4,738.3,57.4,735.6,60.6,733.1
		L60.6,733.1z"/>
	<path class="st8" d="M105.4,736.5c15.7,9.2,28.1,23.1,43.6,32.7c11.8,7.3,25.1,11.9,38.6,15c18.6,4.2,37.8,5.6,56.7,3.8
		c-22.2,1-43.7-12.4-61.2-27c-19.6-16.3-38.7-35.4-63.5-41.2c-18.3-4.3-38.3-0.4-54.1,9.8C78.4,725.9,93.6,729.5,105.4,736.5
		L105.4,736.5z"/>
	<path class="st8" d="M-126.4,719.7c-24.8,5.8-43.9,24.9-63.5,41.2c-17.5,14.6-39,28-61.2,27c18.9,1.9,38.2,0.4,56.7-3.8
		c13.5-3.1,26.8-7.7,38.6-15c15.5-9.6,27.9-23.5,43.6-32.7c15.7-9.2,33.7-12.7,47.6-1l26.9,51c-2.5-20.7-13.2-40.6-29.7-53.4
		C-83.8,720.3-106,714.9-126.4,719.7L-126.4,719.7z"/>
	<g>
		<defs>
			<path id="SVGID_5_" d="M-126.4,719.7c-24.8,5.8-43.9,24.9-63.5,41.2c-19.6,16.3-47.7,30.7-69.1,26c10.8,4,43.5,2,64.7-2.8
				c13.5-3.1,26.8-7.7,38.6-15c15.5-9.6,27.9-23.5,43.6-32.7c15.7-9.2,33.7-12.7,47.6-1l26.9,51c-2.5-20.7-13.2-40.6-29.7-53.4
				c-12.5-9.7-28.3-15.1-44.1-15.1C-116.4,718-121.4,718.5-126.4,719.7"/>
		</defs>
		<clipPath id="SVGID_6_">
			<use xlink:href="#SVGID_5_"  style="overflow:visible;"/>
		</clipPath>
		<path class="st9" d="M-266.5,787.9c-2.1-0.9-4.3-1.7-6.4-2.6l-16.7-7C-282.4,782.9-274.6,786.1-266.5,787.9"/>
		<path class="st9" d="M-83.3,724.7c-5.2-3.4-11.2-6-17.5-6c-9.8-0.1-18.5,5.8-26.3,11.7c-24.2,18.1-47.6,38.1-75.4,50
			c-20,8.5-43.1,12.3-64,7.5c9.9,4,20.1,7.4,30.3,10.4c21.1,6,44.9,9.4,63.9-1.4c10.6-6.1,18.5-16,28.4-23
			c5.4-3.8,11.4-6.8,17.6-8.8c4.7-1.5,9.6-2.4,14.4-1.5c10,1.9,16.8,10.9,23.6,18.5c6.9,7.6,17,14.6,26.6,11.1
			c7.2-2.7,11.2-11,11-18.7c-0.2-7.7-3.7-14.9-7.6-21.6C-64.6,741.9-72.7,731.7-83.3,724.7"/>
	</g>
	<path class="st10" d="M76.6,649.7c-21.7,31.9-37.2,67.8-45.5,105.4c-2.3,10.6-4.1,21.4-5.3,32.2c-0.1,1,1.5,1,1.6,0
		c4.2-38.1,15.7-75.3,33.7-109.1c5.1-9.5,10.7-18.8,16.8-27.7C78.6,649.6,77.1,648.8,76.6,649.7L76.6,649.7z"/>
	<path class="st10" d="M64.3,629.2c-8.8,18.3-12,38.7-15.2,58.7l3.8,3.7c18.4-14.1,37.6-27.3,57.4-39.4c6.7-4.1,13.6-8.2,18.4-14.4
		c4.8-6.2,7.1-15,3.5-22c-2.9-5.6-9-8.9-15.2-9.9c-6.2-1.1-12.5-0.2-18.7,0.7c-7.7,1.1-15.6,2.2-21.9,6.7
		C70.9,617.1,67.2,623.1,64.3,629.2L64.3,629.2z"/>
	<path class="st8" d="M117.3,636.5c10.4,13.4,26.4,21.6,43,25.1c16.6,3.4,33.8,2.4,50.6-0.3c-18.1-7.7-27.1-27.8-41.6-41.1
		c-16.8-15.4-49-21.2-70.8-14.6l-8,3.8C103.3,614.4,108.8,625.6,117.3,636.5L117.3,636.5z"/>
	<path class="st8" d="M-6.7,449.6c-11.9-5.7-22.5-14.2-30.8-24.5c-7.9-9.8-13.9-21.5-23.9-29.2c-2.5,12.9-0.9,26.2,1,39.2
		c5.7,39.5,13.6,78.7,22.9,117.6c2.8,11.7,5.9,23.8,13.4,33.3c7.5,9.4,25.3,29,36.5,24.4c17.9-24.6,36.3-54.3,38.8-84.6
		c1.6-19.7-1.3-41.5-15.6-55C24,459.8,7.5,456.5-6.7,449.6L-6.7,449.6z"/>
	<path class="st8" d="M-91.2,577.7c-28.9,2.8-49.2,30.5-76.9,39.4c11.9,4.6,23.9,9.2,34.7,16c15.1,9.4,27.6,22.8,43.4,30.9
		c15.8,8.1,37.6,9.2,49.3-4.2l0.7-1.9c3.7-19.9,4.4-41.8-6.6-58.8C-56,584.6-73.9,576-91.2,577.7L-91.2,577.7z"/>
	<path class="st10" d="M-25.7,790c2-46,3.5-96.5-25-135.6c-6.7-9.2-14.8-17.1-24.3-23.4c-0.9-0.6-1.7,0.8-0.8,1.4
		c38.1,25,48.7,72.9,49.5,115.5c0.2,14-0.4,28-1,42C-27.4,791.1-25.8,791.1-25.7,790L-25.7,790z"/>
	<path class="st10" d="M4.2,795.3c-0.1,1.1,1.5,1,1.6,0c3.5-39.1,7-78.2,8.1-117.5c0.6-19.8,0.6-39.5-0.3-59.3
		c-0.8-17.1-1.5-34.7-5.1-51.5c-3-14.1-9.2-28.7-22.8-35.5c-0.9-0.5-1.8,0.9-0.8,1.4c12.6,6.2,18.6,19.5,21.6,32.6
		c3.9,16.5,4.5,33.9,5.4,50.7c1.9,38.1,0.4,76.3-2.3,114.3C8,752.2,6.1,773.7,4.2,795.3L4.2,795.3z"/>
	<path class="st11" d="M43.3,858.9c0,0,15,25.1-25.1,37.3c-40.1,12.2-48.7,8.6-47.3,28.7c1.4,20.1,34.4,11.7,72.4,9.5
		c38-2.3,54.4,2,63-12.3c8.6-14.3,0-47.3,0-47.3L43.3,858.9z"/>
	<path class="st12" d="M212.8,389.4H43.6c0,0-12.2,160.2-11.3,224c1.6,111.1,11.3,233.7,11.3,233.7s-4.7,6,0,21.8
		c25.5-5.8,69.2,18.3,69.2,18.3s7.2-10.6,0-24.1c3.2-29.9,0-43.6,0-43.6s2.9-230.9,14.4-283.9c11.5-53,37.3,134.3,37.3,134.3
		L232.8,852l72.8-92.5l-50.5-218.2L212.8,389.4z"/>
	<path class="st12" d="M212.8,389.4H43.6c0,0-12.2,160.2-11.3,224c1.6,111.1,11.3,233.7,11.3,233.7s-4.7,6,0,21.8
		c25.5-5.8,69.2,18.3,69.2,18.3s7.2-10.6,0-24.1c3.2-29.9,0-43.6,0-43.6s2.9-230.9,14.4-283.9c11.5-53,37.3,134.3,37.3,134.3
		L232.8,852l72.8-92.5l-50.5-218.2L212.8,389.4z"/>
	<g>
		<defs>
			<path id="SVGID_7_" d="M43.6,389.4c0,0-12.2,160.2-11.3,224c1.6,111.1,11.3,233.7,11.3,233.7s-4.7,6,0,21.8
				c25.5-5.8,69.2,18.3,69.2,18.3s7.2-10.6,0-24.1c3.2-29.9,0-43.6,0-43.6s2.9-230.9,14.4-283.9c11.5-53,37.3,134.3,37.3,134.3
				L232.8,852l72.8-92.5l-50.5-218.2l-42.3-151.9H43.6z"/>
		</defs>
		<clipPath id="SVGID_8_">
			<use xlink:href="#SVGID_7_"  style="overflow:visible;"/>
		</clipPath>
		<path class="st13" d="M122.4,478.9c-22.5,30.8-1.1,88.8-21.5,129.6c-20.4,40.8-59.9,56-28.4,63.5c31.6,7.5,4.5,12.8,4.5,12.8
			s29.7,0.9,21.4,26.8c-8.3,25.9-20,22.9-8.2,54c11.7,31,31.4,95.5-6.4,93.3c-37.8-2.1-33.1-27.5-53.2-4.3
			c-20,23.2,21.1,43.8,21.1,43.8l89.6,29.3l27.5-73.1l59.4,30.2l23.8-43.1c0,0-67.4-145.4-72.8-192.5
			C174,602.1,145,448.1,122.4,478.9"/>
	</g>
	<polygon class="st14" points="272.9,260.6 299.8,285.7 347.8,258.4 307.5,220.4 	"/>
	<path class="st15" d="M301.2,190c-11.5-23.9-51.6-109.8-83.1-119.1c-31.5-9.3-89.3-32.2-114.8-10.7c0,0-45.6,1.4-74.3,15.8
		C0.3,90.2-38.4,220.4-35.5,236.6c2.9,16.3-0.1,39.4-0.1,39.4l34.5,49.9c0,0,18.6,0,20.1-16.5c4.9-12.9,4.9-19.3,4.9-19.3l10-47.1
		c0,0-0.9,120.2,0,140.9c-3.4,18.6,0,24.4,0,24.4s157.8,24.4,185.7-6.4c5-132.5,10.7-182.9,10.7-182.9s12.9,28.3,25.1,34.3
		c5,12.1,21.5,17.4,21.5,17.4s44.4-21.4,45.8-49C309.8,207.9,314.1,195.3,301.2,190L301.2,190z"/>
	<g>
		<defs>
			<path id="SVGID_9_" d="M103.3,60.2c0,0-45.6,1.4-74.3,15.8C0.3,90.2-38.4,220.4-35.5,236.6c2.9,16.3-0.2,39.4-0.2,39.4l34.5,49.9
				c0,0,18.6,0,20.1-16.5c4.9-12.9,4.9-19.3,4.9-19.3l10-47.1c0,0-0.9,120.2,0,140.9c-3.4,18.6,0,24.4,0,24.4s157.8,24.4,185.7-6.4
				c5-132.5,10.7-182.9,10.7-182.9s12.9,28.3,25.1,34.3c5,12.1,21.5,17.4,21.5,17.4s44.4-21.4,45.8-49
				c-12.9-13.8-8.6-26.4-21.5-31.7c-11.5-23.9-51.6-109.8-83.1-119.1c-22-6.5-56.9-19.7-84.6-19.7C121.6,51.2,111,53.7,103.3,60.2"
				/>
		</defs>
		<clipPath id="SVGID_10_">
			<use xlink:href="#SVGID_9_"  style="overflow:visible;"/>
		</clipPath>
		<path class="st16" d="M238.2,376.1c-3.1-1.6-6.9-0.4-10.2,1c-21.6,9.1-43,21.4-66.4,21.4c-27.7-0.1-53.3-17.7-80.9-16.3
			c-4.3,0.2-8.8,0.9-12.7-0.7c-4-1.6-7-6.5-4.9-10.2c1.6-2.8,5.3-3.6,8.3-4.8c3-1.2,6.1-4.3,4.8-7.3c-1-2.1-3.6-2.8-5.8-3.6
			c-7.2-2.8-11.7-10.2-13.4-17.7c-1.7-7.5-1.1-15.3-1.2-23c-0.2-22.1-5.7-43.8-9.4-65.7c-5.2-31.3-6.4-63.2-7.6-94.9
			c-4.6,24.5-9.2,48.9-13.9,73.4c-0.7,3.8-1.5,7.8-4.1,10.7c-2.6,2.9-7.5,4.2-10.3,1.5c2.7,15.6,3,31.7,0.9,47.4
			c-8.4-13.5-20.9-24.5-35.4-31.2c4.2-4.2,8.4-8.5,12.6-12.7c-4.6-2.8-8.4-7.1-10.5-12.1c7.8,1.1,15.7,1.3,23.6,0.6
			c-6.4-14.2-18.6-25.7-33.1-31.3l-5.2-5.5c-16.7,29.7-31.2,62.2-30.6,96.2c0.7,34.1,20.5,69.8,53.3,79.1c4.5,1.3,9.8,2.6,11.6,6.9
			c0.7,1.8,0.7,3.8,0.8,5.8c0.6,17.6,12.1,33.5,26.9,43c14.8,9.5,32.5,13.5,50,15.6c34.2,4,68.9,1.3,103.1-3.3
			c16.1-2.2,32.8-5,46.2-14.1c13.5-9.1,22.8-26.3,17.9-41.8C241.9,379.9,240.6,377.3,238.2,376.1"/>
		<path class="st16" d="M314.4,189.3c-2.1-0.3-4.5-0.2-6,1.3c-1.8,1.9-1.3,4.9-1,7.5c2,17.5-10.7,32.9-22.7,45.9
			c-1.7,1.9-4,4-6.5,3.3c-3.6-1-3.4-6.1-2.1-9.5c1.3-3.5,2.6-8-0.3-10.3c-3.4,0.7-6.6-2.8-6.9-6.3c-0.3-3.5,1.3-6.8,2.8-10
			c-2.8,4.1-8.8,5-13.4,3.1c-4.6-1.8-8.1-5.6-11.2-9.5c-9.1-11.4-16.6-24.1-22-37.7c1.4,22.4,2.2,44.9,2.4,67.4l7.8,1.1
			c8.5,16.8,20.3,31.9,34.5,44.1c4.7,4,9.9,7.9,16,8.6c4.7,0.6,9.5-0.7,14-2.3c14.1-5.1,27.3-13.5,36.2-25.5
			c8.9-12.1,13.1-28,9.3-42.4C341.6,203.6,329.2,191.2,314.4,189.3"/>
		<path class="st17" d="M171.6,42.4c-26.4-0.9-52.9,0-79.2,2.7L66.7,59.8c14,21.8,29,49,44.8,69.5c2.6,3.4,5.7,7.1,10,7.7
			c5.5,0.8,10.3-3.8,13.8-8.1c18.8-22.5,34.4-47.5,46.5-74.2c0.9-1.9,1.8-4,1.4-6.1C182.5,43.8,176.4,42.6,171.6,42.4"/>
	</g>
	<path class="st18" d="M145.4-89.8c0,0-4.3-47.5-44.2-30.7c-16.1,6.3-21.6-17.9-21.6-17.9l-10.7,13.6l-6.9-3.8
		c0,0-70.6,61.3-19.9,75.3c50.7,14,91.1,3.5,91.1,3.5l5.1,44.5c0,0,23.7,2.8,33-23.6C180.7-55.4,172.4-96.7,145.4-89.8L145.4-89.8z"
		/>
	<g>
		<defs>
			<path id="SVGID_11_" d="M68.9-124.8l-6.9-3.8c0,0-70.6,61.3-19.9,75.3c50.7,14,91.1,3.5,91.1,3.5l5.1,44.5c0,0,23.7,2.8,33-23.6
				c9.3-26.4,1.1-67.6-25.9-60.8c0,0-4.3-47.5-44.2-30.7c-16.1,6.3-21.6-17.8-21.6-17.8L68.9-124.8z"/>
		</defs>
		<clipPath id="SVGID_12_">
			<use xlink:href="#SVGID_11_"  style="overflow:visible;"/>
		</clipPath>
		<path class="st19" d="M137.2-67.2c0,0-4.3-47.5-44.2-30.7c-16.1,6.3-21.6-17.9-21.6-17.9l-10.7,13.6l-6.9-3.8
			c0,0-70.6,61.3-19.9,75.3c50.7,14,91.1,3.5,91.1,3.5l5.1,44.5c0,0,23.7,2.8,33-23.6C172.5-32.9,164.2-74.1,137.2-67.2"/>
	</g>
	<path class="st14" d="M105.2,40.3L105.2,40.3C106.4,39.8,105.2,40.3,105.2,40.3L105.2,40.3z"/>
	<path class="st14" d="M146.1,13.9c0,0,16.4-10,14.8-24.8c-1.6-14.8-19.1-7.6-19.1-7.6l-0.1-50.2c0,0-36,5-33.9-14.8
		C85-66.8,71.7-82.6,71.7-82.6S57.1-64.3,40.4-64c0,0,6.3,37.5,8.9,63.9c2.6,26.4,16,49.1,39.1,45.8c5.7-0.8,10.4-2.4,14-4
		c1.4-0.6,2.3-1,2.8-1.3l0-0.1c0,0,1.2-0.5,0,0.1l-1.9,16.1l-19.1,5.7c0,0,8.6,5.3,40.4,34.9c37.6-31.7,46.9-40.1,46.9-40.1l-20-7.2
		L146.1,13.9z"/>
	<g>
		<defs>
			<path id="SVGID_13_" d="M71.7-82.6c0,0-14.6,18.4-31.3,18.6c0,0,6.3,37.5,8.9,63.9c2.6,26.4,16,49.1,39.1,45.8
				c5.7-0.8,10.4-2.4,14-4c1.4-0.6,2.3-1,2.8-1.3l-1.9,16.1l-19.1,5.7c0,0,8.6,5.3,40.4,34.9c37.6-31.7,46.9-40.1,46.9-40.1l-20-7.2
				l-5.4-35.9c0,0,16.4-10,14.8-24.8c-1.6-14.8-19.1-7.6-19.1-7.6l-0.1-50.2c0,0-36,5-33.9-14.8C85-66.8,71.7-82.6,71.7-82.6"/>
		</defs>
		<clipPath id="SVGID_14_">
			<use xlink:href="#SVGID_13_"  style="overflow:visible;"/>
		</clipPath>
		<path class="st20" d="M145.9-77c-1-0.7-2.4-0.9-3.6-1.1c-10.2-1.7-19.6-6.8-29.8-8.8c-5.8-1.2-11.6-1.4-17.5-1.5
			c-10.6-0.3-21.5-0.6-31.6,2.8c-10,3.4-18.7,10.6-24,19.8l-0.6,3.6c11.4,5.2,26.3,0.4,32.5-10.5c10,7.4,24.8,7.4,34.9,0.1
			c2.8,5.8,8.2,10.3,14.4,12.2c6.2,1.8,13.1,0.9,18.7-2.4c0.9,14.4,1.8,28.9,5.1,42.9c2.6-16.7,3.9-33.5,3.8-50.4
			C148.1-72.8,147.9-75.6,145.9-77"/>
		<path class="st20" d="M148.2-11.2c-3.1,1.3-4.5,4.8-5.6,7.9l-0.4,3.8c2.6,0.4,5.4-0.2,7.5-1.7c0.4-0.2,0.7-0.5,0.9-0.9
			c0.7-1.4-0.9-2.7-2.3-3.4c1.1-0.4,2.3-0.8,3.2-1.7c0.9-0.8,1.3-2.2,0.7-3.3C151.5-11.7,149.5-11.8,148.2-11.2"/>
		<path class="st20" d="M130.3,23.8c-1.1-0.1-2.2,0.5-3.1,1.1c-10.5,6.7-24.5,20.5-31.6,19.6l7.2,0.9c-1.2,1.3-1.6,3.3-1,5
			c0.6,1.7,2.1,3,3.9,3.4c1.9,0.4,3.7-0.3,5.5-1.1c9.2-4.2,16.8-11.8,21.1-20.9c0.7-1.4,1.3-3,1.1-4.6C133,25.6,131.9,24,130.3,23.8
			"/>
	</g>
	<path class="st21" d="M69.7-4.3c0,0,0.1,0,0.3,0C69.8-4.9,69.8-5.1,69.7-4.3L69.7-4.3z"/>
	<path class="st21" d="M70-4.3c0.5,1.6,2.6,6.1,11.4,5.1C99.8-1.3,72.9-4,70-4.3L70-4.3z"/>
	<path class="st22" d="M118.2-46.9c-7.3-4.6-13.4-6.3-18.3-4.9c-5,1.4-7.1,5.6-8,7.2c-0.1,0.1-0.1,0.2-0.2,0.3
		c-0.3,0.5-0.1,1.2,0.5,1.5c0.2,0.1,0.3,0.1,0.5,0.1c0.4,0,0.8-0.2,1-0.6c0.1-0.1,0.1-0.2,0.2-0.4c0.7-1.5,2.5-5,6.6-6.1
		c4.2-1.2,9.8,0.4,16.5,4.7c0.5,0.3,1.2,0.2,1.5-0.3C118.8-45.9,118.7-46.5,118.2-46.9L118.2-46.9z"/>
	<path class="st22" d="M69.5-41.9c-0.2,0-0.7-0.1-1.2-0.2C64.8-43,56.4-45,51-37.6c-0.4,0.5-0.3,1.2,0.2,1.5
		c0.2,0.1,0.4,0.2,0.6,0.2c0.3,0,0.7-0.2,0.9-0.4c4.6-6.2,11.7-4.5,15.1-3.7c0.6,0.1,1.1,0.3,1.4,0.3c0.6,0.1,1.1-0.4,1.2-1
		C70.6-41.3,70.1-41.8,69.5-41.9L69.5-41.9z"/>
	<path d="M101.6-36c-2.6,0.6-4,4.2-3,8.1c0.9,3.9,3.8,6.5,6.4,5.9c2.6-0.6,4-4.2,3-8.1C107-34,104.2-36.7,101.6-36L101.6-36z"/>
	<path d="M61.2-29.3c-2.6,0.6-4,4.2-3,8.1c0.9,3.9,3.8,6.5,6.4,5.9c2.6-0.6,4-4.2,3-8.1C66.6-27.3,63.8-30,61.2-29.3L61.2-29.3z"/>
	<path class="st21" d="M114.6-16.5c-7.8,1.8-13.5,5.9-12.8,9.1c0.7,3.2,7.7,4.2,15.5,2.4c7.8-1.8,13.5-5.9,12.8-9.1
		C129.4-17.3,122.4-18.4,114.6-16.5L114.6-16.5z"/>
	<path class="st21" d="M79,22.3c1.9,1.9,4.7,3.6,8.8,4.2c4.3,0.7,7-1.2,8.7-3.7c2.7-4.1,2.9-9.9,2.9-9.9l-24.3,2.5
		C75.2,15.4,75.7,19.1,79,22.3L79,22.3z"/>
	<path class="st23" d="M79,22.3c1.9,1.9,4.7,3.6,8.8,4.2c4.3,0.7,7-1.2,8.7-3.7c-2.2-1.5-5.5-2.4-9.2-2.4
		C84.1,20.4,81.1,21.1,79,22.3L79,22.3z"/>
	<path class="st14" d="M-24,122.2c7.5-15.6,3.8-26.3-10.2-29c0-10.2-14.5-24.7-27.9-11.8c0,0-9.1-3.2-21,14c-14.5,9.1,0,57.5,0,57.5
		s14.5,115,21,140.2c6.4,25.3,33.8,59.6,63.3,36c29.5-23.6-52-176.2-52-176.2S-31.5,137.8-24,122.2L-24,122.2z"/>
	<g>
		<defs>
			<path id="SVGID_15_" d="M-62.1,81.4c0,0-9.1-3.2-21,14c-14.5,9.1,0,57.5,0,57.5s14.5,115,21,140.2c6.4,25.3,33.8,59.6,63.3,36
				c29.5-23.6-52-176.2-52-176.2s19.3-15,26.9-30.6c7.5-15.6,3.8-26.3-10.2-29c0-7.3-7.5-16.9-16.7-16.9
				C-54.5,76.3-58.4,77.8-62.1,81.4"/>
		</defs>
		<clipPath id="SVGID_16_">
			<use xlink:href="#SVGID_15_"  style="overflow:visible;"/>
		</clipPath>
		<path class="st24" d="M-11.8,183.5c-2.9-5.2-6-10.4-10.7-14c-3.7-2.8-8.1-4.5-12-7.1c-3.9-2.6-7.4-6.5-7.4-11.1l-7.5,1.2
			c-3.2,1.4-6.3,2.7-9.5,4.1c12.6,15.9,14.8,37.5,23.6,55.7c3.8,7.9,8.9,15.2,13.3,22.8c7,12,12.6,24.8,16.6,38.1
			c3.8,12.7,6.2,26.6,1.8,39.2C-8,325-20.9,335.4-34,333c-6-1.1-11.6-4.7-17.6-3.8c-0.6,0.1-1.2,0.2-1.6,0.6c-1,1-0.2,2.8,0.8,3.9
			c7.3,8.8,17.1,15.6,28.2,18.2c11.1,2.5,23.4,0.4,32.3-6.8C15.6,339,20.1,329.6,22,320c1.9-9.6,1.3-19.5,0.3-29.2
			C18.3,253.3,6.6,216.5-11.8,183.5"/>
	</g>
	<path class="st21" d="M-63.9,109.4c-0.9-4.9-6.4-6.7-9.9-9.3c-0.8-0.6-1.7,0.8-0.8,1.4c2,1.5,4.4,2.5,6.4,4.2
		c1.1,0.9,2.1,2,2.5,3.4c0.6,2-0.5,5-3.2,4.5c1,0.2,1.9,0.5,2.7,1C-64.5,113.6-63.5,111.6-63.9,109.4L-63.9,109.4z"/>
	<path class="st21" d="M-69.3,115.2c0.1-0.5,0.3-1.1,0.4-1.6C-69.9,113.4-70.3,115-69.3,115.2L-69.3,115.2z"/>
	<path class="st21" d="M-66.2,114.6c-0.9,0.5-2,0.8-3.1,0.6c7.5,1.4,6.3,13.3,4.3,18.7c-1,2.8-3.5,7.4-6.8,7.9
		c-1,0.1-0.6,1.7,0.4,1.6c4.3-0.6,7.3-6.6,8.4-10.2C-61.4,127.7-60.7,118-66.2,114.6L-66.2,114.6z"/>
	<path class="st21" d="M-66.2,114.6c-0.8-0.5-1.7-0.8-2.7-1c-0.1,0.5-0.3,1.1-0.4,1.6C-68.1,115.4-67.1,115.2-66.2,114.6
		L-66.2,114.6z"/>
	<path class="st21" d="M-45.5,112.8c1.2-0.5,2.4-1.2,3.5-2C-43.1,111.2-44.3,111.9-45.5,112.8L-45.5,112.8z"/>
	<path class="st21" d="M-51.7,132.1c0.7,0.8,1.8-0.4,1.2-1.2c-2.8-3.3-1.4-8.2,0.6-11.5c1.2-2,2.7-3.6,4.5-5c-1.1,0.5-2.2,0.8-3.3,1
		C-53.3,120.1-56.1,126.9-51.7,132.1L-51.7,132.1z"/>
	<path class="st21" d="M-42,110.8C-42,110.8-42,110.8-42,110.8L-42,110.8z"/>
	<path class="st21" d="M-45.5,112.8c-0.3,0.1-0.6,0.3-1,0.4c-1,0.4-1.9,0.5-2.9,0.6c-1.2,0.4-1.9-0.2-1.9-1.7
		c-0.9-0.8-1-1.6-0.3-2.3c1.1-2.9,4.3-5.6,6.5-7.7c0.8-0.7-0.4-1.9-1.2-1.2c-2.2,2.1-4.2,4.3-6,6.8c-1.1,1.5-2.4,3.5-1.5,5.4
		c1,2.2,3,2.6,5.1,2.3C-47.7,114.5-46.6,113.5-45.5,112.8L-45.5,112.8z"/>
	<path class="st21" d="M-41.8,110.7c-0.1,0-0.1,0.1-0.2,0.1c0.2,0.5,0.4,1,0.6,1.5c-1.4,0.6-2.8,1.3-4,2.2c1.7-0.7,3.2-1.6,4.2-2.3
		C-40.4,111.7-40.8,110.3-41.8,110.7L-41.8,110.7z"/>
	<path class="st21" d="M-42,110.8L-42,110.8c-1.1,0.8-2.3,1.5-3.5,2c-1.1,0.8-2.2,1.7-3.2,2.7c1.1-0.2,2.2-0.5,3.3-1
		c1.2-0.9,2.6-1.6,4-2.2C-41.5,111.8-41.8,111.3-42,110.8L-42,110.8z"/>
	<path class="st21" d="M-61.6,93.4c2.4,4.2,2.4,9.1-0.1,13.2c-0.5,0.9,0.9,1.7,1.4,0.8c2.7-4.7,2.7-10.2,0.1-14.9
		C-60.8,91.6-62.2,92.4-61.6,93.4L-61.6,93.4z"/>
	<path class="st4" d="M232.2,263.8c-43.6,41.7,5,291.6,17.1,349.7c1.6,7.7,2.6,12.1,2.6,12.1l16.9,74.7l472.8-29.2
		c0,0,21.5-375.1-15.2-422.4C689.7,201.5,281.7,216.5,232.2,263.8L232.2,263.8z"/>
	<path class="st25" d="M693.1,536.8C679.5,618.4,681.7,665,681.7,665l-391.1,1.6l-6.4-46.5c0,0,20.5-181.1-117-162.8
		c-97.1,12.9-55.3,140.3-8.9,137.9c0,112.4-29.8,334.9,29.8,343.5c59.6,8.6,584,23.6,605.5-12.9c21.5-36.5-10.7-273.9,19.3-305.7
		c34.4,8,88.1-57.5,40.8-128.5C803.8,417,706.6,455.1,693.1,536.8L693.1,536.8z"/>
	<g>
		<defs>
			<path id="SVGID_17_" d="M693.1,536.8C679.5,618.4,681.7,665,681.7,665l-391.1,1.6l-6.4-46.5c0,0,20.5-181.1-117-162.8
				c-97.1,12.9-55.3,140.3-8.9,137.9c0,112.4-29.8,334.9,29.8,343.5c59.6,8.6,584,23.6,605.5-12.9c21.5-36.5-10.7-273.9,19.3-305.7
				c34.4,8,88.1-57.5,40.8-128.5c-18.6-27.9-43.8-40-68.9-40C742.8,451.6,701.6,485.6,693.1,536.8"/>
		</defs>
		<clipPath id="SVGID_18_">
			<use xlink:href="#SVGID_17_"  style="overflow:visible;"/>
		</clipPath>
		<path class="st26" d="M788,416.5c-4.4-0.4-9.3-0.2-11.2,5.8c-1.3,4.2,0.1,8.7,3.2,11.8c18.6,18.5,22.3,49.6,9.4,72.2
			c-7.7,13.5-21.1,26.1-18.7,41.5c0.8,5.3,3.5,10,4.7,15.2c3.7,15.6-6.2,30.8-12.5,45.5c-13.9,32.3-11.3,69.1-7.5,104.1
			c4.2,39.2,9.4,78.3,15.7,117.2c0.9,5.9,1.8,12.2-0.9,17.5c-1.7,3.3-4.7,5.7-7.8,7.8c-16.5,11.2-37,14.3-56.8,16.1
			c-33.7,3.1-67.7,3.3-101.6,3.5c-110.3,0.6-220.5,1.2-330.8,1.8c-11.2,0.1-24.3-0.8-30.7-9.9c17.3-13.4,37.1-23.6,58-30
			c5.4-1.7,6.7-8.8,2.1-12.1c-8.9-6.5-19.4-10.8-30.3-12.3c-16.5-2.2-37.4-0.2-45.2-14.8c-2.6-4.9-3-10.6-3.2-16.2
			c-1.7-34.2-3.4-68.3-5.1-102.5c-1.7-33.9-3.3-68.3,4.4-101.4c3.5-14.9,8.8-29.4,10.4-44.6c4.5-43.5-26.7-87.8-69.1-98.4l-1.4,1.8
			c-28,10.1-57.6,21.3-75.8,45c-19.3,25.1-21.5,59.6-16.4,90.9c5.2,31.3,16.8,61.1,22.6,92.2c11,58.4,1.1,118.6,5,177.9
			c1.7,25.9,6.4,52.6,21.5,73.8c20,28,54.6,41.5,88.2,48.6c40.7,8.6,82.5,10.2,124,11.8c115,4.3,230.2,8.7,345.3,4.4
			c26-1,52.4-2.4,77.1-10.5c24.7-8.1,48-23.7,60.2-46.7c12.5-23.7,11.8-51.8,10.8-78.6l-4.6-122.7c-0.7-19.8,0-43,15.8-54.9
			c5.2-3.9,11.6-6.1,17.1-9.7c14.4-9.5,20.7-27.1,25-43.7c10.3-40,13.6-83.3-0.7-122.1S829.2,419.9,788,416.5"/>
	</g>
	<g>
		<defs>
			<path id="SVGID_19_" d="M232.2,263.8c-43.6,41.7,5,291.6,17.1,349.7c1.6,7.7,2.5,12.1,2.5,12.1l16.9,74.7l472.8-29.2
				c0,0,21.5-375.1-15.2-422.4c-15.5-20-97.2-28.8-190.2-28.8C409,220,260.8,236.5,232.2,263.8"/>
		</defs>
		<clipPath id="SVGID_20_">
			<use xlink:href="#SVGID_19_"  style="overflow:visible;"/>
		</clipPath>
		<g class="st27">
			<g>
				<defs>
					<rect id="SVGID_21_" x="267.1" y="149.6" width="431.2" height="557.7"/>
				</defs>
				<clipPath id="SVGID_22_">
					<use xlink:href="#SVGID_21_"  style="overflow:visible;"/>
				</clipPath>
				<path class="st28" d="M653,467c-5.8-15-5.7-31.6-6.4-47.7c-2-44.6-40.6-79.8-50-123.4c-6.7-31.1,15.2-72-4.3-97.2
					c-19.9-25.6-50.9-41.1-82.9-46.5c-32-5.4-64.9-1.6-96.5,5.9l3.6,1.6c-26.3,43.1-32.1,98.1-15.5,145.8c8,23,21.2,46.8,14.6,70.3
					c-10.3,36.8-62.9,50.1-70.6,87.5c-1,4.9-1.2,10.1-3.5,14.6c-8.2,16.1-33,9.7-49.4,17.3c-17.9,8.3-22.2,31.4-23.4,51.1
					c-1.9,30.3-2.1,60.8-0.5,91.2c1.1,20.1,3.8,42.1,18.6,55.7c15.3,14.1,38.3,14.4,59.1,14c82.4-1.6,164.8-3.2,247.1-4.9
					c34.7-0.7,75.8-5,92.5-35.5c6.2-11.4,7.8-24.6,9.2-37.5c4.3-38.9,8-80.9-11.4-114.9C674.1,498.1,659.8,484.6,653,467"/>
			</g>
		</g>
	</g>
	<path class="st21" d="M366.9,839.7l-50.5-6.4c0,0,5.4,63.9,0,74.7c10.7,3.2,2.4,33.3,2.4,33.3l60.5-7c0,0-5.4-7.5-9.7-29.6
		C365.3,882.7,366.9,839.7,366.9,839.7L366.9,839.7z"/>
	<path class="st29" d="M332,920.3c-2.1-16.1-15.6-12.4-15.6-12.4s-4.8,7.5-26.9,15.6c-22,8.1-66.1,17.2-60.7,32.2
		c5.4,15,123.6-7,139.2-6.4c15.6,0.5,24.7-8.6,13.9-21C371,916,334.1,936.4,332,920.3L332,920.3z"/>
	<path class="st14" d="M411.5,842.5L361,836c0,0,5.4,63.9,0,74.7c10.7,3.2,2.4,33.3,2.4,33.3l60.5-7c0,0-5.4-7.5-9.7-29.6
		C409.9,885.4,411.5,842.5,411.5,842.5L411.5,842.5z"/>
	<path class="st30" d="M376.5,923.1c-2.1-16.1-15.6-12.4-15.6-12.4s-4.8,7.5-26.9,15.6c-22,8.1-66.1,17.2-60.7,32.2
		c5.4,15,123.6-7,139.2-6.4c15.6,0.5,24.7-8.6,13.9-21C415.6,918.8,378.7,939.2,376.5,923.1L376.5,923.1z"/>
	<path class="st2" d="M558.1,318.1h-66.5l-22.2,11.8c0,0-25.3,29.2-19.8,97.2c4.1,51.5,4.8,84.4,4.8,84.4s-26.4,64.5-52.7,73.6
		c-26.3,9.1-66.6,44.1-80.1,66.6c-13.4,22.6-54.8,108-55.3,153.1c-0.2,19.4-1.2,31.4-2.1,38.7c-0.8,5.7,3.9,10.7,9.7,10.3
		c31-2.3,111.4-7.2,140.2,1c36,10.2,60.2,11.8,61.8,0c1.6-11.8-8.6-126.3,27.9-142.9c36.5-16.7,92.9-68.2,83.8-106.9
		C578.6,566.3,558.1,318.1,558.1,318.1L558.1,318.1z"/>
	<g>
		<defs>
			<path id="SVGID_23_" d="M491.7,318.1l-22.2,11.8c0,0-25.3,29.2-19.8,97.2c4.1,51.5,4.8,84.4,4.8,84.4s-26.4,64.5-52.7,73.6
				c-26.3,9.1-66.6,44.1-80.1,66.6c-13.4,22.6-54.8,108-55.3,153.1c-0.2,19.4-1.2,31.4-2.1,38.7c-0.8,5.7,3.9,10.7,9.7,10.3
				c31-2.3,111.4-7.2,140.2,1c36,10.2,60.2,11.8,61.8,0c1.6-11.8-8.6-126.3,27.9-142.9c36.5-16.7,92.9-68.2,83.8-106.9
				c-9.1-38.7-29.6-286.9-29.6-286.9H491.7z"/>
		</defs>
		<clipPath id="SVGID_24_">
			<use xlink:href="#SVGID_23_"  style="overflow:visible;"/>
		</clipPath>
		<path class="st31" d="M463.8,349.2c-3.9-1.4-7.8-0.6-8.7,1.8c-0.9,2.4,1.6,5.5,5.5,6.9c3.9,1.4,7.8,0.6,8.7-1.8
			C470.2,353.7,467.7,350.6,463.8,349.2"/>
		<path class="st31" d="M475,353.2c-3.9-1.4-7.8-0.6-8.7,1.8c-0.9,2.4,1.6,5.5,5.5,6.9c3.9,1.4,7.8,0.6,8.7-1.8
			C481.4,357.7,478.9,354.6,475,353.2"/>
		<path class="st31" d="M472.4,342.3c-2.4-0.9-5.5,1.6-6.9,5.5c-1.4,3.9-0.6,7.8,1.8,8.7c2.4,0.9,5.5-1.6,6.9-5.5
			C475.6,347.1,474.8,343.2,472.4,342.3"/>
		<path class="st31" d="M468.4,353.4c-2.4-0.9-5.5,1.6-6.9,5.5c-1.4,3.9-0.6,7.8,1.8,8.7c2.4,0.9,5.5-1.6,6.9-5.5
			C471.6,358.1,470.8,354.2,468.4,353.4"/>
		<path class="st31" d="M526.7,384.1c-3.9-1.4-7.8-0.6-8.7,1.8c-0.9,2.4,1.6,5.5,5.5,6.9c3.9,1.4,7.8,0.6,8.7-1.8
			C533.1,388.6,530.6,385.5,526.7,384.1"/>
		<path class="st31" d="M537.9,388.1c-3.9-1.4-7.8-0.6-8.7,1.8c-0.9,2.4,1.6,5.5,5.5,6.9c3.9,1.4,7.8,0.6,8.7-1.8
			C544.3,392.6,541.8,389.6,537.9,388.1"/>
		<path class="st31" d="M535.3,377.3c-2.4-0.9-5.5,1.6-6.9,5.5c-1.4,3.9-0.6,7.8,1.8,8.7c2.4,0.9,5.5-1.6,6.9-5.5
			C538.5,382,537.7,378.1,535.3,377.3"/>
		<path class="st31" d="M531.4,388.3c-2.4-0.9-5.5,1.6-6.9,5.5c-1.4,3.9-0.6,7.8,1.8,8.7c2.4,0.9,5.5-1.6,6.9-5.5
			C534.5,393.1,533.8,389.2,531.4,388.3"/>
		<path class="st31" d="M477.5,414.8c-3.9-1.4-7.8-0.6-8.7,1.8c-0.9,2.4,1.6,5.5,5.5,6.9c3.9,1.4,7.8,0.6,8.7-1.8
			C483.9,419.3,481.4,416.2,477.5,414.8"/>
		<path class="st31" d="M488.7,418.8c-3.9-1.4-7.8-0.6-8.7,1.8c-0.9,2.4,1.6,5.5,5.5,6.9c3.9,1.4,7.8,0.6,8.7-1.8
			C495.1,423.3,492.6,420.2,488.7,418.8"/>
		<path class="st31" d="M486.1,407.9c-2.4-0.9-5.5,1.6-6.9,5.5c-1.4,3.9-0.6,7.8,1.8,8.7c2.4,0.9,5.5-1.6,6.9-5.5
			C489.3,412.7,488.5,408.8,486.1,407.9"/>
		<path class="st31" d="M482.1,419c-2.4-0.9-5.5,1.6-6.9,5.5c-1.4,3.9-0.6,7.8,1.8,8.7c2.4,0.9,5.5-1.6,6.9-5.5
			C485.3,423.7,484.5,419.8,482.1,419"/>
		<path class="st31" d="M528.8,466.5c-3.9-1.4-7.8-0.6-8.7,1.8c-0.9,2.4,1.6,5.5,5.5,6.9c3.9,1.4,7.8,0.6,8.7-1.8
			C535.2,471,532.7,467.9,528.8,466.5"/>
		<path class="st31" d="M539.9,470.5c-3.9-1.4-7.8-0.6-8.7,1.8c-0.9,2.4,1.6,5.5,5.5,6.9c3.9,1.4,7.8,0.6,8.7-1.8
			C546.3,475,543.9,471.9,539.9,470.5"/>
		<path class="st31" d="M537.4,459.7c-2.4-0.9-5.5,1.6-6.9,5.5c-1.4,3.9-0.6,7.8,1.8,8.7c2.4,0.9,5.5-1.6,6.9-5.5
			C540.6,464.4,539.8,460.5,537.4,459.7"/>
		<path class="st31" d="M533.4,470.7c-2.4-0.9-5.5,1.6-6.9,5.5c-1.4,3.9-0.6,7.8,1.8,8.7c2.4,0.9,5.5-1.6,6.9-5.5
			C536.6,475.4,535.8,471.6,533.4,470.7"/>
		<path class="st31" d="M479.5,548.2c-3.9-1.4-7.8-0.6-8.7,1.8c-0.9,2.4,1.6,5.5,5.5,6.9c3.9,1.4,7.8,0.6,8.7-1.8
			S483.4,549.6,479.5,548.2"/>
		<path class="st31" d="M490.7,552.3c-3.9-1.4-7.8-0.6-8.7,1.8c-0.9,2.4,1.6,5.5,5.5,6.9c3.9,1.4,7.8,0.6,8.7-1.8
			C497.1,556.8,494.6,553.7,490.7,552.3"/>
		<path class="st31" d="M488.2,541.4c-2.4-0.9-5.5,1.6-6.9,5.5c-1.4,3.9-0.6,7.8,1.8,8.7c2.4,0.9,5.5-1.6,6.9-5.5
			C491.3,546.1,490.6,542.3,488.2,541.4"/>
		<path class="st31" d="M484.2,552.4c-2.4-0.9-5.5,1.6-6.9,5.5s-0.6,7.8,1.8,8.7c2.4,0.9,5.5-1.6,6.9-5.5
			C487.4,557.2,486.6,553.3,484.2,552.4"/>
		<path class="st31" d="M455.5,501.4c-3.9-1.4-7.8-0.6-8.7,1.8c-0.9,2.4,1.6,5.5,5.5,6.9c3.9,1.4,7.8,0.6,8.7-1.8
			C461.9,505.9,459.4,502.8,455.5,501.4"/>
		<path class="st31" d="M466.7,505.5c-3.9-1.4-7.8-0.6-8.7,1.8c-0.9,2.4,1.6,5.5,5.5,6.9c3.9,1.4,7.8,0.6,8.7-1.8
			C473.1,510,470.6,506.9,466.7,505.5"/>
		<path class="st31" d="M464.1,494.6c-2.4-0.9-5.5,1.6-6.9,5.5c-1.4,3.9-0.6,7.8,1.8,8.7c2.4,0.9,5.5-1.6,6.9-5.5
			C467.3,499.3,466.5,495.5,464.1,494.6"/>
		<path class="st31" d="M460.1,505.6c-2.4-0.9-5.5,1.6-6.9,5.5c-1.4,3.9-0.6,7.8,1.8,8.7c2.4,0.9,5.5-1.6,6.9-5.5
			C463.3,510.4,462.5,506.5,460.1,505.6"/>
		<path class="st31" d="M539.3,563.5c-3.9-1.4-7.8-0.6-8.7,1.8c-0.9,2.4,1.6,5.5,5.5,6.9c3.9,1.4,7.8,0.6,8.7-1.8
			C545.7,568,543.2,564.9,539.3,563.5"/>
		<path class="st31" d="M550.5,567.5c-3.9-1.4-7.8-0.6-8.7,1.8c-0.9,2.4,1.6,5.5,5.5,6.9c3.9,1.4,7.8,0.6,8.7-1.8
			C556.9,572,554.4,569,550.5,567.5"/>
		<path class="st31" d="M547.9,556.7c-2.4-0.9-5.5,1.6-6.9,5.5c-1.4,3.9-0.6,7.8,1.8,8.7c2.4,0.9,5.5-1.6,6.9-5.5
			C551.1,561.4,550.3,557.5,547.9,556.7"/>
		<path class="st31" d="M543.9,567.7c-2.4-0.9-5.5,1.6-6.9,5.5c-1.4,3.9-0.6,7.8,1.8,8.7c2.4,0.9,5.5-1.6,6.9-5.5
			C547.1,572.5,546.3,568.6,543.9,567.7"/>
		<path class="st31" d="M419.3,584.8c-3.9-1.4-7.8-0.6-8.7,1.8s1.6,5.5,5.5,6.9c3.9,1.4,7.8,0.6,8.7-1.8
			C425.7,589.3,423.2,586.2,419.3,584.8"/>
		<path class="st31" d="M430.5,588.8c-3.9-1.4-7.8-0.6-8.7,1.8c-0.9,2.4,1.6,5.5,5.5,6.9c3.9,1.4,7.8,0.6,8.7-1.8
			C436.9,593.3,434.4,590.2,430.5,588.8"/>
		<path class="st31" d="M427.9,578c-2.4-0.9-5.5,1.6-6.9,5.5c-1.4,3.9-0.6,7.8,1.8,8.7c2.4,0.9,5.5-1.6,6.9-5.5
			C431.1,582.7,430.3,578.8,427.9,578"/>
		<path class="st31" d="M424,589c-2.4-0.9-5.5,1.6-6.9,5.5c-1.4,3.9-0.6,7.8,1.8,8.7c2.4,0.9,5.5-1.6,6.9-5.5S426.4,589.9,424,589"
			/>
		<path class="st31" d="M495,631.3c-3.9-1.4-7.8-0.6-8.7,1.8c-0.9,2.4,1.6,5.5,5.5,6.9c3.9,1.4,7.8,0.6,8.7-1.8
			C501.4,635.8,498.9,632.7,495,631.3"/>
		<path class="st31" d="M506.2,635.3c-3.9-1.4-7.8-0.6-8.7,1.8c-0.9,2.4,1.6,5.5,5.5,6.9c3.9,1.4,7.8,0.6,8.7-1.8
			C512.6,639.8,510.1,636.8,506.2,635.3"/>
		<path class="st31" d="M503.7,624.5c-2.4-0.9-5.5,1.6-6.9,5.5c-1.4,3.9-0.6,7.8,1.8,8.7c2.4,0.9,5.5-1.6,6.9-5.5
			C506.8,629.2,506.1,625.3,503.7,624.5"/>
		<path class="st31" d="M499.7,635.5c-2.4-0.9-5.5,1.6-6.9,5.5c-1.4,3.9-0.6,7.8,1.8,8.7c2.4,0.9,5.5-1.6,6.9-5.5
			S502.1,636.4,499.7,635.5"/>
		<path class="st31" d="M477.1,706.1c-3.9-1.4-7.8-0.6-8.7,1.8c-0.9,2.4,1.6,5.5,5.5,6.9c3.9,1.4,7.8,0.6,8.7-1.8
			C483.5,710.6,481,707.5,477.1,706.1"/>
		<path class="st31" d="M488.3,710.2c-3.9-1.4-7.8-0.6-8.7,1.8c-0.9,2.4,1.6,5.5,5.5,6.9c3.9,1.4,7.8,0.6,8.7-1.8
			C494.7,714.6,492.2,711.6,488.3,710.2"/>
		<path class="st31" d="M485.7,699.3c-2.4-0.9-5.5,1.6-6.9,5.5s-0.6,7.8,1.8,8.7c2.4,0.9,5.5-1.6,6.9-5.5
			C488.9,704,488.1,700.2,485.7,699.3"/>
		<path class="st31" d="M481.8,710.3c-2.4-0.9-5.5,1.6-6.9,5.5c-1.4,3.9-0.6,7.8,1.8,8.7c2.4,0.9,5.5-1.6,6.9-5.5
			S484.1,711.2,481.8,710.3"/>
		<path class="st31" d="M388.4,659.9c-3.9-1.4-7.8-0.6-8.7,1.8c-0.9,2.4,1.6,5.5,5.5,6.9c3.9,1.4,7.8,0.6,8.7-1.8
			C394.8,664.4,392.4,661.3,388.4,659.9"/>
		<path class="st31" d="M399.6,663.9c-3.9-1.4-7.8-0.6-8.7,1.8c-0.9,2.4,1.6,5.5,5.5,6.9c3.9,1.4,7.8,0.6,8.7-1.8
			C406,668.4,403.5,665.4,399.6,663.9"/>
		<path class="st31" d="M397.1,653.1c-2.4-0.9-5.5,1.6-6.9,5.5c-1.4,3.9-0.6,7.8,1.8,8.7c2.4,0.9,5.5-1.6,6.9-5.5
			S399.5,653.9,397.1,653.1"/>
		<path class="st31" d="M393.1,664.1c-2.4-0.9-5.5,1.6-6.9,5.5c-1.4,3.9-0.6,7.8,1.8,8.7s5.5-1.6,6.9-5.5
			C396.3,668.9,395.5,665,393.1,664.1"/>
		<path class="st31" d="M423.6,741.3c-3.9-1.4-7.8-0.6-8.7,1.8c-0.9,2.4,1.6,5.5,5.5,6.9c3.9,1.4,7.8,0.6,8.7-1.8
			C430,745.8,427.5,742.8,423.6,741.3"/>
		<path class="st31" d="M434.7,745.4c-3.9-1.4-7.8-0.6-8.7,1.8c-0.9,2.4,1.6,5.5,5.5,6.9c3.9,1.4,7.8,0.6,8.7-1.8
			C441.1,749.9,438.7,746.8,434.7,745.4"/>
		<path class="st31" d="M432.2,734.5c-2.4-0.9-5.5,1.6-6.9,5.5c-1.4,3.9-0.6,7.8,1.8,8.7c2.4,0.9,5.5-1.6,6.9-5.5
			C435.4,739.3,434.6,735.4,432.2,734.5"/>
		<path class="st31" d="M428.2,745.6c-2.4-0.9-5.5,1.6-6.9,5.5c-1.4,3.9-0.6,7.8,1.8,8.7c2.4,0.9,5.5-1.6,6.9-5.5
			S430.6,746.4,428.2,745.6"/>
		<path class="st31" d="M435.6,814.2c-3.9-1.4-7.8-0.6-8.7,1.8s1.6,5.5,5.5,6.9c3.9,1.4,7.8,0.6,8.7-1.8
			C442,818.7,439.5,815.6,435.6,814.2"/>
		<path class="st31" d="M446.8,818.2c-3.9-1.4-7.8-0.6-8.7,1.8c-0.9,2.4,1.6,5.5,5.5,6.9c3.9,1.4,7.8,0.6,8.7-1.8
			C453.2,822.7,450.7,819.6,446.8,818.2"/>
		<path class="st31" d="M444.3,807.4c-2.4-0.9-5.5,1.6-6.9,5.5c-1.4,3.9-0.6,7.8,1.8,8.7c2.4,0.9,5.5-1.6,6.9-5.5
			C447.4,812.1,446.6,808.2,444.3,807.4"/>
		<path class="st31" d="M440.3,818.4c-2.4-0.9-5.5,1.6-6.9,5.5c-1.4,3.9-0.6,7.8,1.8,8.7c2.4,0.9,5.5-1.6,6.9-5.5
			S442.7,819.3,440.3,818.4"/>
		<path class="st31" d="M348,746.9c-3.9-1.4-7.8-0.6-8.7,1.8c-0.9,2.4,1.6,5.5,5.5,6.9c3.9,1.4,7.8,0.6,8.7-1.8
			C354.4,751.4,351.9,748.3,348,746.9"/>
		<path class="st31" d="M359.2,750.9c-3.9-1.4-7.8-0.6-8.7,1.8c-0.9,2.4,1.6,5.5,5.5,6.9c3.9,1.4,7.8,0.6,8.7-1.8
			C365.6,755.4,363.1,752.3,359.2,750.9"/>
		<path class="st31" d="M356.7,740c-2.4-0.9-5.5,1.6-6.9,5.5c-1.4,3.9-0.6,7.8,1.8,8.7c2.4,0.9,5.5-1.6,6.9-5.5
			S359.1,740.9,356.7,740"/>
		<path class="st31" d="M352.7,751.1c-2.4-0.9-5.5,1.6-6.9,5.5c-1.4,3.9-0.6,7.8,1.8,8.7c2.4,0.9,5.5-1.6,6.9-5.5
			S355.1,751.9,352.7,751.1"/>
		<path class="st31" d="M356.9,838.1c-3.9-1.4-7.8-0.6-8.7,1.8c-0.9,2.4,1.6,5.5,5.5,6.9c3.9,1.4,7.8,0.6,8.7-1.8
			C363.3,842.6,360.9,839.5,356.9,838.1"/>
		<path class="st31" d="M368.1,842.1c-3.9-1.4-7.8-0.6-8.7,1.8c-0.9,2.4,1.6,5.5,5.5,6.9c3.9,1.4,7.8,0.6,8.7-1.8
			C374.5,846.6,372,843.5,368.1,842.1"/>
		<path class="st31" d="M365.6,831.3c-2.4-0.9-5.5,1.6-6.9,5.5c-1.4,3.9-0.6,7.8,1.8,8.7c2.4,0.9,5.5-1.6,6.9-5.5
			C368.8,836,368,832.1,365.6,831.3"/>
		<path class="st31" d="M361.6,842.3c-2.4-0.9-5.5,1.6-6.9,5.5c-1.4,3.9-0.6,7.8,1.8,8.7c2.4,0.9,5.5-1.6,6.9-5.5
			C364.8,847,364,843.2,361.6,842.3"/>
		<path class="st31" d="M264.5,790.2c-3.9-1.4-7.8-0.6-8.7,1.8c-0.9,2.4,1.6,5.5,5.5,6.9c3.9,1.4,7.8,0.6,8.7-1.8
			C270.9,794.6,268.4,791.6,264.5,790.2"/>
		<path class="st31" d="M275.7,794.2c-3.9-1.4-7.8-0.6-8.7,1.8c-0.9,2.4,1.6,5.5,5.5,6.9c3.9,1.4,7.8,0.6,8.7-1.8
			C282.1,798.7,279.6,795.6,275.7,794.2"/>
		<path class="st31" d="M273.2,783.3c-2.4-0.9-5.5,1.6-6.9,5.5c-1.4,3.9-0.6,7.8,1.8,8.7c2.4,0.9,5.5-1.6,6.9-5.5
			C276.4,788.1,275.6,784.2,273.2,783.3"/>
		<path class="st31" d="M269.2,794.4c-2.4-0.9-5.5,1.6-6.9,5.5c-1.4,3.9-0.6,7.8,1.8,8.7c2.4,0.9,5.5-1.6,6.9-5.5
			C272.4,799.1,271.6,795.2,269.2,794.4"/>
		<path class="st31" d="M311.9,658.7c-3.9-1.4-7.8-0.6-8.7,1.8c-0.9,2.4,1.6,5.5,5.5,6.9c3.9,1.4,7.8,0.6,8.7-1.8
			C318.3,663.2,315.8,660.1,311.9,658.7"/>
		<path class="st31" d="M323,662.7c-3.9-1.4-7.8-0.6-8.7,1.8c-0.9,2.4,1.6,5.5,5.5,6.9c3.9,1.4,7.8,0.6,8.7-1.8
			C329.4,667.2,327,664.1,323,662.7"/>
		<path class="st31" d="M320.5,651.8c-2.4-0.9-5.5,1.6-6.9,5.5s-0.6,7.8,1.8,8.7c2.4,0.9,5.5-1.6,6.9-5.5
			C323.7,656.6,322.9,652.7,320.5,651.8"/>
		<path class="st31" d="M316.5,662.9c-2.4-0.9-5.5,1.6-6.9,5.5c-1.4,3.9-0.6,7.8,1.8,8.7c2.4,0.9,5.5-1.6,6.9-5.5
			S318.9,663.7,316.5,662.9"/>
		<path class="st31" d="M576.1,618.4c-3.9-1.4-7.8-0.6-8.7,1.8c-0.9,2.4,1.6,5.5,5.5,6.9c3.9,1.4,7.8,0.6,8.7-1.8
			C582.5,622.9,580.1,619.8,576.1,618.4"/>
		<path class="st31" d="M587.3,622.4c-3.9-1.4-7.8-0.6-8.7,1.8c-0.9,2.4,1.6,5.5,5.5,6.9c3.9,1.4,7.8,0.6,8.7-1.8
			C593.7,626.9,591.3,623.9,587.3,622.4"/>
		<path class="st31" d="M584.8,611.6c-2.4-0.9-5.5,1.6-6.9,5.5c-1.4,3.9-0.6,7.8,1.8,8.7c2.4,0.9,5.5-1.6,6.9-5.5
			C588,616.3,587.2,612.4,584.8,611.6"/>
		<path class="st31" d="M580.8,622.6c-2.4-0.9-5.5,1.6-6.9,5.5c-1.4,3.9-0.6,7.8,1.8,8.7c2.4,0.9,5.5-1.6,6.9-5.5
			C584,627.4,583.2,623.5,580.8,622.6"/>
		<path class="st31" d="M545.2,312.3c-5.6-4.2-13.1-4.4-20.1-4c-18.2,1.1-36.2,5.4-52.9,12.6l5.3,1.7c1.7,11.9,11.8,22,23.7,23.7
			c7.8,1.1,15.8-1.1,22.8-4.9c6.9-3.8,13-9,18.9-14.3c3.3-2.9,6.8-6.9,5.4-11.1C547.7,314.5,546.5,313.3,545.2,312.3"/>
	</g>
	<path class="st18" d="M516.4,171.4c0,0-26.9-33-64.1-15.8c-37.3,17.2-38,56.2-33.7,66.1c4.3,9.9-12.2,46.8-5.4,63.9
		c6.8,17.2,17.6,10.4,17.6,10.4s0.4,8.2,16.5,7.2c16.1-1.1,28.7-5.4,28.7-5.4l32.9,2.9l14-6.8c0,0,18.6,11.5,26.5-0.7
		c15.8-2.5,10.7-9.3,10.7-21.5c0-12.2-0.6-32.2,0.8-45.5C562.3,213,552.2,163.5,516.4,171.4L516.4,171.4z"/>
	<g>
		<defs>
			<path id="SVGID_25_" d="M452.3,155.6c-37.3,17.2-38,56.2-33.7,66.1c4.3,9.9-12.2,46.8-5.4,63.9c6.8,17.2,17.6,10.4,17.6,10.4
				s0.4,8.2,16.5,7.2c16.1-1.1,28.7-5.4,28.7-5.4l32.9,2.9l14-6.8c0,0,18.6,11.5,26.5-0.7c15.8-2.5,10.7-9.3,10.7-21.5
				c0-12.2-0.6-32.2,0.8-45.5c1.4-13.3-8.6-62.7-44.5-54.8c0,0-16.9-20.7-42.5-20.7C467.3,150.7,460,152.1,452.3,155.6"/>
		</defs>
		<clipPath id="SVGID_26_">
			<use xlink:href="#SVGID_25_"  style="overflow:visible;"/>
		</clipPath>
		<path class="st32" d="M547.3,250.7c1.4-13.3-6.4-62.1-42.3-54.3c0,0-20.6-39.9-57.9-22.7c-37.3,17.2-38,56.2-33.7,66.1
			c4.3,9.9-12.2,46.8-5.4,63.9c6.8,17.2,17.6,10.4,17.6,10.4s0.4,8.2,16.5,7.2c16.1-1.1,28.7-5.4,28.7-5.4l32.9,2.9l14-6.8
			c0,0,18.6,11.5,26.5-0.7c15.8-2.5,10.7-9.3,10.7-21.5S545.9,264,547.3,250.7"/>
	</g>
	<path class="st14" d="M516.4,246.6c0,0-22.6-1.1-24.7-31.9c-2.1-30.8-23.9-40.5-32.4-27.2c-9.6-10.7-35.1,0.3-33.9,19.3
		c0,0,2.5,55.5,9,69.1c6.4,13.6,22.9,30.8,34.4,28.3c11.5-2.5,16.2-5.7,16.2-5.7v24.4l-5.1,4.7c0,0,14.4,21.5,46.2-8.2
		c-2.5-31.9-3.2-25.4-3.2-25.4s-15,6.1-9.7-2.1c5.4-8.2,9.3-20.8,9.3-20.8s19-8.6,11.8-22.6C527.2,234.4,516.4,246.6,516.4,246.6
		L516.4,246.6z"/>
	<g>
		<defs>
			<path id="SVGID_27_" d="M459.3,187.5c-9.6-10.7-35.1,0.3-33.9,19.3c0,0,2.5,55.5,9,69.1c6.4,13.6,22.9,30.8,34.4,28.3
				c11.5-2.5,16.2-5.7,16.2-5.7v24.4l-5.1,4.7c0,0,14.4,21.5,46.2-8.2c-2.5-31.9-3.2-25.4-3.2-25.4s-15,6.1-9.7-2.1
				c5.4-8.2,9.3-20.8,9.3-20.8s19-8.6,11.8-22.6c-7.2-14-17.9-1.8-17.9-1.8s-22.6-1.1-24.7-31.9c-1.5-21.8-12.8-33-22.3-33
				C465.4,181.7,461.8,183.7,459.3,187.5"/>
		</defs>
		<clipPath id="SVGID_28_">
			<use xlink:href="#SVGID_27_"  style="overflow:visible;"/>
		</clipPath>
		<path class="st33" d="M506.9,213.2c-1.1-8.7-0.8-17.7-4-25.8c-4.6-11.7-15.9-19.9-28.1-22.7c-12.2-2.8-25.2-0.6-36.8,3.9
			c-5.2,2-10.5,4.7-14.2,8.9c-6.2,7.1-6.8,18.4-1.5,26.2l2.5,15.9c0.5-8.2,2.3-16.8,7.6-23c5.4-6.2,15.1-9.3,22.1-5.1
			c1.7,1,3.4,2.4,5.4,2.2c1.9-0.2,3.2-1.9,4.7-3c3.8-2.7,9.3-1.7,12.9,1.3c3.5,3,5.4,7.6,6.3,12.1c0.9,4.6,1,9.2,1.7,13.8
			c1.2,7.6,4.4,15,9.7,20.5c5.3,5.5,13,9,20.7,8.4c0.5,0,1-0.1,1.3-0.4c0.7-0.7,0.3-1.9-0.2-2.8
			C511.6,234.2,508.2,223.8,506.9,213.2"/>
		<path class="st33" d="M525.8,251c-0.7-0.1-1.3,0.6-1.7,1.2c-1.1,1.7-6.5,7.8-4.8,8.9c1.3,0.9,2.6,1.8,4.2,1.8
			c1.5,0.1,3.2-1.1,3.2-2.6c-0.1-1.3-1.2-2.2-2.2-2.9c1.3-0.1,2.5-1.1,3-2.3c0.5-1.2,0.1-2.7-0.8-3.7
			C526.4,251.3,526.1,251.1,525.8,251"/>
		<path class="st33" d="M503.1,287.6c-0.5,0.1-0.9,0.4-1.3,0.7c-6.7,5.2-14,9.8-21.6,13.6l1.5,0.5c-1.2,2.7-2.1,5.5-2.6,8.4
			c-0.1,0.7-0.2,1.6,0.4,2.1c0.7,0.7,1.9,0.3,2.8-0.1c5.8-2.9,11.3-6.7,16.1-11c3.4-3,6.6-6.8,6.6-11.3
			C505.2,289.1,504.4,287.4,503.1,287.6"/>
	</g>
	<path class="st22" d="M475.5,218.4c-1,0.9-0.6,1.6-0.4,1.8c0.7,0.9,1.8,0.2,2.4-0.2c0.2-0.1,0.4-0.4,0.4-0.6
		c1.2-0.6,3.4-1.5,6.2-1.5c5.3-0.1,10.9,2.7,16.1,8c0.2,0.2,0.5,0.3,0.8,0.3c0.3,0,0.6-0.1,0.8-0.3c0.4-0.4,0.4-1.1,0-1.5
		C489.4,211.7,478.4,216,475.5,218.4L475.5,218.4z"/>
	<path class="st22" d="M453.9,218.4c-8.1-1-13.6-0.2-16.9,2.5c-0.5,0.4-0.5,1.1-0.1,1.5c0.2,0.3,0.5,0.4,0.8,0.4
		c0.2,0,0.5-0.1,0.7-0.3c2.8-2.3,7.7-3,15.2-2c0.6,0.1,1.1-0.3,1.2-0.9C455,219,454.5,218.4,453.9,218.4L453.9,218.4z"/>
	<path d="M485,230.2c-2.4,0-4.3,2.9-4.3,6.4c0,3.5,1.9,6.4,4.3,6.4c2.4,0,4.3-2.9,4.3-6.4C489.3,233.1,487.4,230.2,485,230.2
		L485,230.2z"/>
	<path d="M443,230.2c-2.4,0-4.3,2.9-4.3,6.4c0,3.5,1.9,6.4,4.3,6.4c2.4,0,4.3-2.9,4.3-6.4C447.3,233.1,445.4,230.2,443,230.2
		L443,230.2z"/>
	<path class="st34" d="M542.2,318.1c0,0-26.1,56-27.2,117.7c-0.9,48.6,0,55.9,0,55.9s-32.1-0.7-34.3,14.3
		c-2.2,15-7.1,43.7,17.5,40.1l5.3,5.7l-14.2,38.8c0,0,64.3,30.7,88.7,45.7c24.4,15,19.3,2.9,18.6-29.4c-0.7-32.2-17.2-65.2-5-80.2
		c12.2-15,22.2-12.9,23.6-30.1C616.7,479.4,619.8,294.9,542.2,318.1L542.2,318.1z"/>
	<g>
		<defs>
			<path id="SVGID_29_" d="M542.2,318.1c0,0-26.1,56-27.2,117.7c-0.9,48.6,0,55.9,0,55.9s-32.1-0.7-34.3,14.3
				c-2.2,15-7.1,43.7,17.5,40.1l5.3,5.7l-14.2,38.8c0,0,64.3,30.7,88.7,45.7c24.4,15,19.3,2.9,18.6-29.4c-0.7-32.2-17.2-65.2-5-80.2
				c12.2-15,22.2-12.9,23.6-30.1c1.3-16.2,4.2-180.6-60.2-180.6C551.1,316.1,546.8,316.7,542.2,318.1"/>
		</defs>
		<clipPath id="SVGID_30_">
			<use xlink:href="#SVGID_29_"  style="overflow:visible;"/>
		</clipPath>
		<path class="st35" d="M547.3,310.4c-15.5,5-27.6,17.8-34.8,32.4c-7.2,14.6-10.1,31-11.9,47.2c-3.7,33.1-3.1,66.7,1.6,99.7
			c10.2-26.6,27.9-49.8,38.3-76.3c12.8-32.5,14.2-68.4,11.4-103.2L547.3,310.4z"/>
		<path class="st35" d="M601.7,518.5c-1.1,1-2.1,2.1-3,3.2c2.5-1.3,4.9-2.6,7.4-3.9C605.2,516.3,602.9,517.3,601.7,518.5"/>
		<path class="st35" d="M533.6,568.4c12.5-1.5,25.6-3,35.9-10.2c12.9-8.9,18.9-24.7,29.2-36.5c-28.5,14.5-60,23-91.9,24.9l-11.1-3.4
			c3.2,7.8,0.3,16.8-4.2,23.9c-4.5,7.1-10.5,13.2-14.3,20.7c-1.8,3.4-3.1,7.3-2.5,11.2c0.6,3.9,3.2,7.1,5.7,10.2
			c7.5,9.1,15.6,17.8,25.4,24.4c25.5,17.2,58.5,17.7,89.2,16.5c3.9-0.1,8.9-1.2,9.5-5.1c0.4-2.6-1.6-4.8-3.5-6.6
			c-23.4-22.7-52.5-39.5-83.9-48.4c2.8-4.3,11.6-2.3,12.7-7.3c0.8-3.7-4.1-7-3-10.6C527.7,569.5,530.9,568.7,533.6,568.4"/>
		<path class="st35" d="M523.5,488.7c-5.1,2.2-10,4.7-14.6,7.6L523.5,488.7z"/>
		<path class="st35" d="M565.3,381.3c-12,26.8-7.4,57.5-7.6,86.8c0,4-0.4,8.6-3.5,11.1c-2,1.6-4.6,2-7,2.4c-7.1,1.3-14,3.2-20.7,5.9
			c13.5-4.4,25.7-3.1,39.3-8.1c0.8-0.3,3-7.6,3.5-8.2c0.7-1,0.3-2.3,0-3.4C560.9,439.9,563,410.2,565.3,381.3"/>
		<path class="st35" d="M523.5,488.7c1-0.4,2-0.8,3-1.2c-0.6,0.2-1.2,0.4-1.9,0.6L523.5,488.7z"/>
		<path class="st35" d="M576.1,477.6c6.9-1.5,13.8-3.3,20.6-5.2c-7.3-5.5-20.5-6.4-28.8-2.5l-4.2,9c7.6,2.4,30,13.1,35.3,19.1
			C593.4,489.3,585.4,482.2,576.1,477.6"/>
	</g>
	<path class="st34" d="M420.4,360.5c-11.8,20.3-51,117.3-47.5,167.9c1.4,20.9,24.7,32.9,42.4,21.7c1.5-1,2.3-1.6,2.3-1.6
		s-11.2,24.8-20.8,34.1c-9.6,9.3,33,2.9,33,2.9s26.2-30.1,29.6-78.1s-10.2-156,10.2-177.5C469.5,329.9,435.5,334.7,420.4,360.5
		L420.4,360.5z"/>
	<g>
		<defs>
			<path id="SVGID_31_" d="M420.4,360.5c-11.8,20.3-51,117.3-47.5,167.9c1.4,20.9,24.7,32.9,42.4,21.7c1.5-1,2.3-1.6,2.3-1.6
				s-11.2,24.8-20.8,34.1c-9.6,9.3,33,2.9,33,2.9s26.2-30.1,29.6-78.1c3.4-48,28.6-151.6,10.2-177.5l0,0
				C469.5,329.9,435.5,334.7,420.4,360.5"/>
		</defs>
		<clipPath id="SVGID_32_">
			<use xlink:href="#SVGID_31_"  style="overflow:visible;"/>
		</clipPath>
		<path class="st36" d="M462.4,323.8c-9.8,7.6-16.3,19-19.6,31c-3.3,12-3.8,24.6-3.3,37c1,27.7,6.4,55.6,18.9,80.4
			c9.5-45.7-3.7-95.3,13.7-138.5c1.9-4.8,4.1-10.9,0.6-14.7L462.4,323.8z"/>
		<path class="st36" d="M392.9,504.8c-2.3,4.7-4.4,9.8-4.5,15c7.9-10.7,20-20.4,31.4-27.1l4.4-14.5c-7.2-0.1-14.2,3.5-19.4,8.6
			C399.8,491.8,396.1,498.2,392.9,504.8"/>
		<path class="st36" d="M428.5,571.3c-1.9-2.1-1.4-5.4-0.6-8.2c3.5-12.8,9.3-25.8,6.7-38.9C431,532,426.1,539,420,545l0-2.1
			c-1.1,6-6.6,9.9-11,14.1c-9.5,8.9-15.4,21.4-16.3,34.3c-0.2,2.6-0.1,5.5,1.6,7.6c2.2,2.7,6.2,2.8,9.7,2.7
			c8.2-0.2,16.5-0.5,24.1-3.5c7.6-3,14.4-9.4,15.5-17.5c0.2-1.7,0.2-3.6-0.8-5C439.8,571.3,432,575.1,428.5,571.3"/>
	</g>
	<polygon class="st37" points="402.6,439 397.3,445.5 429.3,512.3 461.4,501.3 429.7,443 	"/>
	<g>
		<defs>
			<polygon id="SVGID_33_" points="397.3,445.5 429.3,512.3 461.4,501.3 429.7,443 402.6,439 			"/>
		</defs>
		<clipPath id="SVGID_34_">
			<use xlink:href="#SVGID_33_"  style="overflow:visible;"/>
		</clipPath>
		<polygon class="st38" points="397.3,445.5 395.1,447.1 426.4,515.6 454.4,508.6 424.1,450.3 		"/>
	</g>
	<path class="st14" d="M473.3,494.3c-4.8-10.7-27.9-33.3-29-22c-1.1,11.3,9.3,20.4,9.3,20.4s-15.2-4.9-24.3,6.4
		c-9.1,11.3-13.5,14.5-3.8,19.3c9.7,4.8,0,4.9,7.6,13.4c4.1,4.6,8.8,9.1,12.3,12.2c3.1,2.8,7.3,4.1,11.4,3.7l30.2-3.1
		c0,0,7.7-6.5,3-26.3C478.7,509.9,478.1,505.1,473.3,494.3L473.3,494.3z"/>
	<g>
		<defs>
			<path id="SVGID_35_" d="M444.2,472.3c-1.1,11.3,9.3,20.4,9.3,20.4s-15.2-4.9-24.3,6.4c-9.1,11.3-13.5,14.5-3.8,19.3
				c9.7,4.8,0,4.9,7.6,13.4c4.1,4.6,8.8,9.1,12.3,12.2c3.1,2.8,7.3,4.1,11.4,3.7l30.2-3.1c0,0,7.7-6.5,3-26.3
				c-11.2-8.6-11.8-13.4-16.7-24.2c-3.9-8.7-19.8-25.1-26.3-25.1C445.5,469.2,444.5,470.1,444.2,472.3"/>
		</defs>
		<clipPath id="SVGID_36_">
			<use xlink:href="#SVGID_35_"  style="overflow:visible;"/>
		</clipPath>
		<path class="st39" d="M492.9,514.4c-1.7-2.7-4.4-4.8-7.5-5.5l-4.6,0.8c3.1,5.5,5.7,11.5,6.4,17.8c0.7,6.3-0.6,13-4.5,18
			c-0.7,0.8-1.4,2-0.7,2.8c0.2,0.2,0.5,0.4,0.7,0.5c2.4,0.9,5.1-0.2,6.9-2c1.8-1.8,2.7-4.3,3.5-6.7c1.8-5.4,3.1-11,2.6-16.6
			C495.5,520.2,494.6,517.1,492.9,514.4"/>
		<path class="st39" d="M453.1,487.1c-4.7-4.8-7.6-11.3-8-18l-0.5,0.4c-2.1,1-2.9,3.5-3,5.7c-0.2,2.3,0.1,4.6-0.7,6.7
			c-1.6,4.4-6.7,6.2-10.8,8.4c-5.1,2.7-9.5,6.9-12.4,11.9c-2.6,4.4-3.8,10.6-0.2,14.3c0.6,0.6,1.4,1.1,2.2,1.1
			c1.8,0,2.8-1.9,3.5-3.5c1.9-4.6,4-9.1,7.3-12.8c3.3-3.7,8.1-6.3,13-6c3.3,0.2,6.4,1.6,9.6,1.9c2,0.2,4.1-0.1,6-0.9
			c0.5-0.2,1.1-0.5,1.2-1.1c0.1-0.4-0.2-0.9-0.4-1.2C458.1,491.4,455.4,489.4,453.1,487.1"/>
		<path class="st39" d="M425.5,519.4L425,522c0.2,3.6,1,7.1,2.2,10.4c1.6-4.6,5.1-8.4,9.4-10.6c2.7-1.4,6.1-2.4,7.2-5.3
			C437.7,515.4,431.7,520,425.5,519.4"/>
		<path class="st39" d="M450.1,525.8c-0.2-0.1-0.4-0.1-0.7,0c-2.9,0.5-5.5,2.1-7.5,4.2c-1.8,1.9-3.4,4.4-5.9,5.2
			c-1.3,0.4-2.7,0.3-3.9-0.2c1.5,1.8,3,3.7,4.5,5.5c0.4,0.5,0.9,1,1.5,1c0.6,0,1-0.5,1.4-0.9c3.4-3.8,6.7-7.7,9.8-11.8
			c0.5-0.7,1.1-1.4,1.1-2.3C450.4,526.2,450.3,525.9,450.1,525.8"/>
		<path class="st39" d="M429.8,533.3c0.6,0.7,1.4,1.3,2.2,1.7l-1.4-1.7L429.8,533.3z"/>
		<path class="st39" d="M443,545.1c0.8,1.2,1.9,2.5,3.2,2.6l-0.6-1.7L443,545.1z"/>
		<path class="st39" d="M448.9,545.4c-0.5,0.9-1,1.8-2,2.2c-0.2,0.1-0.4,0.1-0.6,0.1c0.2,0.6,0.5,1.3,0.7,1.9
			c0.1,0.3,0.2,0.5,0.5,0.6c0.3,0.1,0.7-0.2,0.9-0.5c2.6-3.1,5.1-6.2,7.4-9.5c0.6-0.8,1.2-1.8,0.7-2.7
			C453.4,539.6,450.7,542.3,448.9,545.4"/>
	</g>
	<path class="st21" d="M491.7,255.8c-6.5,0-11.8,2.1-11.8,4.8c0,2.6,5.3,4.8,11.8,4.8c6.5,0,11.8-2.1,11.8-4.8
		C503.5,258,498.2,255.8,491.7,255.8L491.7,255.8z"/>
	<path class="st21" d="M459.3,260.5c-1.8,0-6.7-0.4-8.3-1.9c-1.3-1.3,2.4-7.7,6.6-12.7c0.4-0.5,0.3-1.2-0.1-1.5
		c-0.5-0.4-1.2-0.3-1.5,0.1c-2.4,2.8-9.8,12.4-6.5,15.7c2.5,2.5,9.1,2.6,9.8,2.6c0.6,0,1.1-0.5,1.1-1.1
		C460.4,260.9,459.9,260.5,459.3,260.5L459.3,260.5z"/>
	<path class="st21" d="M455.8,282.7c1.5,2.7,4.3,5.1,9.1,5.1c3.7,0,6.3-2.3,8-5c2.3-3.5,3.1-7.6,3.1-7.6h-22.2
		C453.8,275.2,453.8,279.3,455.8,282.7L455.8,282.7z"/>
	<path class="st23" d="M455.8,282.7c1.5,2.7,4.3,5.1,9.1,5.1c3.7,0,6.3-2.3,8-5c-2.1-1.4-5.2-2.2-8.6-2.2
		C460.9,280.6,457.9,281.4,455.8,282.7L455.8,282.7z"/>
	<path class="st40" d="M592.1,923c0,0,0.4,14.7-14.7,16.1c-15,1.4-35.1,14-21.8,21.1c13.3,7.2,62.3,6.8,69.1-1.8
		c1.7-2.1,2.8-5.4,3.5-9.3c2.3-12,1.1-29,1.1-29L592.1,923z"/>
	<path class="st40" d="M669.2,922.4c0,0,2.1,14.5-12.6,17.8c-14.8,3.2-33.2,18.1-19.1,23.6c14,5.5,62.7-0.8,68.4-10.1
		c1.4-2.3,2.1-5.7,2.4-9.7c0.9-12.2-2.4-28.9-2.4-28.9L669.2,922.4z"/>
	<path class="st15" d="M698.8,657.3l-105.3-3.7c0,0-26.5,63-20.1,126.8c6.4,63.8,3.3,112.5,9.5,127.5V933l47.1-3.2
		c0,0,5.7-3.3,5.7-16.9s-1.4-139.7,4.3-159.7c5.7-20.1,7.2,144,20.1,154c-2.5,12.9,3.7,22.4,3.7,22.4l48.4,0.5l1.7-17.2
		c0,0,7.2-60.2,4.3-89.5C715.3,794,698.8,657.3,698.8,657.3L698.8,657.3z"/>
	<g>
		<defs>
			<path id="SVGID_37_" d="M573.4,780.4c6.4,63.8,3.3,112.5,9.5,127.5V933l47.1-3.2c0,0,5.7-3.3,5.7-16.9s-1.4-139.7,4.3-159.7
				c5.7-20.1,7.2,144,20.1,154c-2.5,12.9,3.7,22.4,3.7,22.4l48.4,0.5l1.7-17.2c0,0,7.2-60.2,4.3-89.5
				c-2.9-29.4-19.3-166.1-19.3-166.1l-105.3-3.7C593.5,653.6,567,716.7,573.4,780.4"/>
		</defs>
		<clipPath id="SVGID_38_">
			<use xlink:href="#SVGID_37_"  style="overflow:visible;"/>
		</clipPath>
		<path class="st41" d="M710.3,671.6c-0.8-6.6-1.8-13.7-6.4-18.5c-4.6-4.8-14.2-5.2-16.9,0.9l-8.5,6.7c8,14.5,9.8,32.4,4.8,48.2
			c-1.9,6.1-4.8,11.9-6.3,18.1c-1.5,6.2-1.5,13.2,2.1,18.5c3.6,5.3,10.2,8.3,12.9,14.1c3.3,7-0.3,15.1-1,22.8
			c-1.1,12.9,6.1,24.9,13.2,35.7c2.7,4.1,5.4,8.3,6,13.1c0.9,7.6-3.8,14.6-5.9,22c-6,21,9.3,45.9-2.4,64.4c-0.6,1-1.4,1.9-2.4,2.4
			c-1.2,0.5-2.6,0.3-3.9,0c-12-2.3-24.1-4.6-36.1-6.9c-1.8-0.4-3.9-0.7-5.5,0.3c-2.3,1.4-2.6,4.5-2.6,7.2c-0.1,7.7,0.9,17,8,20.1
			c2.3,1,4.9,1.1,7.4,1.1c17.7,0.4,35.4,0.8,53.2,1.2c2.4,0.1,5.1,0.1,7.1-1.3c2.5-1.7,3.3-4.9,3.9-7.8c8.7-43.2,6.5-88,0.6-131.7
			C725.3,758.5,715.9,715.3,710.3,671.6"/>
		<path class="st41" d="M640.7,749.4l0.3,2.1c0.1-6.1-0.9-13.7-6.6-15.7c-3.3-1.2-7.1,0.2-10,2.3c-8.3,6.2-11.1,17.5-10.8,27.9
			c0.3,10.4,3.1,20.5,3.4,30.9c0.1,4.3-0.8,9.4-4.7,11c-2.1,0.9-4.9,0.6-6.3,2.3c-1.9,2.2,0,5.8,2.6,7.1c2.6,1.4,5.6,1.6,8.2,3
			c6.2,3.5,6.4,12.3,5.7,19.4c-2.1,24.2-4.3,48.4-6.4,72.6c-0.1,1.3-0.2,2.7-0.8,3.9c-1.3,3.1-4.9,4.6-8.2,4.6
			c-3.3,0-6.5-1.2-9.7-2.1c-5.1-1.4-10.6-2.2-15.6-0.6c-5,1.6-9.3,6.3-9.2,11.6c0.2,5.2,4.6,9.4,9.5,11.1c4.9,1.7,10.2,1.2,15.4,0.7
			c12.2-1.3,24.4-3.1,36.4-5.5c2.9-0.6,6-1.3,7.8-3.7c1.4-1.8,1.7-4.2,1.8-6.4c0.9-12.5-0.2-25-1.1-37.5
			C639.2,842.2,640,795.8,640.7,749.4"/>
	</g>
	<path class="st14" d="M732.3,345c-7.5-12.9-32-17.7-39.4,4.3c-10.9,2.1-13.4,16.7,6.6,30.7c4.8,21.6-14,98.4-14,98.4
		s23.6,18.7,30.6,10.3c7-8.4,3.8-102.8,3.8-102.8S739.8,357.9,732.3,345L732.3,345z"/>
	<path class="st21" d="M719.4,358c-4.7,4.1-7.4,9.8-7.4,16.1c0,1.1,1.6,1.1,1.6,0c0-5.8,2.5-11.1,6.9-14.9
		C721.4,358.4,720.2,357.3,719.4,358L719.4,358z"/>
	<path class="st21" d="M703.1,353.5c-0.5-2.6-3.5-3.6-5.9-3.1c-1,0.2-0.6,1.8,0.4,1.6c1.2-0.3,2.4-0.1,3.2,0.8
		c1.3,1.5,0.3,3.7-1.7,3.5c1,0.1,1.9,0.3,2.7,0.7C702.8,356.3,703.4,354.9,703.1,353.5L703.1,353.5z"/>
	<path class="st21" d="M699.2,358v-1.6C698.1,356.3,698.1,358,699.2,358L699.2,358z"/>
	<path class="st21" d="M701.8,357.1c-0.7,0.6-1.7,1-2.7,0.9c2.6,0.2,4.5,2.2,4.7,4.7c0.1,1,1.7,1.1,1.6,0
		C705.4,360.2,703.9,358.2,701.8,357.1L701.8,357.1z"/>
	<path class="st21" d="M701.8,357.1c-0.8-0.4-1.7-0.7-2.7-0.7v1.6C700.2,358.1,701.1,357.7,701.8,357.1L701.8,357.1z"/>
	<path class="st21" d="M717.6,354.6c-3.1,0.5-6.3,0.6-9.5,0.3c-1.1-0.1-1,1.6,0,1.6c3.3,0.3,6.6,0.1,9.9-0.4
		C719.1,356,718.6,354.4,717.6,354.6L717.6,354.6z"/>
	<path class="st42" d="M604.8,357.4c-7.4-22-31.8-17.2-39.4-4.3c-7.5,12.9,12.4,40.8,12.4,40.8s-3.2,94.5,3.8,102.8
		c7,8.4,30.6-10.3,30.6-10.3s-18.8-76.8-14-98.4C618.2,374.1,615.6,359.6,604.8,357.4L604.8,357.4z"/>
	<path class="st21" d="M578.3,366.1c-0.8-0.7-2,0.5-1.2,1.2c4.4,3.8,6.9,9.1,6.9,14.9c0,1.1,1.6,1.1,1.6,0
		C585.6,375.9,583,370.1,578.3,366.1L578.3,366.1z"/>
	<path class="st21" d="M600.4,358.5c-2.4-0.6-5.3,0.4-5.9,3.1c-0.3,1.4,0.3,2.7,1.3,3.6c0.8-0.4,1.7-0.7,2.7-0.7c-2,0.1-3-2-1.7-3.5
		c0.8-1,2-1.1,3.2-0.8C601,360.4,601.5,358.8,600.4,358.5L600.4,358.5z"/>
	<path class="st21" d="M598.5,364.5v1.6C599.6,366,599.6,364.4,598.5,364.5L598.5,364.5z"/>
	<path class="st21" d="M595.8,365.2c-2.1,1-3.5,3.1-3.7,5.7c-0.1,1.1,1.6,1.1,1.6,0c0.2-2.6,2.1-4.6,4.7-4.7
		C597.5,366.2,596.6,365.8,595.8,365.2L595.8,365.2z"/>
	<path class="st21" d="M598.5,366.1v-1.6c-1,0.1-1.9,0.3-2.7,0.7C596.6,365.8,597.5,366.2,598.5,366.1L598.5,366.1z"/>
	<path class="st21" d="M589.6,363c-3.2,0.3-6.3,0.2-9.5-0.3c-1-0.2-1.5,1.4-0.4,1.6c3.3,0.5,6.6,0.7,9.9,0.4
		C590.6,364.6,590.6,362.9,589.6,363L589.6,363z"/>
	<path class="st40" d="M679.1,466.6l-18.5,44.8l-20.2-0.3l-24.8-27.7l-15.4,5.5l-26.8,9.4l18.5,68.7l-6.6,97.4
		c0,0,114.9,17.2,120.6,0c5.7-17.2,0-108.7,0-108.7l18.6-80.1L679.1,466.6z"/>
	<g>
		<defs>
			<path id="SVGID_39_" d="M660.5,511.4l-20.2-0.3l-24.8-27.7l-15.4,5.5l-26.8,9.4l18.5,68.7l-6.6,97.4c0,0,114.9,17.2,120.6,0
				c5.7-17.2,0-108.7,0-108.7l18.6-80.1l-45.5-9L660.5,511.4z"/>
		</defs>
		<clipPath id="SVGID_40_">
			<use xlink:href="#SVGID_39_"  style="overflow:visible;"/>
		</clipPath>
		<path class="st43" d="M627.9,503.9c0.2-0.1,0.4-0.1,0.6-0.2c0.1-0.1,0.1-0.3,0.2-0.4L627.9,503.9z"/>
		<path class="st43" d="M667.4,495.7c-13.4,1.4-26.5,4.2-38.9,8c-4.3,8.6-15.7,16.6-14.1,25.6c1.7,9.2,5.9,22.2,31.8,20.4
			c9.6-0.7,19.4-3.9,22.6-10.3c3.9-7.9-1.7-16.5-1.2-24.9c0.3-5.4,3.2-10.6,5-15.9c0.2-0.6,0.4-1.2,0.1-1.8
			C672,495.6,669.4,495.5,667.4,495.7"/>
		<path class="st43" d="M620.8,466.7c-9.2-2.1-18.5,2.4-26.4,7.5c-8.3,5.2-16.1,11.2-23.4,17.7c-4.5,4-8.9,8.4-10.5,14.1
			c-1.5,5.2-0.4,10.7,0.9,16c5.2,20.2,14.7,38.9,24.5,57.3c1-5.8,1.9-11.7,4.5-16.9c2.4-5,6.1-9.3,9.8-13.5
			c12.1-13.8,24.4-27.8,40.2-37.1l2.5-4.2c-0.7-8.3-1.4-16.7-4.6-24.3C635.1,475.5,628.9,468.6,620.8,466.7"/>
		<path class="st43" d="M726.3,460c-11.9-3.3-23.7-6.6-35.6-9.9c-6.8-1.9-14.8-3.5-20.1,1.1c-3.1,2.7-4.5,6.9-5.5,10.9
			c-3.8,14.9-5.8,30.4-5.7,45.8l1.6-3.6c3.9,14.8,8.2,30.5,19.3,41c8.9,8.4,21,12.4,32.7,16.2c6.8-29.5,13.5-59,20.1-88.5
			c0.8-3.3,1.4-7.2-0.8-9.8C730.9,461.3,728.5,460.6,726.3,460"/>
		<path class="st43" d="M710.3,653c-1.6-0.1-3.1,0.3-4.6,0.8c-40.1,11.6-83.3,12.3-123.8,2.1l-4.9-2.5c-1.6,4.1-2.7,8.3-3.3,12.6
			c-0.2,1.2-0.2,2.5,0.5,3.4c0.7,0.8,1.8,1,2.9,1.1c37.6,5,75.4,10,113.3,9.2c7.2-0.2,14.7-0.6,20.7-4.6c5.9-4,9.3-12.7,5.1-18.5
			C714.8,654.6,712.7,653.1,710.3,653"/>
	</g>
	<path class="st18" d="M678.1,418.1c-3.7-25-28.4-23-28.4-23s-23.1-22.5-39.6-3.1c-10.4,4.1-24.8,18.4-22.9,41.3
		c-7.4,16.8,9.1,26.7,9.1,26.7s55.9,21.8,74.4,17.3c18.5-4.5,20.1-20.9,15.6-30.6C689.7,437.8,689.2,434.4,678.1,418.1L678.1,418.1z
		"/>
	<g>
		<defs>
			<path id="SVGID_41_" d="M610.1,392.1c-10.4,4.1-24.8,18.4-22.9,41.3c-7.4,16.8,9.1,26.7,9.1,26.7s55.9,21.8,74.4,17.3
				c18.5-4.5,20.1-20.9,15.6-30.6c3.3-9.1,2.9-12.5-8.2-28.7c-3.7-25-28.4-23-28.4-23s-11.3-11-23.7-11
				C620.7,384.2,615.1,386.3,610.1,392.1"/>
		</defs>
		<clipPath id="SVGID_42_">
			<use xlink:href="#SVGID_41_"  style="overflow:visible;"/>
		</clipPath>
		<path class="st44" d="M674.1,433.9c-3.7-25-28.4-23-28.4-23s-23.1-22.5-39.6-3.1c-10.4,4.1-24.8,18.4-22.9,41.3
			c-7.4,16.8,9.1,26.7,9.1,26.7s55.9,21.8,74.4,17.3c18.5-4.5,20.1-20.9,15.6-30.6C685.6,453.6,685.2,450.1,674.1,433.9"/>
	</g>
	<path class="st14" d="M664.1,464.7c0,0-3.8-6.4-1.3-12.8c-17.3-9.3-16-20.1-16-20.1s-18.4,5.4-23.8-3.5c-12.5,0-20.3-7.7-20.3-7.7
		s-1.8,16.6-10.8,12.5c0.2,0.3,3.7,7.5,0.9,29.1c-2.9,22.1,4.5,39,26.2,39c4.7,0,11-1,14.7-2.4c0.6-0.2,1.2-0.5,1.6-0.7
		c-0.1,1.5-0.2,3.9-0.8,6.3c-1,4-3.3,8.1-9.5,8.7c-13.1,1.3,1.6,39.3,21.1,32.3c19.5-7,22.7-30.4,22.7-30.4l-8.3-3.5l1.9-27.5
		c0,0,20.1-6.4,16.6-17.3C674.1,451.1,664.1,464.7,664.1,464.7L664.1,464.7z"/>
	<g>
		<defs>
			<path id="SVGID_43_" d="M591.9,433.1c0.2,0.3,3.7,7.5,0.9,29.1c-2.9,22.1,4.5,39,26.2,39c4.7,0,11-1,14.7-2.4
				c0.6-0.2,1.2-0.5,1.6-0.7c-0.1,1.5-0.2,3.9-0.8,6.3c-1,4-3.3,8.1-9.5,8.7c-13.1,1.3,1.6,39.3,21.1,32.3
				c19.5-7,22.7-30.4,22.7-30.4l-8.3-3.5l1.9-27.5c0,0,20.1-6.4,16.6-17.3c-5-15.5-15-1.9-15-1.9s-3.8-6.4-1.3-12.8
				c-17.3-9.3-16-20.1-16-20.1s-18.4,5.4-23.8-3.5c-12.5,0-20.3-7.7-20.3-7.7S600.8,437.2,591.9,433.1"/>
		</defs>
		<clipPath id="SVGID_44_">
			<use xlink:href="#SVGID_43_"  style="overflow:visible;"/>
		</clipPath>
		<path class="st45" d="M652.4,424.8c-9.6-4.1-17.6-11.4-27.4-15.3c-6.1-2.4-12.9-3.3-19.3-1.9c-6.4,1.4-12.4,5.3-15.6,11
			c-3.2,5.7-3.4,13.2,0.1,18.7l0.1-0.5c2.8,1.5,6.4,1.4,9.2-0.2c2.8-1.6,4.7-4.7,4.8-7.9c6.5,3.2,3.5,5.6,20.4,7
			c0.8,0.1,1.6,0.3,2.2,0.8c0.5,0.4,0.9,1.1,1.3,1.6c3.2,4.7,10.9,5.5,15,1.6c1.7,6.4,8.1,11.2,14.7,11c-0.3,5.4,2.3,10.8,6.6,14
			c-2.1-5.4,1.1-11.3,2.5-16.9c1.5-5.9,1-12.7-3.3-17C660.7,427.7,656.4,426.5,652.4,424.8"/>
		<path class="st45" d="M643.5,493.1c-1.3-0.6-2.6,0.6-3.6,1.5c-3.8,3.5-9,4.8-14.1,6l5.1-0.2c-0.6,1.8-1.1,3.6-1.4,5.4
			c-0.1,0.7-0.2,1.6,0.3,2.1c0.5,0.6,1.5,0.6,2.3,0.4c5.7-1.1,10-6.1,12-11.5C644.6,495.7,644.8,493.8,643.5,493.1"/>
	</g>
	<path class="st21" d="M644.5,468.6c-6.1,0-11,2-11,4.4c0,2.5,4.9,4.4,11,4.4c6.1,0,11-2,11-4.4
		C655.5,470.6,650.6,468.6,644.5,468.6L644.5,468.6z"/>
	<path class="st21" d="M611.3,469c-1.7-1.1,0.3-4.5,0.3-4.5c0.3-0.5,0.2-1.2-0.4-1.5c-0.5-0.3-1.2-0.2-1.5,0.4
		c-1.2,1.9-2.5,5.7,0.3,7.5c0.2,0.1,0.4,0.2,0.6,0.2c0.4,0,0.7-0.2,0.9-0.5C612,470,611.8,469.3,611.3,469L611.3,469z"/>
	<path class="st21" d="M608.6,483.1c0.6,2.3,1.8,4.7,4.3,5.5c2.8,0.9,5.5-1.5,7.5-3.9c1.7-2.2,2.9-4.4,2.9-4.4l-15.2-2.4
		C608,477.8,607.9,480.4,608.6,483.1L608.6,483.1z"/>
	<path class="st23" d="M613.6,481.7c-1.9,0-3.7,0.5-5,1.4c0.6,2.3,1.8,4.7,4.3,5.5c2.8,0.9,5.5-1.5,7.5-3.9
		C619.1,482.9,616.5,481.7,613.6,481.7L613.6,481.7z"/>
	<path class="st22" d="M627.6,442.9c-0.5,0.4-0.6,1-0.3,1.5c0.3,0.5,1,0.6,1.5,0.3c0.3-0.2,6.9-4.7,13.4,3c0.2,0.3,0.5,0.4,0.8,0.4
		c0.2,0,0.5-0.1,0.7-0.3c0.5-0.4,0.5-1.1,0.1-1.5C637.7,438.8,630.5,440.8,627.6,442.9L627.6,442.9z"/>
	<path class="st22" d="M625.5,454.2c-0.5,0.4-0.6,1-0.3,1.5c0.3,0.5,1,0.6,1.5,0.3c0.3-0.2,6.9-4.7,13.4,3c0.2,0.3,0.5,0.4,0.8,0.4
		c0.2,0,0.5-0.1,0.7-0.3c0.5-0.4,0.5-1.1,0.1-1.5C635.6,450.1,628.4,452.1,625.5,454.2L625.5,454.2z"/>
	<path class="st22" d="M610.4,438.5c-2.4-1.5-7.8-3.2-11.1,1.5c-0.3,0.5-0.2,1.2,0.3,1.5c0.2,0.1,0.4,0.2,0.6,0.2
		c0.3,0,0.7-0.2,0.9-0.5c2.9-4.1,7.9-1,8.1-0.9c0.5,0.3,1.2,0.2,1.5-0.3C611,439.5,610.9,438.8,610.4,438.5L610.4,438.5z"/>
	<path class="st22" d="M610.4,453.2c-2.4-1.5-7.8-3.2-11.1,1.5c-0.3,0.5-0.2,1.2,0.3,1.5c0.2,0.1,0.4,0.2,0.6,0.2
		c0.3,0,0.7-0.2,0.9-0.5c2.9-4.1,7.9-1,8.1-0.9c0.5,0.3,1.2,0.2,1.5-0.3C611,454.2,610.9,453.6,610.4,453.2L610.4,453.2z"/>
	<path class="st21" d="M670.4,465.2c-0.9,0-1.6,0.8-2.1,1.5c-2.2,3.3-6.2,5.4-6.9,9.3c-0.2,1.1,0.4,1.8,1.3,2.5
		c0.9,0.7,2.2,0.4,3-0.4c0.8-0.8,1.1-1.9,1.2-3c0-0.4,0.1-0.8,0.3-1.1c0.4-0.4,1-0.4,1.6-0.5c1.5-0.2,3-1.2,3.6-2.6
		c0.7-1.4,0.5-3.2-0.3-4.5C671.7,465.8,671.1,465.2,670.4,465.2L670.4,465.2z"/>
	<path class="st46" d="M713.2,749.9c-6-0.4-13.1,2.7-19.9,4.8c-3.4,1.1-5.9,7.7-6,15.6c-0.1,14.2,1.7,33.8,12.9,30.6
		c6.9-2,11.7-3.8,14.8-5.2c3.6-1.6,6.1-9.2,5.8-17.6C720.3,765.9,718.6,750.3,713.2,749.9L713.2,749.9z"/>
	<path class="st47" d="M711.1,742.4c-6-0.2-13.1,1.2-19.9,2.1c-3.4,0.5-5.9,3.4-6,6.8c-0.1,6.2,1.7,14.7,12.9,13.3
		c6.9-0.9,11.7-1.6,14.8-2.3c3.6-0.7,6.1-4,5.8-7.7C718.2,749.4,716.5,742.6,711.1,742.4L711.1,742.4z"/>
</g>
</svg>
